<svg width="312" height="192" viewBox="0 0 312 192" fill="none" xmlns="http://www.w3.org/2000/svg">
<g clip-path="url(#clip0_3659_3829)">
<mask id="mask0_3659_3829" style="mask-type:alpha" maskUnits="userSpaceOnUse" x="-89" y="0" width="636" height="192">
<rect x="-89" width="636" height="192" fill="url(#paint0_linear_3659_3829)"/>
</mask>
<g mask="url(#mask0_3659_3829)">
<path d="M6.70947 -1.53223L3.01416 0.51416V0.61084L6.70947 2.65723V3.68311L2.09033 0.959961V0.165039L6.70947 -2.55811V-1.53223Z" fill="#A4A4A4"/>
<path d="M13.5378 4H12.5979V0.476562H9.32152V4H8.38158V-3.75049H9.32152V-0.393555H12.5979V-3.75049H13.5378V4ZM19.0932 2.49609H19.9795C19.8022 3.45752 18.8784 4.10742 17.6538 4.10742C16.0532 4.10742 15.124 3.146 15.124 1.48633V0.61084C15.124 -0.925293 16.1069 -1.93506 17.5893 -1.93506C19.104 -1.93506 19.9956 -0.930664 19.9956 0.755859V1.3252H16.0263V1.56152C16.0263 2.63037 16.6601 3.31787 17.6538 3.31787C18.3896 3.31787 18.9321 3.00635 19.0932 2.49609ZM17.584 -1.15088C16.6118 -1.15088 16.0263 -0.484863 16.0263 0.632324H19.0932C19.0932 -0.479492 18.5239 -1.15088 17.584 -1.15088ZM23.4885 4.10205C22.3767 4.10205 21.6355 3.40381 21.6355 2.3457C21.6355 1.31445 22.3767 0.702148 23.7033 0.632324L25.3039 0.551758V0.0253906C25.3039 -0.705078 24.8581 -1.10791 24.0471 -1.10791C23.3757 -1.10791 22.903 -0.823242 22.7527 -0.32373H21.8557C21.9631 -1.2583 22.8654 -1.89746 24.0578 -1.89746C25.4275 -1.89746 26.2116 -1.19922 26.2116 0.0146484V4.00537H25.3415V3.12988H25.2502C24.9709 3.75293 24.3371 4.10205 23.4885 4.10205ZM23.7517 3.30176C24.6325 3.30176 25.3039 2.71631 25.3039 1.9375V1.25L23.8054 1.31982C22.989 1.35742 22.5593 1.70654 22.5593 2.31348C22.5593 2.92578 23.0158 3.30176 23.7517 3.30176ZM30.2739 4.09668C28.9257 4.09668 28.0449 3.12451 28.0449 1.62598V0.541016C28.0449 -0.952148 28.9257 -1.92432 30.2739 -1.92432C31.1171 -1.92432 31.7402 -1.56445 31.9926 -0.925293H32.0893V-4.11572H33.0185V4H32.1215V3.1084H32.0195C31.7187 3.75293 31.1064 4.09668 30.2739 4.09668ZM30.5424 3.26416C31.4985 3.26416 32.1162 2.57666 32.1162 1.49707V0.65918C32.1162 -0.415039 31.4985 -1.10254 30.5424 -1.10254C29.581 -1.10254 28.9633 -0.415039 28.9633 0.65918V1.49707C28.9633 2.57129 29.581 3.26416 30.5424 3.26416ZM37.301 -3.25635C36.8713 -3.25635 36.5437 -3.57861 36.5437 -4.0083C36.5437 -4.43262 36.8713 -4.75488 37.301 -4.75488C37.7307 -4.75488 38.0583 -4.43262 38.0583 -4.0083C38.0583 -3.57861 37.7307 -3.25635 37.301 -3.25635ZM39.7448 4H34.9162V3.24268H36.9143V-1.07031H34.9323V-1.82764H37.8166V3.24268H39.7448V4ZM41.374 4V-1.82764H42.2495V-0.801758H42.3246C42.6362 -1.52686 43.3022 -1.93506 44.1884 -1.93506C45.456 -1.93506 46.1435 -1.17773 46.1435 0.21875V4H45.2304V0.449707C45.2304 -0.603027 44.8007 -1.09717 43.893 -1.09717C42.9316 -1.09717 42.2871 -0.425781 42.2871 0.567871V4H41.374ZM50.1467 6.18604C48.7985 6.18604 47.8962 5.59521 47.778 4.62842H48.6804C48.7985 5.11182 49.384 5.42871 50.1628 5.42871C51.1833 5.42871 51.7472 4.91309 51.7472 3.97852V3.0708H51.6506C51.3928 3.68311 50.7482 4.05371 49.8996 4.05371C48.5514 4.05371 47.6652 3.08154 47.6652 1.58838V0.541016C47.6652 -0.95752 48.5568 -1.92432 49.9211 -1.92432C50.7643 -1.92432 51.4035 -1.55371 51.6559 -0.925293H51.758V-1.82764H52.6603V4C52.6603 5.36963 51.7258 6.18604 50.1467 6.18604ZM48.5837 1.45947C48.5837 2.52832 49.2067 3.22656 50.1735 3.22656C51.1349 3.22656 51.7526 2.53369 51.7526 1.45947V0.65918C51.7526 -0.415039 51.1349 -1.10254 50.1735 -1.10254C49.2067 -1.10254 48.5837 -0.409668 48.5837 0.65918V1.45947Z" fill="#D99331"/>
<path d="M6.70947 118.468L3.01416 120.514V120.611L6.70947 122.657V123.683L2.09033 120.96V120.165L6.70947 117.442V118.468Z" fill="#A4A4A4"/>
<path d="M9.23559 124H8.38158V116.25H9.2893L12.6086 122.281H12.6838V116.25H13.5378V124H12.6409L9.31078 117.952H9.23559V124ZM16.9287 124.102C15.8169 124.102 15.0757 123.404 15.0757 122.346C15.0757 121.314 15.8169 120.702 17.1435 120.632L18.7441 120.552V120.025C18.7441 119.295 18.2983 118.892 17.4873 118.892C16.8159 118.892 16.3432 119.177 16.1929 119.676H15.2959C15.4033 118.742 16.3056 118.103 17.498 118.103C18.8677 118.103 19.6518 118.801 19.6518 120.015V124.005H18.7817V123.13H18.6904C18.4111 123.753 17.7773 124.102 16.9287 124.102ZM17.1919 123.302C18.0727 123.302 18.7441 122.716 18.7441 121.938V121.25L17.2456 121.32C16.4292 121.357 15.9995 121.707 15.9995 122.313C15.9995 122.926 16.456 123.302 17.1919 123.302ZM21.4475 118.172H22.425L24.0525 123.022H24.1223L25.739 118.172H26.7112L24.5842 124H23.5798L21.4475 118.172ZM31.0044 124.097C30.1718 124.097 29.5595 123.753 29.2588 123.108H29.1567V124H28.2597V115.884H29.1889V119.075H29.2856C29.5434 118.436 30.1611 118.076 31.0044 118.076C32.3525 118.076 33.2334 119.048 33.2334 120.541V121.626C33.2334 123.125 32.3525 124.097 31.0044 124.097ZM30.7358 123.264C31.7026 123.264 32.3149 122.571 32.3149 121.497V120.659C32.3149 119.585 31.7026 118.897 30.7358 118.897C29.7797 118.897 29.1674 119.585 29.1674 120.659V121.497C29.1674 122.577 29.7797 123.264 30.7358 123.264ZM36.6081 124.102C35.4963 124.102 34.7551 123.404 34.7551 122.346C34.7551 121.314 35.4963 120.702 36.8229 120.632L38.4235 120.552V120.025C38.4235 119.295 37.9777 118.892 37.1667 118.892C36.4953 118.892 36.0227 119.177 35.8723 119.676H34.9753C35.0827 118.742 35.9851 118.103 37.1774 118.103C38.5471 118.103 39.3312 118.801 39.3312 120.015V124.005H38.4611V123.13H38.3698C38.0905 123.753 37.4567 124.102 36.6081 124.102ZM36.8713 123.302C37.7521 123.302 38.4235 122.716 38.4235 121.938V121.25L36.925 121.32C36.1086 121.357 35.6789 121.707 35.6789 122.313C35.6789 122.926 36.1354 123.302 36.8713 123.302ZM43.5278 121.39V123.27H45.3325V124H41.4599V123.27H42.6362V118.903H41.3417V118.172H43.517V119.66H43.6352C43.85 118.581 44.5751 118.022 45.6977 118.022C46.0307 118.022 46.3476 118.07 46.541 118.151V119.177C46.2724 119.08 45.8964 119.016 45.5795 119.016C44.2905 119.016 43.5278 119.907 43.5278 121.39Z" fill="#D99331"/>
<path d="M2.95508 100.736H2.06348L5.83936 91.5137H6.73633L2.95508 100.736ZM8.65014 94.4678V93.4419L13.2693 96.165V96.96L8.65014 99.6831V98.6572L12.3401 96.6108V96.5142L8.65014 94.4678Z" fill="#7857D6"/>
<path d="M19.2783 23.7461C19.2783 22.7363 20.1377 22.0596 21.4214 22.0596C22.6353 22.0596 23.457 22.6665 23.5645 23.6387H22.6836C22.5762 23.1284 22.0874 22.8169 21.4053 22.8169C20.6641 22.8169 20.186 23.1606 20.186 23.6924C20.186 24.1382 20.4868 24.3906 21.2173 24.5518L22.0391 24.7397C23.1724 24.9976 23.688 25.4917 23.688 26.335C23.688 27.4092 22.791 28.1074 21.4106 28.1074C20.0894 28.1074 19.2139 27.4897 19.1118 26.4907H20.041C20.1753 27.0278 20.6909 27.3394 21.4429 27.3394C22.2378 27.3394 22.7427 26.9795 22.7427 26.4209C22.7427 25.959 22.458 25.7119 21.7168 25.5454L20.8521 25.3467C19.7993 25.105 19.2783 24.5732 19.2783 23.7461ZM28.0618 20.7437C27.6321 20.7437 27.3044 20.4214 27.3044 19.9917C27.3044 19.5674 27.6321 19.2451 28.0618 19.2451C28.4914 19.2451 28.8191 19.5674 28.8191 19.9917C28.8191 20.4214 28.4914 20.7437 28.0618 20.7437ZM30.5056 28H25.677V27.2427H27.675V22.9297H25.6931V22.1724H28.5774V27.2427H30.5056V28ZM32.2529 28V27.3555L35.6743 23.0264V22.9565H32.269V22.1724H36.7646V22.8545L33.397 27.146V27.2158H36.7861V28H32.2529ZM42.653 26.4961H43.5393C43.362 27.4575 42.4382 28.1074 41.2136 28.1074C39.613 28.1074 38.6838 27.146 38.6838 25.4863V24.6108C38.6838 23.0747 39.6667 22.0649 41.1491 22.0649C42.6638 22.0649 43.5554 23.0693 43.5554 24.7559V25.3252H39.5862V25.5615C39.5862 26.6304 40.2199 27.3179 41.2136 27.3179C41.9494 27.3179 42.4919 27.0063 42.653 26.4961ZM41.1438 22.8491C40.1716 22.8491 39.5862 23.5151 39.5862 24.6323H42.653C42.653 23.5205 42.0837 22.8491 41.1438 22.8491Z" fill="#B53BCE"/>
<path d="M50.4804 23.7837H44.7978V22.8975H50.4804V23.7837ZM50.4804 26.2329H44.7978V25.3467H50.4804V26.2329Z" fill="#7857D6"/>
<path d="M53.0388 23.644H52.2277L52.883 20.1475H53.9895L53.0388 23.644ZM55.112 23.644H54.301L54.9562 20.1475H56.0627L55.112 23.644ZM58.288 22.4302C58.288 21.0659 59.2978 20.0884 60.7104 20.0884C62.1337 20.0884 63.1113 20.9692 63.1113 22.2637C63.1113 23.0693 62.746 23.7139 61.5107 25.062L59.6845 27.0493V27.1406H63.2348V28H58.331V27.3447L60.9521 24.4282C61.935 23.3271 62.1713 22.9136 62.1713 22.3013C62.1713 21.4688 61.5859 20.9209 60.6835 20.9209C59.7919 20.9209 59.2011 21.5171 59.2011 22.4302V22.4624H58.288V22.4302ZM67.34 25.7549H67.2702L65.7985 28H64.7887L66.7868 25.0835L64.7726 22.1724H65.8522L67.3024 24.3799H67.3776L68.8224 22.1724H69.8483L67.8556 25.0459L69.8644 28H68.8063L67.34 25.7549ZM76.8056 28H71.4023V27.1675H73.6904V21.3237H73.6044L71.3862 22.7578V21.748L73.6957 20.2495H74.6249V27.1675H76.8056V28ZM79.278 23.644H78.467L79.1222 20.1475H80.2287L79.278 23.644ZM81.3512 23.644H80.5402L81.1955 20.1475H82.3019L81.3512 23.644Z" fill="#2DCE8D"/>
<path d="M20.5405 52V46.9673H18.9775V46.1885H20.5405V45.603C20.5405 44.4751 21.2388 43.9487 22.6729 43.9487C23.0112 43.9487 23.8223 43.9756 24.0156 44.0024V44.749C23.7632 44.7222 23.0112 44.7007 22.6836 44.7007C21.8726 44.7007 21.4429 45.0015 21.4429 45.5869V46.1885H24.0156V46.9673H21.4536V52H20.5405ZM28.0618 44.7437C27.6321 44.7437 27.3044 44.4214 27.3044 43.9917C27.3044 43.5674 27.6321 43.2451 28.0618 43.2451C28.4914 43.2451 28.8191 43.5674 28.8191 43.9917C28.8191 44.4214 28.4914 44.7437 28.0618 44.7437ZM30.5056 52H25.677V51.2427H27.675V46.9297H25.6931V46.1724H28.5774V51.2427H30.5056V52ZM36.0932 50.4961H36.9795C36.8022 51.4575 35.8784 52.1074 34.6538 52.1074C33.0532 52.1074 32.124 51.146 32.124 49.4863V48.6108C32.124 47.0747 33.1069 46.0649 34.5893 46.0649C36.104 46.0649 36.9956 47.0693 36.9956 48.7559V49.3252H33.0263V49.5615C33.0263 50.6304 33.6601 51.3179 34.6538 51.3179C35.3896 51.3179 35.9321 51.0063 36.0932 50.4961ZM34.584 46.8491C33.6118 46.8491 33.0263 47.5151 33.0263 48.6323H36.0932C36.0932 47.5205 35.5239 46.8491 34.584 46.8491ZM43.6252 52H38.7966V51.2427H40.7893V44.6416H38.8127V43.8843H41.7024V51.2427H43.6252V52ZM47.2739 52.0967C45.9257 52.0967 45.0449 51.1245 45.0449 49.626V48.541C45.0449 47.0479 45.9257 46.0757 47.2739 46.0757C48.1171 46.0757 48.7402 46.4355 48.9926 47.0747H49.0893V43.8843H50.0185V52H49.1215V51.1084H49.0195C48.7187 51.7529 48.1064 52.0967 47.2739 52.0967ZM47.5424 51.2642C48.4985 51.2642 49.1162 50.5767 49.1162 49.4971V48.6592C49.1162 47.585 48.4985 46.8975 47.5424 46.8975C46.581 46.8975 45.9633 47.585 45.9633 48.6592V49.4971C45.9633 50.5713 46.581 51.2642 47.5424 51.2642ZM107.043 46.0757C108.391 46.0757 109.272 47.0479 109.272 48.5464V49.6313C109.272 51.1245 108.391 52.0967 107.043 52.0967C106.199 52.0967 105.582 51.7368 105.329 51.0977H105.227V53.9658H104.298V46.1724H105.2V47.064H105.297C105.603 46.4194 106.21 46.0757 107.043 46.0757ZM106.779 46.9136C105.818 46.9136 105.206 47.6011 105.206 48.6753V49.5132C105.206 50.5928 105.818 51.2803 106.779 51.2803C107.741 51.2803 108.353 50.5874 108.353 49.5132V48.6753C108.353 47.6011 107.741 46.9136 106.779 46.9136ZM113.006 49.3896V51.2695H114.811V52H110.938V51.2695H112.115V46.9028H110.82V46.1724H112.995V47.6602H113.114C113.328 46.5806 114.054 46.022 115.176 46.022C115.509 46.022 115.826 46.0703 116.019 46.1509V47.1768C115.751 47.0801 115.375 47.0156 115.058 47.0156C113.769 47.0156 113.006 47.9072 113.006 49.3896ZM119.899 44.7437C119.469 44.7437 119.142 44.4214 119.142 43.9917C119.142 43.5674 119.469 43.2451 119.899 43.2451C120.329 43.2451 120.656 43.5674 120.656 43.9917C120.656 44.4214 120.329 44.7437 119.899 44.7437ZM122.343 52H117.514V51.2427H119.512V46.9297H117.53V46.1724H120.415V51.2427H122.343V52ZM129.166 47.7085V52H128.344V47.9771C128.344 47.2681 128.086 46.8975 127.598 46.8975C127.087 46.8975 126.776 47.3433 126.776 48.0684V52H125.959V47.9717C125.959 47.2681 125.702 46.8975 125.207 46.8975C124.692 46.8975 124.369 47.3433 124.369 48.0684V52H123.548V46.1724H124.364V46.9941H124.461C124.606 46.4087 125.025 46.0649 125.573 46.0649C126.12 46.0649 126.507 46.4033 126.631 46.978H126.727C126.878 46.4194 127.345 46.0649 127.931 46.0649C128.742 46.0649 129.166 46.6289 129.166 47.7085ZM132.326 52.1021C131.214 52.1021 130.473 51.4038 130.473 50.3457C130.473 49.3145 131.214 48.7021 132.541 48.6323L134.141 48.5518V48.0254C134.141 47.2949 133.695 46.8921 132.884 46.8921C132.213 46.8921 131.74 47.1768 131.59 47.6763H130.693C130.8 46.7417 131.703 46.1025 132.895 46.1025C134.265 46.1025 135.049 46.8008 135.049 48.0146V52.0054H134.179V51.1299H134.087C133.808 51.7529 133.174 52.1021 132.326 52.1021ZM132.589 51.3018C133.47 51.3018 134.141 50.7163 134.141 49.9375V49.25L132.643 49.3198C131.826 49.3574 131.397 49.7065 131.397 50.3135C131.397 50.9258 131.853 51.3018 132.589 51.3018ZM139.245 49.3896V51.2695H141.05V52H137.178V51.2695H138.354V46.9028H137.059V46.1724H139.235V47.6602H139.353C139.568 46.5806 140.293 46.022 141.415 46.022C141.748 46.022 142.065 46.0703 142.259 46.1509V47.1768C141.99 47.0801 141.614 47.0156 141.297 47.0156C140.008 47.0156 139.245 47.9072 139.245 49.3896ZM144.403 54.0732C144.269 54.0732 144.092 54.0679 144.011 54.0571V53.2568C144.081 53.2729 144.248 53.2783 144.334 53.2783C144.881 53.2783 145.182 53.0312 145.424 52.3545L145.526 52.0376L143.383 46.1724H144.377L146.009 51.0493H146.079L147.707 46.1724H148.679L146.482 52.2148C145.972 53.6489 145.483 54.0732 144.403 54.0732Z" fill="#B53BCE"/>
<path d="M57.0402 47.7837H51.3576V46.8975H57.0402V47.7837ZM57.0402 50.2329H51.3576V49.3467H57.0402V50.2329Z" fill="#7857D6"/>
<path d="M62.8535 52.7358H62.123C60.8178 52.7358 60.4042 52.3223 60.4042 50.9956V49.7925C60.4042 48.9653 59.9208 48.4819 58.664 48.6108V47.6387C59.9208 47.7676 60.4042 47.2896 60.4042 46.457V45.2539C60.4042 43.9272 60.8178 43.5137 62.123 43.5137H62.8535V44.2495H62.268C61.4623 44.2495 61.3066 44.4375 61.3066 45.3721V46.8062C61.3066 47.5581 60.7426 48.0576 59.6523 48.0845V48.1704C60.7426 48.1919 61.3066 48.6914 61.3066 49.4434V50.8774C61.3066 51.812 61.4623 52 62.268 52H62.8535V52.7358Z" fill="#E52B13"/>
<path d="M65.197 47.7461C65.197 46.7363 66.0563 46.0596 67.34 46.0596C68.5539 46.0596 69.3757 46.6665 69.4831 47.6387H68.6022C68.4948 47.1284 68.006 46.8169 67.3239 46.8169C66.5827 46.8169 66.1047 47.1606 66.1047 47.6924C66.1047 48.1382 66.4054 48.3906 67.1359 48.5518L67.9577 48.7397C69.091 48.9976 69.6066 49.4917 69.6066 50.335C69.6066 51.4092 68.7096 52.1074 67.3293 52.1074C66.008 52.1074 65.1325 51.4897 65.0304 50.4907H65.9596C66.0939 51.0278 66.6096 51.3394 67.3615 51.3394C68.1564 51.3394 68.6613 50.9795 68.6613 50.4209C68.6613 49.959 68.3766 49.7119 67.6354 49.5454L66.7707 49.3467C65.7179 49.105 65.197 48.5732 65.197 47.7461ZM76.4242 52H71.5956V51.2427H73.5883V44.6416H71.6117V43.8843H74.5014V51.2427H76.4242V52ZM80.5402 44.7437C80.1105 44.7437 79.7829 44.4214 79.7829 43.9917C79.7829 43.5674 80.1105 43.2451 80.5402 43.2451C80.9699 43.2451 81.2975 43.5674 81.2975 43.9917C81.2975 44.4214 80.9699 44.7437 80.5402 44.7437ZM82.984 52H78.1554V51.2427H80.1535V46.9297H78.1715V46.1724H81.0558V51.2427H82.984V52ZM89.4257 47.9878H88.5233C88.4105 47.3057 87.8412 46.876 87.0893 46.876C86.0741 46.876 85.5102 47.5688 85.5102 48.8203V49.3467C85.5102 50.5981 86.0741 51.2856 87.0893 51.2856C87.8412 51.2856 88.4105 50.8613 88.5233 50.1953H89.4257C89.2807 51.3823 88.3944 52.1074 87.1054 52.1074C85.5209 52.1074 84.5971 51.1353 84.5971 49.4648V48.7021C84.5971 47.0317 85.5209 46.0596 87.1054 46.0596C88.3944 46.0596 89.2753 46.79 89.4257 47.9878ZM95.1315 50.4961H96.0177C95.8405 51.4575 94.9166 52.1074 93.692 52.1074C92.0914 52.1074 91.1622 51.146 91.1622 49.4863V48.6108C91.1622 47.0747 92.1452 46.0649 93.6276 46.0649C95.1422 46.0649 96.0338 47.0693 96.0338 48.7559V49.3252H92.0646V49.5615C92.0646 50.6304 92.6984 51.3179 93.692 51.3179C94.4279 51.3179 94.9704 51.0063 95.1315 50.4961ZM93.6222 46.8491C92.65 46.8491 92.0646 47.5151 92.0646 48.6323H95.1315C95.1315 47.5205 94.5621 46.8491 93.6222 46.8491ZM100.118 52.0322C99.5858 52.0322 99.1454 51.5864 99.1454 51.0386C99.1454 50.4961 99.5858 50.0503 100.118 50.0503C100.649 50.0503 101.09 50.4961 101.09 51.0386C101.09 51.5864 100.649 52.0322 100.118 52.0322ZM152.596 52.0322C152.064 52.0322 151.624 51.5864 151.624 51.0386C151.624 50.4961 152.064 50.0503 152.596 50.0503C153.128 50.0503 153.568 50.4961 153.568 51.0386C153.568 51.5864 153.128 52.0322 152.596 52.0322Z" fill="#A4A4A4"/>
<path d="M156.766 52L158.2 43.8843H159.075L158.495 47.1714H158.554C158.866 46.4893 159.543 46.0703 160.364 46.0703C161.465 46.0703 162.212 46.8062 162.212 47.918C162.212 48.106 162.185 48.3262 162.121 48.7129L161.546 52H160.633L161.213 48.729C161.251 48.5088 161.277 48.2939 161.277 48.1382C161.277 47.4023 160.783 46.9082 160.026 46.9082C159.161 46.9082 158.468 47.5474 158.286 48.5571L157.679 52H156.766ZM168.444 50.4961C168.294 51.4199 167.279 52.1074 166.081 52.1074C164.658 52.1074 163.787 51.2534 163.787 49.8623C163.787 49.6475 163.809 49.4272 163.868 49.0352L163.981 48.3047C164.196 46.9243 165.211 46.0649 166.645 46.0649C168.036 46.0649 168.965 47.0479 168.825 48.3691C168.825 48.4336 168.777 48.8096 168.772 48.8579L168.707 49.3252H164.727C164.717 49.3628 164.684 49.6851 164.684 49.7065C164.588 50.6787 165.168 51.3179 166.129 51.3179C166.817 51.3179 167.413 50.9741 167.542 50.4961H168.444ZM166.575 46.8491C165.699 46.8491 165.055 47.3862 164.888 48.2725C164.883 48.2832 164.824 48.6162 164.819 48.6323H167.918C167.918 48.6108 167.945 48.4121 167.945 48.3799C168.052 47.4829 167.488 46.8491 166.575 46.8491ZM171.916 52.0967C170.884 52.0967 170.17 51.4307 170.159 50.4585C170.148 49.25 171.04 48.5732 172.651 48.5571L174.102 48.5464L174.155 48.251C174.188 48.0737 174.198 47.9824 174.198 47.8643C174.198 47.2681 173.731 46.8867 173.006 46.8867C172.377 46.8867 171.84 47.2036 171.69 47.6709H170.777C170.959 46.7417 171.905 46.0972 173.092 46.0972C174.306 46.0972 175.111 46.7471 175.111 47.73C175.111 47.9771 175.095 48.1221 174.999 48.6377L174.408 52H173.538L173.683 51.1621H173.629C173.339 51.7368 172.684 52.0967 171.916 52.0967ZM172.232 51.2964C173.022 51.2964 173.715 50.7217 173.855 49.9429L173.983 49.2554L172.646 49.2607C171.663 49.2661 171.11 49.6528 171.105 50.3296C171.099 50.9204 171.54 51.2964 172.232 51.2964ZM179.297 46.0757C180.173 46.0757 180.935 46.5752 181.075 47.3433H181.123L181.736 43.8843H182.649L181.215 52H180.318L180.5 50.9741H180.436C180.173 51.6509 179.49 52.0967 178.706 52.0967C177.46 52.0967 176.676 51.2749 176.676 49.9805C176.676 49.7065 176.703 49.4111 176.735 49.2393L176.891 48.2993C177.122 46.9243 178.04 46.0757 179.297 46.0757ZM179.415 46.9136C178.529 46.9136 177.97 47.4561 177.782 48.4819L177.648 49.2607C177.627 49.3843 177.611 49.6045 177.611 49.7925C177.611 50.6733 178.132 51.2319 178.959 51.2319C179.888 51.2319 180.549 50.6357 180.726 49.6528L180.882 48.7881C180.903 48.6323 180.914 48.5303 180.914 48.4443C180.914 47.5581 180.28 46.9136 179.415 46.9136ZM186.904 44.7437C186.475 44.7437 186.147 44.4214 186.147 43.9917C186.147 43.5674 186.475 43.2451 186.904 43.2451C187.334 43.2451 187.662 43.5674 187.662 43.9917C187.662 44.4214 187.334 44.7437 186.904 44.7437ZM187.941 52H183.112L183.241 51.2427H185.239L186.007 46.9297H184.031L184.154 46.1724H187.039L186.136 51.2427H188.07L187.941 52ZM189.57 52L190.596 46.1724H191.471L191.3 47.1714H191.359C191.659 46.4893 192.331 46.0649 193.163 46.0649C194.275 46.0649 195 46.8115 195 47.918C195 48.1167 194.979 48.3208 194.914 48.7183L194.34 52H193.426L194.007 48.729C194.044 48.5034 194.066 48.2886 194.066 48.1328C194.066 47.3916 193.588 46.9028 192.825 46.9028C191.966 46.9028 191.273 47.5474 191.09 48.5571L190.483 52H189.57ZM198.187 54.186C196.887 54.186 195.947 53.4824 195.947 52.5103C195.947 52.4834 195.947 52.4189 195.947 52.4136H196.85V52.4834C196.86 53.0205 197.462 53.4233 198.262 53.4233C199.224 53.4233 199.793 52.9131 199.981 51.8979L200.153 50.9204H200.088C199.825 51.5596 199.143 51.9785 198.343 51.9785C197.172 51.9785 196.318 51.0654 196.318 49.8032C196.318 49.5669 196.35 49.2231 196.388 49.0083L196.5 48.353C196.742 46.9512 197.666 46.0757 198.901 46.0757C199.874 46.0757 200.534 46.5376 200.706 47.3486H200.77L200.975 46.1724H201.888L200.873 51.9624C200.615 53.4233 199.702 54.186 198.187 54.186ZM199.036 46.9082C198.208 46.9082 197.58 47.5205 197.397 48.5088L197.306 49.019C197.274 49.207 197.247 49.481 197.247 49.6152C197.247 50.5605 197.806 51.146 198.697 51.146C199.514 51.146 200.185 50.5176 200.352 49.5938L200.47 48.9062C200.502 48.7236 200.518 48.5464 200.518 48.4229C200.518 47.5312 199.911 46.9082 199.036 46.9082ZM202.98 52.7358V52H203.565C204.371 52 204.527 51.812 204.527 50.8774V49.4434C204.527 48.6914 205.091 48.1919 206.181 48.1704V48.0845C205.091 48.0576 204.527 47.5581 204.527 46.8062V45.3721C204.527 44.4375 204.371 44.2495 203.565 44.2495H202.98V43.5137H203.71C205.015 43.5137 205.429 43.9272 205.429 45.2539V46.457C205.429 47.2896 205.912 47.7676 207.169 47.6387V48.6108C205.912 48.4819 205.429 48.9653 205.429 49.7925V50.9956C205.429 52.3223 205.015 52.7358 203.71 52.7358H202.98Z" fill="#A4A4A4" fill-opacity="0.48"/>
<path d="M23.8276 71.9878H22.9253C22.8125 71.3057 22.2432 70.876 21.4912 70.876C20.4761 70.876 19.9121 71.5688 19.9121 72.8203V73.3467C19.9121 74.5981 20.4761 75.2856 21.4912 75.2856C22.2432 75.2856 22.8125 74.8613 22.9253 74.1953H23.8276C23.6826 75.3823 22.7964 76.1074 21.5073 76.1074C19.9229 76.1074 18.999 75.1353 18.999 73.4648V72.7021C18.999 71.0317 19.9229 70.0596 21.5073 70.0596C22.7964 70.0596 23.6772 70.79 23.8276 71.9878ZM30.5056 76H25.677V75.2427H27.6697V68.6416H25.6931V67.8843H28.5828V75.2427H30.5056V76ZM33.9287 76.1021C32.8169 76.1021 32.0757 75.4038 32.0757 74.3457C32.0757 73.3145 32.8169 72.7021 34.1435 72.6323L35.7441 72.5518V72.0254C35.7441 71.2949 35.2983 70.8921 34.4873 70.8921C33.8159 70.8921 33.3432 71.1768 33.1929 71.6763H32.2959C32.4033 70.7417 33.3056 70.1025 34.498 70.1025C35.8677 70.1025 36.6518 70.8008 36.6518 72.0146V76.0054H35.7817V75.1299H35.6904C35.4111 75.7529 34.7773 76.1021 33.9287 76.1021ZM34.1919 75.3018C35.0727 75.3018 35.7441 74.7163 35.7441 73.9375V73.25L34.2456 73.3198C33.4292 73.3574 32.9995 73.7065 32.9995 74.3135C32.9995 74.9258 33.456 75.3018 34.1919 75.3018ZM38.9577 71.7461C38.9577 70.7363 39.8171 70.0596 41.1008 70.0596C42.3147 70.0596 43.1364 70.6665 43.2439 71.6387H42.363C42.2556 71.1284 41.7668 70.8169 41.0847 70.8169C40.3435 70.8169 39.8654 71.1606 39.8654 71.6924C39.8654 72.1382 40.1662 72.3906 40.8967 72.5518L41.7185 72.7397C42.8518 72.9976 43.3674 73.4917 43.3674 74.335C43.3674 75.4092 42.4704 76.1074 41.0901 76.1074C39.7688 76.1074 38.8933 75.4897 38.7912 74.4907H39.7204C39.8547 75.0278 40.3703 75.3394 41.1223 75.3394C41.9172 75.3394 42.4221 74.9795 42.4221 74.4209C42.4221 73.959 42.1374 73.7119 41.3962 73.5454L40.5315 73.3467C39.4787 73.105 38.9577 72.5732 38.9577 71.7461ZM45.5175 71.7461C45.5175 70.7363 46.3769 70.0596 47.6606 70.0596C48.8745 70.0596 49.6963 70.6665 49.8037 71.6387H48.9228C48.8154 71.1284 48.3266 70.8169 47.6445 70.8169C46.9033 70.8169 46.4253 71.1606 46.4253 71.6924C46.4253 72.1382 46.726 72.3906 47.4565 72.5518L48.2783 72.7397C49.4116 72.9976 49.9272 73.4917 49.9272 74.335C49.9272 75.4092 49.0302 76.1074 47.6499 76.1074C46.3286 76.1074 45.4531 75.4897 45.351 74.4907H46.2802C46.4145 75.0278 46.9301 75.3394 47.6821 75.3394C48.477 75.3394 48.9819 74.9795 48.9819 74.4209C48.9819 73.959 48.6972 73.7119 47.956 73.5454L47.0913 73.3467C46.0385 73.105 45.5175 72.5732 45.5175 71.7461ZM52.4748 76H51.6208V68.2495H52.5285L55.8479 74.2812H55.923V68.2495H56.7771V76H55.8801L52.55 69.9521H52.4748V76ZM60.1679 76.1021C59.0561 76.1021 58.3149 75.4038 58.3149 74.3457C58.3149 73.3145 59.0561 72.7021 60.3828 72.6323L61.9833 72.5518V72.0254C61.9833 71.2949 61.5375 70.8921 60.7265 70.8921C60.0551 70.8921 59.5825 71.1768 59.4321 71.6763H58.5351C58.6425 70.7417 59.5449 70.1025 60.7372 70.1025C62.1069 70.1025 62.8911 70.8008 62.8911 72.0146V76.0054H62.0209V75.1299H61.9296C61.6503 75.7529 61.0165 76.1021 60.1679 76.1021ZM60.4311 75.3018C61.312 75.3018 61.9833 74.7163 61.9833 73.9375V73.25L60.4848 73.3198C59.6684 73.3574 59.2387 73.7065 59.2387 74.3135C59.2387 74.9258 59.6953 75.3018 60.4311 75.3018ZM70.1276 71.7085V76H69.3058V71.9771C69.3058 71.2681 69.048 70.8975 68.5593 70.8975C68.049 70.8975 67.7375 71.3433 67.7375 72.0684V76H66.9211V71.9717C66.9211 71.2681 66.6633 70.8975 66.1691 70.8975C65.6535 70.8975 65.3312 71.3433 65.3312 72.0684V76H64.5095V70.1724H65.3259V70.9941H65.4225C65.5676 70.4087 65.9865 70.0649 66.5344 70.0649C67.0822 70.0649 67.4689 70.4033 67.5925 70.978H67.6891C67.8395 70.4194 68.3068 70.0649 68.8923 70.0649C69.7033 70.0649 70.1276 70.6289 70.1276 71.7085ZM75.4521 74.4961H76.3383C76.1611 75.4575 75.2372 76.1074 74.0126 76.1074C72.412 76.1074 71.4828 75.146 71.4828 73.4863V72.6108C71.4828 71.0747 72.4657 70.0649 73.9482 70.0649C75.4628 70.0649 76.3544 71.0693 76.3544 72.7559V73.3252H72.3852V73.5615C72.3852 74.6304 73.019 75.3179 74.0126 75.3179C74.7485 75.3179 75.2909 75.0063 75.4521 74.4961ZM73.9428 70.8491C72.9706 70.8491 72.3852 71.5151 72.3852 72.6323H75.4521C75.4521 71.5205 74.8827 70.8491 73.9428 70.8491Z" fill="#A4A4A4"/>
<path d="M83.2795 71.7837H77.5968V70.8975H83.2795V71.7837ZM83.2795 74.2329H77.5968V73.3467H83.2795V74.2329Z" fill="#7857D6"/>
<path d="M85.8378 71.644H85.0268L85.682 68.1475H86.7885L85.8378 71.644ZM87.911 71.644H87.1L87.7553 68.1475H88.8617L87.911 71.644ZM96.3668 71.7085V76H95.5451V71.9771C95.5451 71.2681 95.2872 70.8975 94.7985 70.8975C94.2882 70.8975 93.9767 71.3433 93.9767 72.0684V76H93.1603V71.9717C93.1603 71.2681 92.9025 70.8975 92.4083 70.8975C91.8927 70.8975 91.5704 71.3433 91.5704 72.0684V76H90.7487V70.1724H91.5651V70.9941H91.6618C91.8068 70.4087 92.2257 70.0649 92.7736 70.0649C93.3214 70.0649 93.7081 70.4033 93.8317 70.978H93.9284C94.0788 70.4194 94.546 70.0649 95.1315 70.0649C95.9425 70.0649 96.3668 70.6289 96.3668 71.7085ZM100.139 73.7549H100.069L98.5975 76H97.5878L99.5858 73.0835L97.5717 70.1724H98.6513L100.101 72.3799H100.177L101.621 70.1724H102.647L100.655 73.0459L102.663 76H101.605L100.139 73.7549ZM109.519 72.9868H103.836V72.1382H109.519V72.9868ZM112.646 76.1021C111.535 76.1021 110.793 75.4038 110.793 74.3457C110.793 73.3145 111.535 72.7021 112.861 72.6323L114.462 72.5518V72.0254C114.462 71.2949 114.016 70.8921 113.205 70.8921C112.534 70.8921 112.061 71.1768 111.911 71.6763H111.014C111.121 70.7417 112.023 70.1025 113.216 70.1025C114.585 70.1025 115.369 70.8008 115.369 72.0146V76.0054H114.499V75.1299H114.408C114.129 75.7529 113.495 76.1021 112.646 76.1021ZM112.91 75.3018C113.79 75.3018 114.462 74.7163 114.462 73.9375V73.25L112.963 73.3198C112.147 73.3574 111.717 73.7065 111.717 74.3135C111.717 74.9258 112.174 75.3018 112.91 75.3018ZM122.182 70.1724V76H121.306V74.9741H121.231C120.92 75.6992 120.254 76.1074 119.367 76.1074C118.1 76.1074 117.412 75.3501 117.412 73.9536V70.1724H118.325V73.7227C118.325 74.7754 118.755 75.2695 119.663 75.2695C120.624 75.2695 121.269 74.5981 121.269 73.6045V70.1724H122.182ZM125.363 68.6094H126.265V70.1885H128.629V70.9673H126.276V74.2544C126.276 74.8882 126.722 75.2319 127.544 75.2319C127.871 75.2319 128.457 75.2158 128.613 75.1997V75.9731C128.468 76 127.759 76.0269 127.479 76.0269C126.035 76.0269 125.363 75.479 125.363 74.2651V70.9673H123.811V70.1885H125.363V68.6094ZM132.917 76.1074C131.375 76.1074 130.392 75.103 130.392 73.5293V72.6484C130.392 71.0747 131.375 70.0703 132.917 70.0703C134.458 70.0703 135.441 71.0747 135.441 72.6484V73.5293C135.441 75.103 134.458 76.1074 132.917 76.1074ZM132.917 70.876C131.918 70.876 131.295 71.585 131.295 72.729V73.4434C131.295 74.5928 131.918 75.2964 132.917 75.2964C133.916 75.2964 134.539 74.5928 134.539 73.4434V72.729C134.539 71.585 133.916 70.876 132.917 70.876ZM148.845 71.7085V76H148.023V71.9771C148.023 71.2681 147.766 70.8975 147.277 70.8975C146.767 70.8975 146.455 71.3433 146.455 72.0684V76H145.639V71.9717C145.639 71.2681 145.381 70.8975 144.887 70.8975C144.371 70.8975 144.049 71.3433 144.049 72.0684V76H143.227V70.1724H144.044V70.9941H144.14C144.285 70.4087 144.704 70.0649 145.252 70.0649C145.8 70.0649 146.187 70.4033 146.31 70.978H146.407C146.557 70.4194 147.024 70.0649 147.61 70.0649C148.421 70.0649 148.845 70.6289 148.845 71.7085ZM152.005 76.1021C150.893 76.1021 150.152 75.4038 150.152 74.3457C150.152 73.3145 150.893 72.7021 152.22 72.6323L153.821 72.5518V72.0254C153.821 71.2949 153.375 70.8921 152.564 70.8921C151.892 70.8921 151.42 71.1768 151.269 71.6763H150.372C150.48 70.7417 151.382 70.1025 152.575 70.1025C153.944 70.1025 154.728 70.8008 154.728 72.0146V76.0054H153.858V75.1299H153.767C153.488 75.7529 152.854 76.1021 152.005 76.1021ZM152.268 75.3018C153.149 75.3018 153.821 74.7163 153.821 73.9375V73.25L152.322 73.3198C151.506 73.3574 151.076 73.7065 151.076 74.3135C151.076 74.9258 151.533 75.3018 152.268 75.3018Z" fill="#2DCE8D"/>
<rect x="1.25" y="8.25" width="0.5" height="79.5" stroke="#28282C" stroke-width="0.5"/>
<rect x="1.25" y="128.25" width="0.5" height="79.5" stroke="#28282C" stroke-width="0.5"/>
<rect x="155" y="40" width="1" height="16" fill="#7857D6"/>
<path d="M19.2783 143.746C19.2783 142.736 20.1377 142.06 21.4214 142.06C22.6353 142.06 23.457 142.667 23.5645 143.639H22.6836C22.5762 143.128 22.0874 142.817 21.4053 142.817C20.6641 142.817 20.186 143.161 20.186 143.692C20.186 144.138 20.4868 144.391 21.2173 144.552L22.0391 144.74C23.1724 144.998 23.688 145.492 23.688 146.335C23.688 147.409 22.791 148.107 21.4106 148.107C20.0894 148.107 19.2139 147.49 19.1118 146.491H20.041C20.1753 147.028 20.6909 147.339 21.4429 147.339C22.2378 147.339 22.7427 146.979 22.7427 146.421C22.7427 145.959 22.458 145.712 21.7168 145.545L20.8521 145.347C19.7993 145.105 19.2783 144.573 19.2783 143.746ZM28.0618 140.744C27.6321 140.744 27.3044 140.421 27.3044 139.992C27.3044 139.567 27.6321 139.245 28.0618 139.245C28.4914 139.245 28.8191 139.567 28.8191 139.992C28.8191 140.421 28.4914 140.744 28.0618 140.744ZM30.5056 148H25.677V147.243H27.675V142.93H25.6931V142.172H28.5774V147.243H30.5056V148ZM32.2529 148V147.355L35.6743 143.026V142.957H32.269V142.172H36.7646V142.854L33.397 147.146V147.216H36.7861V148H32.2529ZM42.653 146.496H43.5393C43.362 147.458 42.4382 148.107 41.2136 148.107C39.613 148.107 38.6838 147.146 38.6838 145.486V144.611C38.6838 143.075 39.6667 142.065 41.1491 142.065C42.6638 142.065 43.5554 143.069 43.5554 144.756V145.325H39.5862V145.562C39.5862 146.63 40.2199 147.318 41.2136 147.318C41.9494 147.318 42.4919 147.006 42.653 146.496ZM41.1438 142.849C40.1716 142.849 39.5862 143.515 39.5862 144.632H42.653C42.653 143.521 42.0837 142.849 41.1438 142.849Z" fill="#B53BCE"/>
<path d="M50.4804 143.784H44.7978V142.897H50.4804V143.784ZM50.4804 146.233H44.7978V145.347H50.4804V146.233Z" fill="#7857D6"/>
<path d="M53.0388 143.644H52.2277L52.883 140.147H53.9895L53.0388 143.644ZM55.112 143.644H54.301L54.9562 140.147H56.0627L55.112 143.644ZM58.288 142.43C58.288 141.066 59.2978 140.088 60.7104 140.088C62.1337 140.088 63.1113 140.969 63.1113 142.264C63.1113 143.069 62.746 143.714 61.5107 145.062L59.6845 147.049V147.141H63.2348V148H58.331V147.345L60.9521 144.428C61.935 143.327 62.1713 142.914 62.1713 142.301C62.1713 141.469 61.5859 140.921 60.6835 140.921C59.7919 140.921 59.2011 141.517 59.2011 142.43V142.462H58.288V142.43ZM67.34 145.755H67.2702L65.7985 148H64.7887L66.7868 145.083L64.7726 142.172H65.8522L67.3024 144.38H67.3776L68.8224 142.172H69.8483L67.8556 145.046L69.8644 148H68.8063L67.34 145.755ZM76.8056 148H71.4023V147.167H73.6904V141.324H73.6044L71.3862 142.758V141.748L73.6957 140.25H74.6249V147.167H76.8056V148ZM79.278 143.644H78.467L79.1222 140.147H80.2287L79.278 143.644ZM81.3512 143.644H80.5402L81.1955 140.147H82.3019L81.3512 143.644Z" fill="#2DCE8D"/>
<path d="M20.5405 172V166.967H18.9775V166.188H20.5405V165.603C20.5405 164.475 21.2388 163.949 22.6729 163.949C23.0112 163.949 23.8223 163.976 24.0156 164.002V164.749C23.7632 164.722 23.0112 164.701 22.6836 164.701C21.8726 164.701 21.4429 165.001 21.4429 165.587V166.188H24.0156V166.967H21.4536V172H20.5405ZM28.0618 164.744C27.6321 164.744 27.3044 164.421 27.3044 163.992C27.3044 163.567 27.6321 163.245 28.0618 163.245C28.4914 163.245 28.8191 163.567 28.8191 163.992C28.8191 164.421 28.4914 164.744 28.0618 164.744ZM30.5056 172H25.677V171.243H27.675V166.93H25.6931V166.172H28.5774V171.243H30.5056V172ZM36.0932 170.496H36.9795C36.8022 171.458 35.8784 172.107 34.6538 172.107C33.0532 172.107 32.124 171.146 32.124 169.486V168.611C32.124 167.075 33.1069 166.065 34.5893 166.065C36.104 166.065 36.9956 167.069 36.9956 168.756V169.325H33.0263V169.562C33.0263 170.63 33.6601 171.318 34.6538 171.318C35.3896 171.318 35.9321 171.006 36.0932 170.496ZM34.584 166.849C33.6118 166.849 33.0263 167.515 33.0263 168.632H36.0932C36.0932 167.521 35.5239 166.849 34.584 166.849ZM43.6252 172H38.7966V171.243H40.7893V164.642H38.8127V163.884H41.7024V171.243H43.6252V172ZM47.2739 172.097C45.9257 172.097 45.0449 171.125 45.0449 169.626V168.541C45.0449 167.048 45.9257 166.076 47.2739 166.076C48.1171 166.076 48.7402 166.436 48.9926 167.075H49.0893V163.884H50.0185V172H49.1215V171.108H49.0195C48.7187 171.753 48.1064 172.097 47.2739 172.097ZM47.5424 171.264C48.4985 171.264 49.1162 170.577 49.1162 169.497V168.659C49.1162 167.585 48.4985 166.897 47.5424 166.897C46.581 166.897 45.9633 167.585 45.9633 168.659V169.497C45.9633 170.571 46.581 171.264 47.5424 171.264ZM107.043 166.076C108.391 166.076 109.272 167.048 109.272 168.546V169.631C109.272 171.125 108.391 172.097 107.043 172.097C106.199 172.097 105.582 171.737 105.329 171.098H105.227V173.966H104.298V166.172H105.2V167.064H105.297C105.603 166.419 106.21 166.076 107.043 166.076ZM106.779 166.914C105.818 166.914 105.206 167.601 105.206 168.675V169.513C105.206 170.593 105.818 171.28 106.779 171.28C107.741 171.28 108.353 170.587 108.353 169.513V168.675C108.353 167.601 107.741 166.914 106.779 166.914ZM113.006 169.39V171.27H114.811V172H110.938V171.27H112.115V166.903H110.82V166.172H112.995V167.66H113.114C113.328 166.581 114.054 166.022 115.176 166.022C115.509 166.022 115.826 166.07 116.019 166.151V167.177C115.751 167.08 115.375 167.016 115.058 167.016C113.769 167.016 113.006 167.907 113.006 169.39ZM119.899 164.744C119.469 164.744 119.142 164.421 119.142 163.992C119.142 163.567 119.469 163.245 119.899 163.245C120.329 163.245 120.656 163.567 120.656 163.992C120.656 164.421 120.329 164.744 119.899 164.744ZM122.343 172H117.514V171.243H119.512V166.93H117.53V166.172H120.415V171.243H122.343V172ZM129.166 167.708V172H128.344V167.977C128.344 167.268 128.086 166.897 127.598 166.897C127.087 166.897 126.776 167.343 126.776 168.068V172H125.959V167.972C125.959 167.268 125.702 166.897 125.207 166.897C124.692 166.897 124.369 167.343 124.369 168.068V172H123.548V166.172H124.364V166.994H124.461C124.606 166.409 125.025 166.065 125.573 166.065C126.12 166.065 126.507 166.403 126.631 166.978H126.727C126.878 166.419 127.345 166.065 127.931 166.065C128.742 166.065 129.166 166.629 129.166 167.708ZM132.326 172.102C131.214 172.102 130.473 171.404 130.473 170.346C130.473 169.314 131.214 168.702 132.541 168.632L134.141 168.552V168.025C134.141 167.295 133.695 166.892 132.884 166.892C132.213 166.892 131.74 167.177 131.59 167.676H130.693C130.8 166.742 131.703 166.103 132.895 166.103C134.265 166.103 135.049 166.801 135.049 168.015V172.005H134.179V171.13H134.087C133.808 171.753 133.174 172.102 132.326 172.102ZM132.589 171.302C133.47 171.302 134.141 170.716 134.141 169.938V169.25L132.643 169.32C131.826 169.357 131.397 169.707 131.397 170.313C131.397 170.926 131.853 171.302 132.589 171.302ZM139.245 169.39V171.27H141.05V172H137.178V171.27H138.354V166.903H137.059V166.172H139.235V167.66H139.353C139.568 166.581 140.293 166.022 141.415 166.022C141.748 166.022 142.065 166.07 142.259 166.151V167.177C141.99 167.08 141.614 167.016 141.297 167.016C140.008 167.016 139.245 167.907 139.245 169.39ZM144.403 174.073C144.269 174.073 144.092 174.068 144.011 174.057V173.257C144.081 173.273 144.248 173.278 144.334 173.278C144.881 173.278 145.182 173.031 145.424 172.354L145.526 172.038L143.383 166.172H144.377L146.009 171.049H146.079L147.707 166.172H148.679L146.482 172.215C145.972 173.649 145.483 174.073 144.403 174.073ZM156.771 172L157.797 166.172H158.672L158.501 167.171H158.56C158.86 166.489 159.532 166.065 160.364 166.065C161.476 166.065 162.201 166.812 162.201 167.918C162.201 168.117 162.18 168.321 162.115 168.718L161.541 172H160.627L161.208 168.729C161.245 168.503 161.267 168.289 161.267 168.133C161.267 167.392 160.789 166.903 160.026 166.903C159.167 166.903 158.474 167.547 158.291 168.557L157.684 172H156.771ZM165.356 172.097C164.324 172.097 163.61 171.431 163.599 170.458C163.589 169.25 164.48 168.573 166.092 168.557L167.542 168.546L167.595 168.251C167.628 168.074 167.638 167.982 167.638 167.864C167.638 167.268 167.171 166.887 166.446 166.887C165.818 166.887 165.281 167.204 165.13 167.671H164.217C164.4 166.742 165.345 166.097 166.532 166.097C167.746 166.097 168.552 166.747 168.552 167.73C168.552 167.977 168.535 168.122 168.439 168.638L167.848 172H166.978L167.123 171.162H167.069C166.779 171.737 166.124 172.097 165.356 172.097ZM165.673 171.296C166.462 171.296 167.155 170.722 167.295 169.943L167.424 169.255L166.086 169.261C165.103 169.266 164.55 169.653 164.545 170.33C164.539 170.92 164.98 171.296 165.673 171.296ZM170.669 166.172H171.599L172.404 171.022H172.474L174.913 166.172H175.933L172.78 172H171.776L170.669 166.172ZM179.464 172.097C178.529 172.097 177.863 171.608 177.675 170.792H177.6L177.385 172H176.456L177.89 163.884H178.814L178.255 167.032H178.357C178.679 166.436 179.319 166.076 180.06 166.076C181.284 166.076 182.047 166.903 182.047 168.219C182.047 168.391 182.036 168.546 181.988 168.793L181.805 169.841C181.553 171.264 180.688 172.097 179.464 172.097ZM179.313 171.264C180.146 171.264 180.753 170.684 180.925 169.728L181.08 168.836C181.107 168.686 181.118 168.514 181.118 168.321C181.118 167.429 180.586 166.897 179.689 166.897C178.857 166.897 178.169 167.542 177.997 168.482L177.842 169.352C177.815 169.486 177.804 169.621 177.804 169.755C177.804 170.614 178.432 171.264 179.313 171.264ZM185.035 172.097C184.004 172.097 183.29 171.431 183.279 170.458C183.268 169.25 184.16 168.573 185.771 168.557L187.221 168.546L187.275 168.251C187.307 168.074 187.318 167.982 187.318 167.864C187.318 167.268 186.851 166.887 186.125 166.887C185.497 166.887 184.96 167.204 184.81 167.671H183.896C184.079 166.742 185.024 166.097 186.211 166.097C187.425 166.097 188.231 166.747 188.231 167.73C188.231 167.977 188.215 168.122 188.118 168.638L187.527 172H186.657L186.802 171.162H186.749C186.458 171.737 185.803 172.097 185.035 172.097ZM185.352 171.296C186.142 171.296 186.834 170.722 186.974 169.943L187.103 169.255L185.766 169.261C184.783 169.266 184.229 169.653 184.224 170.33C184.219 170.92 184.659 171.296 185.352 171.296ZM192.186 169.379L191.847 171.27H193.657L193.529 172H189.656L189.785 171.27H190.961L191.729 166.903H190.44L190.564 166.172H192.739L192.481 167.66H192.599C192.981 166.591 193.76 166.022 194.812 166.022C195.156 166.022 195.451 166.086 195.672 166.199L195.5 167.214C195.269 167.08 194.941 167.016 194.554 167.016C193.341 167.016 192.449 167.902 192.186 169.379Z" fill="#B53BCE"/>
<path d="M57.0402 167.784H51.3576V166.897H57.0402V167.784ZM57.0402 170.233H51.3576V169.347H57.0402V170.233Z" fill="#7857D6"/>
<path d="M62.8535 172.736H62.123C60.8178 172.736 60.4042 172.322 60.4042 170.996V169.792C60.4042 168.965 59.9208 168.482 58.664 168.611V167.639C59.9208 167.768 60.4042 167.29 60.4042 166.457V165.254C60.4042 163.927 60.8178 163.514 62.123 163.514H62.8535V164.25H62.268C61.4623 164.25 61.3066 164.438 61.3066 165.372V166.806C61.3066 167.558 60.7426 168.058 59.6523 168.084V168.17C60.7426 168.192 61.3066 168.691 61.3066 169.443V170.877C61.3066 171.812 61.4623 172 62.268 172H62.8535V172.736Z" fill="#2C86E0"/>
<path d="M65.197 167.746C65.197 166.736 66.0563 166.06 67.34 166.06C68.5539 166.06 69.3757 166.667 69.4831 167.639H68.6022C68.4948 167.128 68.006 166.817 67.3239 166.817C66.5827 166.817 66.1047 167.161 66.1047 167.692C66.1047 168.138 66.4054 168.391 67.1359 168.552L67.9577 168.74C69.091 168.998 69.6066 169.492 69.6066 170.335C69.6066 171.409 68.7096 172.107 67.3293 172.107C66.008 172.107 65.1325 171.49 65.0304 170.491H65.9596C66.0939 171.028 66.6096 171.339 67.3615 171.339C68.1564 171.339 68.6613 170.979 68.6613 170.421C68.6613 169.959 68.3766 169.712 67.6354 169.545L66.7707 169.347C65.7179 169.105 65.197 168.573 65.197 167.746ZM76.4242 172H71.5956V171.243H73.5883V164.642H71.6117V163.884H74.5014V171.243H76.4242V172ZM80.5402 164.744C80.1105 164.744 79.7829 164.421 79.7829 163.992C79.7829 163.567 80.1105 163.245 80.5402 163.245C80.9699 163.245 81.2975 163.567 81.2975 163.992C81.2975 164.421 80.9699 164.744 80.5402 164.744ZM82.984 172H78.1554V171.243H80.1535V166.93H78.1715V166.172H81.0558V171.243H82.984V172ZM89.4257 167.988H88.5233C88.4105 167.306 87.8412 166.876 87.0893 166.876C86.0741 166.876 85.5102 167.569 85.5102 168.82V169.347C85.5102 170.598 86.0741 171.286 87.0893 171.286C87.8412 171.286 88.4105 170.861 88.5233 170.195H89.4257C89.2807 171.382 88.3944 172.107 87.1054 172.107C85.5209 172.107 84.5971 171.135 84.5971 169.465V168.702C84.5971 167.032 85.5209 166.06 87.1054 166.06C88.3944 166.06 89.2753 166.79 89.4257 167.988ZM95.1315 170.496H96.0177C95.8405 171.458 94.9166 172.107 93.692 172.107C92.0914 172.107 91.1622 171.146 91.1622 169.486V168.611C91.1622 167.075 92.1452 166.065 93.6276 166.065C95.1422 166.065 96.0338 167.069 96.0338 168.756V169.325H92.0646V169.562C92.0646 170.63 92.6984 171.318 93.692 171.318C94.4279 171.318 94.9704 171.006 95.1315 170.496ZM93.6222 166.849C92.65 166.849 92.0646 167.515 92.0646 168.632H95.1315C95.1315 167.521 94.5621 166.849 93.6222 166.849ZM100.118 172.032C99.5858 172.032 99.1454 171.586 99.1454 171.039C99.1454 170.496 99.5858 170.05 100.118 170.05C100.649 170.05 101.09 170.496 101.09 171.039C101.09 171.586 100.649 172.032 100.118 172.032ZM152.596 172.032C152.064 172.032 151.624 171.586 151.624 171.039C151.624 170.496 152.064 170.05 152.596 170.05C153.128 170.05 153.568 170.496 153.568 171.039C153.568 171.586 153.128 172.032 152.596 172.032Z" fill="#A4A4A4"/>
<path d="M196.42 172.736V172H197.005C197.811 172 197.967 171.812 197.967 170.877V169.443C197.967 168.691 198.531 168.192 199.621 168.17V168.084C198.531 168.058 197.967 167.558 197.967 166.806V165.372C197.967 164.438 197.811 164.25 197.005 164.25H196.42V163.514H197.15C198.456 163.514 198.869 163.927 198.869 165.254V166.457C198.869 167.29 199.353 167.768 200.609 167.639V168.611C199.353 168.482 198.869 168.965 198.869 169.792V170.996C198.869 172.322 198.456 172.736 197.15 172.736H196.42Z" fill="#2C86E0"/>
<path d="M23.8276 191.988H22.9253C22.8125 191.306 22.2432 190.876 21.4912 190.876C20.4761 190.876 19.9121 191.569 19.9121 192.82V193.347C19.9121 194.598 20.4761 195.286 21.4912 195.286C22.2432 195.286 22.8125 194.861 22.9253 194.195H23.8276C23.6826 195.382 22.7964 196.107 21.5073 196.107C19.9229 196.107 18.999 195.135 18.999 193.465V192.702C18.999 191.032 19.9229 190.06 21.5073 190.06C22.7964 190.06 23.6772 190.79 23.8276 191.988ZM30.5056 196H25.677V195.243H27.6697V188.642H25.6931V187.884H28.5828V195.243H30.5056V196ZM33.9287 196.102C32.8169 196.102 32.0757 195.404 32.0757 194.346C32.0757 193.314 32.8169 192.702 34.1435 192.632L35.7441 192.552V192.025C35.7441 191.295 35.2983 190.892 34.4873 190.892C33.8159 190.892 33.3432 191.177 33.1929 191.676H32.2959C32.4033 190.742 33.3056 190.103 34.498 190.103C35.8677 190.103 36.6518 190.801 36.6518 192.015V196.005H35.7817V195.13H35.6904C35.4111 195.753 34.7773 196.102 33.9287 196.102ZM34.1919 195.302C35.0727 195.302 35.7441 194.716 35.7441 193.938V193.25L34.2456 193.32C33.4292 193.357 32.9995 193.707 32.9995 194.313C32.9995 194.926 33.456 195.302 34.1919 195.302ZM38.9577 191.746C38.9577 190.736 39.8171 190.06 41.1008 190.06C42.3147 190.06 43.1364 190.667 43.2439 191.639H42.363C42.2556 191.128 41.7668 190.817 41.0847 190.817C40.3435 190.817 39.8654 191.161 39.8654 191.692C39.8654 192.138 40.1662 192.391 40.8967 192.552L41.7185 192.74C42.8518 192.998 43.3674 193.492 43.3674 194.335C43.3674 195.409 42.4704 196.107 41.0901 196.107C39.7688 196.107 38.8933 195.49 38.7912 194.491H39.7204C39.8547 195.028 40.3703 195.339 41.1223 195.339C41.9172 195.339 42.4221 194.979 42.4221 194.421C42.4221 193.959 42.1374 193.712 41.3962 193.545L40.5315 193.347C39.4787 193.105 38.9577 192.573 38.9577 191.746ZM45.5175 191.746C45.5175 190.736 46.3769 190.06 47.6606 190.06C48.8745 190.06 49.6963 190.667 49.8037 191.639H48.9228C48.8154 191.128 48.3266 190.817 47.6445 190.817C46.9033 190.817 46.4253 191.161 46.4253 191.692C46.4253 192.138 46.726 192.391 47.4565 192.552L48.2783 192.74C49.4116 192.998 49.9272 193.492 49.9272 194.335C49.9272 195.409 49.0302 196.107 47.6499 196.107C46.3286 196.107 45.4531 195.49 45.351 194.491H46.2802C46.4145 195.028 46.9301 195.339 47.6821 195.339C48.477 195.339 48.9819 194.979 48.9819 194.421C48.9819 193.959 48.6972 193.712 47.956 193.545L47.0913 193.347C46.0385 193.105 45.5175 192.573 45.5175 191.746ZM52.4748 196H51.6208V188.25H52.5285L55.8479 194.281H55.923V188.25H56.7771V196H55.8801L52.55 189.952H52.4748V196ZM60.1679 196.102C59.0561 196.102 58.3149 195.404 58.3149 194.346C58.3149 193.314 59.0561 192.702 60.3828 192.632L61.9833 192.552V192.025C61.9833 191.295 61.5375 190.892 60.7265 190.892C60.0551 190.892 59.5825 191.177 59.4321 191.676H58.5351C58.6425 190.742 59.5449 190.103 60.7372 190.103C62.1069 190.103 62.8911 190.801 62.8911 192.015V196.005H62.0209V195.13H61.9296C61.6503 195.753 61.0165 196.102 60.1679 196.102ZM60.4311 195.302C61.312 195.302 61.9833 194.716 61.9833 193.938V193.25L60.4848 193.32C59.6684 193.357 59.2387 193.707 59.2387 194.313C59.2387 194.926 59.6953 195.302 60.4311 195.302ZM70.1276 191.708V196H69.3058V191.977C69.3058 191.268 69.048 190.897 68.5593 190.897C68.049 190.897 67.7375 191.343 67.7375 192.068V196H66.9211V191.972C66.9211 191.268 66.6633 190.897 66.1691 190.897C65.6535 190.897 65.3312 191.343 65.3312 192.068V196H64.5095V190.172H65.3259V190.994H65.4225C65.5676 190.409 65.9865 190.065 66.5344 190.065C67.0822 190.065 67.4689 190.403 67.5925 190.978H67.6891C67.8395 190.419 68.3068 190.065 68.8923 190.065C69.7033 190.065 70.1276 190.629 70.1276 191.708ZM75.4521 194.496H76.3383C76.1611 195.458 75.2372 196.107 74.0126 196.107C72.412 196.107 71.4828 195.146 71.4828 193.486V192.611C71.4828 191.075 72.4657 190.065 73.9482 190.065C75.4628 190.065 76.3544 191.069 76.3544 192.756V193.325H72.3852V193.562C72.3852 194.63 73.019 195.318 74.0126 195.318C74.7485 195.318 75.2909 195.006 75.4521 194.496ZM73.9428 190.849C72.9706 190.849 72.3852 191.515 72.3852 192.632H75.4521C75.4521 191.521 74.8827 190.849 73.9428 190.849Z" fill="#A4A4A4"/>
<path d="M83.2795 191.784H77.5968V190.897H83.2795V191.784ZM83.2795 194.233H77.5968V193.347H83.2795V194.233Z" fill="#7857D6"/>
<path d="M85.8378 191.644H85.0268L85.682 188.147H86.7885L85.8378 191.644ZM87.911 191.644H87.1L87.7553 188.147H88.8617L87.911 191.644ZM96.3668 191.708V196H95.5451V191.977C95.5451 191.268 95.2872 190.897 94.7985 190.897C94.2882 190.897 93.9767 191.343 93.9767 192.068V196H93.1603V191.972C93.1603 191.268 92.9025 190.897 92.4083 190.897C91.8927 190.897 91.5704 191.343 91.5704 192.068V196H90.7487V190.172H91.5651V190.994H91.6618C91.8068 190.409 92.2257 190.065 92.7736 190.065C93.3214 190.065 93.7081 190.403 93.8317 190.978H93.9284C94.0788 190.419 94.546 190.065 95.1315 190.065C95.9425 190.065 96.3668 190.629 96.3668 191.708ZM100.139 193.755H100.069L98.5975 196H97.5878L99.5858 193.083L97.5717 190.172H98.6513L100.101 192.38H100.177L101.621 190.172H102.647L100.655 193.046L102.663 196H101.605L100.139 193.755ZM109.519 192.987H103.836V192.138H109.519V192.987ZM112.646 196.102C111.535 196.102 110.793 195.404 110.793 194.346C110.793 193.314 111.535 192.702 112.861 192.632L114.462 192.552V192.025C114.462 191.295 114.016 190.892 113.205 190.892C112.534 190.892 112.061 191.177 111.911 191.676H111.014C111.121 190.742 112.023 190.103 113.216 190.103C114.585 190.103 115.369 190.801 115.369 192.015V196.005H114.499V195.13H114.408C114.129 195.753 113.495 196.102 112.646 196.102ZM112.91 195.302C113.79 195.302 114.462 194.716 114.462 193.938V193.25L112.963 193.32C112.147 193.357 111.717 193.707 111.717 194.313C111.717 194.926 112.174 195.302 112.91 195.302ZM122.182 190.172V196H121.306V194.974H121.231C120.92 195.699 120.254 196.107 119.367 196.107C118.1 196.107 117.412 195.35 117.412 193.954V190.172H118.325V193.723C118.325 194.775 118.755 195.27 119.663 195.27C120.624 195.27 121.269 194.598 121.269 193.604V190.172H122.182ZM125.363 188.609H126.265V190.188H128.629V190.967H126.276V194.254C126.276 194.888 126.722 195.232 127.544 195.232C127.871 195.232 128.457 195.216 128.613 195.2V195.973C128.468 196 127.759 196.027 127.479 196.027C126.035 196.027 125.363 195.479 125.363 194.265V190.967H123.811V190.188H125.363V188.609ZM132.917 196.107C131.375 196.107 130.392 195.103 130.392 193.529V192.648C130.392 191.075 131.375 190.07 132.917 190.07C134.458 190.07 135.441 191.075 135.441 192.648V193.529C135.441 195.103 134.458 196.107 132.917 196.107ZM132.917 190.876C131.918 190.876 131.295 191.585 131.295 192.729V193.443C131.295 194.593 131.918 195.296 132.917 195.296C133.916 195.296 134.539 194.593 134.539 193.443V192.729C134.539 191.585 133.916 190.876 132.917 190.876ZM148.845 191.708V196H148.023V191.977C148.023 191.268 147.766 190.897 147.277 190.897C146.767 190.897 146.455 191.343 146.455 192.068V196H145.639V191.972C145.639 191.268 145.381 190.897 144.887 190.897C144.371 190.897 144.049 191.343 144.049 192.068V196H143.227V190.172H144.044V190.994H144.14C144.285 190.409 144.704 190.065 145.252 190.065C145.8 190.065 146.187 190.403 146.31 190.978H146.407C146.557 190.419 147.024 190.065 147.61 190.065C148.421 190.065 148.845 190.629 148.845 191.708ZM152.005 196.102C150.893 196.102 150.152 195.404 150.152 194.346C150.152 193.314 150.893 192.702 152.22 192.632L153.821 192.552V192.025C153.821 191.295 153.375 190.892 152.564 190.892C151.892 190.892 151.42 191.177 151.269 191.676H150.372C150.48 190.742 151.382 190.103 152.575 190.103C153.944 190.103 154.728 190.801 154.728 192.015V196.005H153.858V195.13H153.767C153.488 195.753 152.854 196.102 152.005 196.102ZM152.268 195.302C153.149 195.302 153.821 194.716 153.821 193.938V193.25L152.322 193.32C151.506 193.357 151.076 193.707 151.076 194.313C151.076 194.926 151.533 195.302 152.268 195.302Z" fill="#2DCE8D"/>
</g>
<rect x="151.5" y="57.5" width="156" height="77" rx="2.5" fill="#161618"/>
<rect x="151.5" y="57.5" width="156" height="77" rx="2.5" stroke="#232326"/>
<path d="M174.45 66.5L169.45 64H168.55L161.55 67.5L161 68.39V72.89L161.55 73.79L166.55 76.29H167.45L174.45 72.79L175 71.89V67.39L174.45 66.5ZM166.45 75.14L161.95 72.89V69.17L166.45 71.17V75.14ZM166.95 70.34L162.29 68.23L168.95 64.89L173.62 67.23L166.95 70.34ZM173.95 71.89L167.45 75.14V71.21L173.95 68.21V71.89Z" fill="#75BEFF"/>
<path d="M186.551 75.1143C185.555 75.1143 184.844 74.689 184.52 73.9082H184.399V75H183.117V65.3833H184.425V69.1792H184.552C184.831 68.4048 185.555 67.9668 186.551 67.9668C188.145 67.9668 189.16 69.103 189.16 70.9121V72.1689C189.16 73.978 188.145 75.1143 186.551 75.1143ZM186.132 73.9844C187.199 73.9844 187.872 73.2354 187.872 72.0483V71.0137C187.872 69.8267 187.199 69.0713 186.132 69.0713C185.072 69.0713 184.393 69.8203 184.393 71.0137V72.0483C184.393 73.2354 185.072 73.9844 186.132 73.9844ZM192.486 75.1143C191.166 75.1143 190.29 74.2827 190.29 73.0322C190.29 71.8008 191.179 71.0771 192.791 70.9819L194.606 70.8867V70.2773C194.606 69.4839 194.111 69.0396 193.222 69.0396C192.486 69.0396 191.959 69.3569 191.794 69.9028H190.55C190.677 68.7603 191.762 67.9858 193.248 67.9858C194.917 67.9858 195.869 68.8237 195.869 70.2773V75.0063H194.657V73.9971H194.536C194.206 74.708 193.464 75.1143 192.486 75.1143ZM192.88 74.0542C193.87 74.0542 194.606 73.4004 194.606 72.5181V71.7881L192.962 71.8706C192.042 71.9214 191.559 72.3022 191.559 72.9751C191.559 73.6416 192.067 74.0542 192.88 74.0542ZM203.448 70.3091H202.192C202.071 69.5093 201.449 69.0332 200.605 69.0332C199.481 69.0332 198.859 69.8203 198.859 71.2422V71.8262C198.859 73.248 199.481 74.0352 200.605 74.0352C201.455 74.0352 202.065 73.5718 202.192 72.791H203.448C203.277 74.2637 202.23 75.1333 200.617 75.1333C198.694 75.1333 197.583 73.978 197.583 71.9595V71.1089C197.583 69.0903 198.694 67.9414 200.617 67.9414C202.23 67.9414 203.277 68.811 203.448 70.3091ZM206.654 71.0962L209.485 68.0811H210.996L208.349 70.8613L211.18 75H209.682L207.428 71.6929L206.558 72.5435V75H205.289V65.3833H206.558V71.0962H206.654ZM214.766 77.5962C213.103 77.5962 211.998 76.8789 211.865 75.7109H213.122C213.255 76.2505 213.909 76.5996 214.785 76.5996C215.927 76.5996 216.556 76.0283 216.556 74.9873V73.832H216.435C216.162 74.5747 215.382 75.0381 214.366 75.0381C212.773 75.0381 211.744 73.8955 211.744 72.0928V70.9121C211.744 69.103 212.779 67.9668 214.41 67.9668C215.413 67.9668 216.175 68.4238 216.454 69.1792H216.575V68.0811H217.832V74.9937C217.832 76.6187 216.683 77.5962 214.766 77.5962ZM213.039 71.9722C213.039 73.1528 213.725 73.9146 214.798 73.9146C215.864 73.9146 216.556 73.1528 216.556 71.9722V71.0137C216.556 69.8267 215.864 69.0713 214.798 69.0713C213.725 69.0713 213.039 69.833 213.039 71.0137V71.9722ZM221.97 71.915V74.0225H224.071V75H219.361V74.0225H220.732V69.0586H219.228V68.0811H221.964V69.8457H222.142C222.415 68.5444 223.221 67.9033 224.547 67.9033C224.941 67.9033 225.315 67.9541 225.544 68.0493V69.4458C225.233 69.3315 224.782 69.249 224.401 69.249C222.84 69.249 221.97 70.2202 221.97 71.915ZM229.435 75.1333C227.569 75.1333 226.382 73.9399 226.382 72.0674V71.02C226.382 69.1411 227.569 67.9541 229.435 67.9541C231.301 67.9541 232.488 69.1411 232.488 71.02V72.0674C232.488 73.9399 231.301 75.1333 229.435 75.1333ZM229.435 69.0332C228.33 69.0332 227.638 69.8267 227.638 71.1089V71.9785C227.638 73.2607 228.33 74.0542 229.435 74.0542C230.539 74.0542 231.231 73.2607 231.231 71.9785V71.1089C231.231 69.8267 230.539 69.0332 229.435 69.0332ZM239.578 68.0811V75H238.347V73.8003H238.258C237.896 74.6509 237.115 75.1333 236.081 75.1333C234.576 75.1333 233.764 74.2319 233.764 72.5688V68.0811H235.04V72.2578C235.04 73.4385 235.516 73.9971 236.538 73.9971C237.598 73.9971 238.309 73.2544 238.309 72.1372V68.0811H239.578ZM241 75V68.0811H242.231V69.2871H242.32C242.682 68.4302 243.463 67.9478 244.497 67.9478C246.002 67.9478 246.814 68.8491 246.814 70.5122V75H245.538V70.8296C245.538 69.6426 245.062 69.084 244.04 69.084C242.98 69.084 242.269 69.8267 242.269 70.9438V75H241ZM250.61 75.1143C249.017 75.1143 248.001 73.978 248.001 72.1689V70.9121C248.001 69.103 249.017 67.9668 250.61 67.9668C251.607 67.9668 252.337 68.4048 252.616 69.1792H252.737V65.3833H254.044V75H252.768V73.9082H252.648C252.318 74.689 251.607 75.1143 250.61 75.1143ZM251.029 73.9844C252.095 73.9844 252.768 73.2354 252.768 72.0483V71.0137C252.768 69.8203 252.095 69.0713 251.029 69.0713C249.963 69.0713 249.29 69.8267 249.29 71.0137V72.0483C249.29 73.2354 249.963 73.9844 251.029 73.9844ZM261.674 77.0503H255.085V75.9521H261.674V77.0503ZM268.574 70.3091H267.317C267.196 69.5093 266.574 69.0332 265.73 69.0332C264.606 69.0332 263.984 69.8203 263.984 71.2422V71.8262C263.984 73.248 264.606 74.0352 265.73 74.0352C266.58 74.0352 267.19 73.5718 267.317 72.791H268.574C268.402 74.2637 267.355 75.1333 265.742 75.1333C263.819 75.1333 262.708 73.978 262.708 71.9595V71.1089C262.708 69.0903 263.819 67.9414 265.742 67.9414C267.355 67.9414 268.402 68.811 268.574 70.3091ZM272.852 75.1333C270.985 75.1333 269.798 73.9399 269.798 72.0674V71.02C269.798 69.1411 270.985 67.9541 272.852 67.9541C274.718 67.9541 275.905 69.1411 275.905 71.02V72.0674C275.905 73.9399 274.718 75.1333 272.852 75.1333ZM272.852 69.0332C271.747 69.0332 271.055 69.8267 271.055 71.1089V71.9785C271.055 73.2607 271.747 74.0542 272.852 74.0542C273.956 74.0542 274.648 73.2607 274.648 71.9785V71.1089C274.648 69.8267 273.956 69.0332 272.852 69.0332ZM283.122 75H277.314V73.9717H279.631V66.418H277.365V65.3833H280.9V73.9717H283.122V75ZM287.324 75.1333C285.458 75.1333 284.271 73.9399 284.271 72.0674V71.02C284.271 69.1411 285.458 67.9541 287.324 67.9541C289.19 67.9541 290.377 69.1411 290.377 71.02V72.0674C290.377 73.9399 289.19 75.1333 287.324 75.1333ZM287.324 69.0332C286.219 69.0332 285.528 69.8267 285.528 71.1089V71.9785C285.528 73.2607 286.219 74.0542 287.324 74.0542C288.428 74.0542 289.12 73.2607 289.12 71.9785V71.1089C289.12 69.8267 288.428 69.0332 287.324 69.0332ZM294.332 71.915V74.0225H296.433V75H291.723V74.0225H293.094V69.0586H291.589V68.0811H294.325V69.8457H294.503C294.776 68.5444 295.582 67.9033 296.909 67.9033C297.302 67.9033 297.677 67.9541 297.905 68.0493V69.4458C297.594 69.3315 297.144 69.249 296.763 69.249C295.201 69.249 294.332 70.2202 294.332 71.915Z" fill="#A4A4A4"/>
<rect width="155" height="26" transform="translate(152 83)" fill="#1C1C1F"/>
<path d="M174.45 92.5L169.45 90H168.55L161.55 93.5L161 94.39V98.89L161.55 99.79L166.55 102.29H167.45L174.45 98.79L175 97.89V93.39L174.45 92.5ZM166.45 101.14L161.95 98.89V95.17L166.45 97.17V101.14ZM166.95 96.34L162.29 94.23L168.95 90.89L173.62 93.23L166.95 96.34ZM173.95 97.89L167.45 101.14V97.21L173.95 94.21V97.89Z" fill="#75BEFF"/>
<path d="M183.098 101V91.3833H184.33V95.2935H184.425C184.78 94.4429 185.567 93.9604 186.615 93.9604C188.119 93.9604 188.938 94.8682 188.938 96.5249V101H187.668V96.8359C187.668 95.6616 187.18 95.0967 186.158 95.0967C185.085 95.0967 184.374 95.8394 184.374 96.9565V101H183.098ZM195.012 99.1719H196.231C196.047 100.333 194.905 101.133 193.413 101.133C191.471 101.133 190.36 99.9907 190.36 98.0229V96.9692C190.36 95.1475 191.547 93.9478 193.343 93.9478C195.152 93.9478 196.25 95.1411 196.25 97.1089V97.8579H191.61V98.1689C191.61 99.3369 192.315 100.086 193.407 100.086C194.225 100.086 194.841 99.7368 195.012 99.1719ZM193.33 94.9888C192.258 94.9888 191.61 95.7251 191.61 96.9629H195C195 95.7314 194.378 94.9888 193.33 94.9888ZM199.722 101.114C198.402 101.114 197.526 100.283 197.526 99.0322C197.526 97.8008 198.415 97.0771 200.027 96.9819L201.842 96.8867V96.2773C201.842 95.4839 201.347 95.0396 200.459 95.0396C199.722 95.0396 199.195 95.3569 199.03 95.9028H197.786C197.913 94.7603 198.999 93.9858 200.484 93.9858C202.153 93.9858 203.106 94.8237 203.106 96.2773V101.006H201.893V99.9971H201.773C201.442 100.708 200.7 101.114 199.722 101.114ZM200.116 100.054C201.106 100.054 201.842 99.4004 201.842 98.5181V97.7881L200.198 97.8706C199.278 97.9214 198.796 98.3022 198.796 98.9751C198.796 99.6416 199.303 100.054 200.116 100.054ZM207.193 101.114C205.6 101.114 204.584 99.978 204.584 98.1689V96.9121C204.584 95.103 205.6 93.9668 207.193 93.9668C208.19 93.9668 208.92 94.4048 209.199 95.1792H209.32V91.3833H210.627V101H209.351V99.9082H209.231C208.901 100.689 208.19 101.114 207.193 101.114ZM207.612 99.9844C208.679 99.9844 209.351 99.2354 209.351 98.0483V97.0137C209.351 95.8203 208.679 95.0713 207.612 95.0713C206.546 95.0713 205.873 95.8267 205.873 97.0137V98.0483C205.873 99.2354 206.546 99.9844 207.612 99.9844ZM215.077 92.4624C214.512 92.4624 214.093 92.0688 214.093 91.5229C214.093 90.9707 214.512 90.5771 215.077 90.5771C215.648 90.5771 216.061 90.9707 216.061 91.5229C216.061 92.0688 215.648 92.4624 215.077 92.4624ZM217.997 101H212.189V99.9717H214.518V95.1094H212.239V94.0811H215.762V99.9717H217.997V101ZM219.292 101V94.0811H220.523V95.2871H220.612C220.974 94.4302 221.754 93.9478 222.789 93.9478C224.293 93.9478 225.106 94.8491 225.106 96.5122V101H223.83V96.8296C223.83 95.6426 223.354 95.084 222.332 95.084C221.272 95.084 220.561 95.8267 220.561 96.9438V101H219.292ZM229.238 103.596C227.575 103.596 226.471 102.879 226.337 101.711H227.594C227.727 102.25 228.381 102.6 229.257 102.6C230.4 102.6 231.028 102.028 231.028 100.987V99.832H230.908C230.635 100.575 229.854 101.038 228.838 101.038C227.245 101.038 226.217 99.8955 226.217 98.0928V96.9121C226.217 95.103 227.251 93.9668 228.883 93.9668C229.886 93.9668 230.647 94.4238 230.927 95.1792H231.047V94.0811H232.304V100.994C232.304 102.619 231.155 103.596 229.238 103.596ZM227.512 97.9722C227.512 99.1528 228.197 99.9146 229.27 99.9146C230.336 99.9146 231.028 99.1528 231.028 97.9722V97.0137C231.028 95.8267 230.336 95.0713 229.27 95.0713C228.197 95.0713 227.512 95.833 227.512 97.0137V97.9722Z" fill="white"/>
<path d="M174.45 118.5L169.45 116H168.55L161.55 119.5L161 120.39V124.89L161.55 125.79L166.55 128.29H167.45L174.45 124.79L175 123.89V119.39L174.45 118.5ZM166.45 127.14L161.95 124.89V121.17L166.45 123.17V127.14ZM166.95 122.34L162.29 120.23L168.95 116.89L173.62 119.23L166.95 122.34ZM173.95 123.89L167.45 127.14V123.21L173.95 120.21V123.89Z" fill="#75BEFF"/>
<path d="M183.416 121.992C183.416 120.754 184.45 119.941 186.037 119.941C187.548 119.941 188.538 120.665 188.652 121.865H187.434C187.319 121.3 186.78 120.951 186.018 120.951C185.206 120.951 184.679 121.332 184.679 121.903C184.679 122.398 185.015 122.671 185.821 122.849L186.824 123.071C188.189 123.375 188.805 123.959 188.805 124.975C188.805 126.289 187.719 127.127 186.031 127.127C184.399 127.127 183.346 126.397 183.231 125.178H184.514C184.653 125.769 185.225 126.105 186.062 126.105C186.932 126.105 187.491 125.718 187.491 125.115C187.491 124.607 187.18 124.347 186.342 124.156L185.307 123.921C184.044 123.636 183.416 123.001 183.416 121.992ZM196.161 120.081V127H194.93V125.8H194.841C194.479 126.651 193.699 127.133 192.664 127.133C191.159 127.133 190.347 126.232 190.347 124.569V120.081H191.623V124.258C191.623 125.438 192.099 125.997 193.121 125.997C194.181 125.997 194.892 125.254 194.892 124.137V120.081H196.161ZM201.024 127.114C200.027 127.114 199.316 126.689 198.992 125.908H198.872V127H197.589V117.383H198.897V121.179H199.024C199.303 120.405 200.027 119.967 201.024 119.967C202.617 119.967 203.632 121.103 203.632 122.912V124.169C203.632 125.978 202.617 127.114 201.024 127.114ZM200.605 125.984C201.671 125.984 202.344 125.235 202.344 124.048V123.014C202.344 121.827 201.671 121.071 200.605 121.071C199.545 121.071 198.865 121.82 198.865 123.014V124.048C198.865 125.235 199.545 125.984 200.605 125.984ZM204.807 127V117.383H206.038V121.293H206.133C206.489 120.443 207.276 119.96 208.323 119.96C209.828 119.96 210.646 120.868 210.646 122.525V127H209.377V122.836C209.377 121.662 208.888 121.097 207.866 121.097C206.793 121.097 206.082 121.839 206.082 122.957V127H204.807ZM216.721 125.172H217.94C217.756 126.333 216.613 127.133 215.121 127.133C213.179 127.133 212.068 125.991 212.068 124.023V122.969C212.068 121.147 213.255 119.948 215.051 119.948C216.861 119.948 217.959 121.141 217.959 123.109V123.858H213.319V124.169C213.319 125.337 214.023 126.086 215.115 126.086C215.934 126.086 216.55 125.737 216.721 125.172ZM215.039 120.989C213.966 120.989 213.319 121.725 213.319 122.963H216.708C216.708 121.731 216.086 120.989 215.039 120.989ZM221.431 127.114C220.11 127.114 219.234 126.283 219.234 125.032C219.234 123.801 220.123 123.077 221.735 122.982L223.551 122.887V122.277C223.551 121.484 223.056 121.04 222.167 121.04C221.431 121.04 220.904 121.357 220.739 121.903H219.495C219.622 120.76 220.707 119.986 222.192 119.986C223.862 119.986 224.814 120.824 224.814 122.277V127.006H223.602V125.997H223.481C223.151 126.708 222.408 127.114 221.431 127.114ZM221.824 126.054C222.814 126.054 223.551 125.4 223.551 124.518V123.788L221.907 123.871C220.986 123.921 220.504 124.302 220.504 124.975C220.504 125.642 221.012 126.054 221.824 126.054ZM228.902 127.114C227.308 127.114 226.293 125.978 226.293 124.169V122.912C226.293 121.103 227.308 119.967 228.902 119.967C229.898 119.967 230.628 120.405 230.908 121.179H231.028V117.383H232.336V127H231.06V125.908H230.939C230.609 126.689 229.898 127.114 228.902 127.114ZM229.321 125.984C230.387 125.984 231.06 125.235 231.06 124.048V123.014C231.06 121.82 230.387 121.071 229.321 121.071C228.254 121.071 227.581 121.827 227.581 123.014V124.048C227.581 125.235 228.254 125.984 229.321 125.984ZM236.785 118.462C236.22 118.462 235.801 118.069 235.801 117.523C235.801 116.971 236.22 116.577 236.785 116.577C237.357 116.577 237.769 116.971 237.769 117.523C237.769 118.069 237.357 118.462 236.785 118.462ZM239.705 127H233.897V125.972H236.227V121.109H233.948V120.081H237.471V125.972H239.705V127ZM241 127V120.081H242.231V121.287H242.32C242.682 120.43 243.463 119.948 244.497 119.948C246.002 119.948 246.814 120.849 246.814 122.512V127H245.538V122.83C245.538 121.643 245.062 121.084 244.04 121.084C242.98 121.084 242.269 121.827 242.269 122.944V127H241ZM250.946 129.596C249.283 129.596 248.179 128.879 248.046 127.711H249.302C249.436 128.25 250.09 128.6 250.966 128.6C252.108 128.6 252.737 128.028 252.737 126.987V125.832H252.616C252.343 126.575 251.562 127.038 250.547 127.038C248.953 127.038 247.925 125.896 247.925 124.093V122.912C247.925 121.103 248.96 119.967 250.591 119.967C251.594 119.967 252.356 120.424 252.635 121.179H252.756V120.081H254.012V126.994C254.012 128.619 252.863 129.596 250.946 129.596ZM249.22 123.972C249.22 125.153 249.905 125.915 250.978 125.915C252.045 125.915 252.737 125.153 252.737 123.972V123.014C252.737 121.827 252.045 121.071 250.978 121.071C249.905 121.071 249.22 121.833 249.22 123.014V123.972Z" fill="#A4A4A4"/>
</g>
<defs>
<linearGradient id="paint0_linear_3659_3829" x1="229" y1="0" x2="229" y2="192" gradientUnits="userSpaceOnUse">
<stop stop-color="#D9D9D9" stop-opacity="0"/>
<stop offset="0.193018" stop-color="#737373"/>
<stop offset="1" stop-color="#D9D9D9" stop-opacity="0"/>
</linearGradient>
<clipPath id="clip0_3659_3829">
<rect width="312" height="192" fill="white"/>
</clipPath>
</defs>
</svg>
