<svg width="312" height="192" viewBox="0 0 312 192" fill="none" xmlns="http://www.w3.org/2000/svg">
<mask id="mask0_3659_3434" style="mask-type:alpha" maskUnits="userSpaceOnUse" x="0" y="0" width="312" height="192">
<rect width="312" height="192" fill="url(#paint0_linear_3659_3434)"/>
</mask>
<g mask="url(#mask0_3659_3434)">
<g clip-path="url(#clip0_3659_3434)">
<path d="M0 6C0 2.68629 2.68629 0 6 0H306C309.314 0 312 2.68629 312 6V192H0V6Z" fill="white"/>
<mask id="path-4-inside-1_3659_3434" fill="white">
<path d="M0 6C0 2.68629 2.68629 0 6 0H306C309.314 0 312 2.68629 312 6V25H0V6Z"/>
</mask>
<path d="M0 6C0 2.68629 2.68629 0 6 0H306C309.314 0 312 2.68629 312 6V25H0V6Z" fill="#F9F8F9"/>
<path d="M0 0H312H0ZM312 26.5H0V23.5H312V26.5ZM0 25V0V25ZM312 0V25V0Z" fill="#DCDBDD" mask="url(#path-4-inside-1_3659_3434)"/>
<path d="M12.7822 16V9.65869H13.916V12.2954H17.001V9.65869H18.1304V16H17.001V13.249H13.916V16H12.7822ZM21.5616 16.0967C20.1334 16.0967 19.2677 15.1387 19.2677 13.6094V13.605C19.2677 12.0933 20.1422 11.1045 21.5089 11.1045C22.8756 11.1045 23.7193 12.0625 23.7193 13.5127V13.873H20.3619C20.3751 14.7344 20.8409 15.2354 21.5836 15.2354C22.1768 15.2354 22.5152 14.9365 22.6207 14.7168L22.6339 14.686H23.6754L23.6622 14.7256C23.5084 15.3452 22.8668 16.0967 21.5616 16.0967ZM21.5221 11.9614C20.9112 11.9614 20.4542 12.3745 20.3707 13.1392H22.6514C22.5767 12.3525 22.1329 11.9614 21.5221 11.9614ZM24.7336 16V11.1968H25.8278V11.9351H25.9025C26.0651 11.4209 26.5046 11.1177 27.1374 11.1177C27.3044 11.1177 27.4757 11.1396 27.5812 11.1704V12.1504C27.4054 12.1152 27.2253 12.0889 27.0363 12.0889C26.3068 12.0889 25.8278 12.5239 25.8278 13.2095V16H24.7336ZM30.3489 16.0967C28.9075 16.0967 28.0373 15.1562 28.0373 13.6006V13.5918C28.0373 12.0493 28.9206 11.1045 30.3489 11.1045C31.7815 11.1045 32.6604 12.0449 32.6604 13.5918V13.6006C32.6604 15.1562 31.7859 16.0967 30.3489 16.0967ZM30.3489 15.209C31.1091 15.209 31.5398 14.6157 31.5398 13.605V13.5962C31.5398 12.5854 31.1047 11.9878 30.3489 11.9878C29.5886 11.9878 29.1536 12.5854 29.1536 13.5962V13.605C29.1536 14.6157 29.5886 15.209 30.3489 15.209ZM36.8114 14.1367C36.4115 14.1367 36.1127 13.8335 36.1127 13.4424C36.1127 13.0513 36.4115 12.748 36.8114 12.748C37.2157 12.748 37.5102 13.0513 37.5102 13.4424C37.5102 13.8335 37.2157 14.1367 36.8114 14.1367ZM41.314 16V9.65869H42.4478V12.2954H45.5328V9.65869H46.6622V16H45.5328V13.249H42.4478V16H41.314ZM50.111 16.0967C48.6696 16.0967 47.7995 15.1562 47.7995 13.6006V13.5918C47.7995 12.0493 48.6828 11.1045 50.111 11.1045C51.5436 11.1045 52.4225 12.0449 52.4225 13.5918V13.6006C52.4225 15.1562 51.548 16.0967 50.111 16.0967ZM50.111 15.209C50.8712 15.209 51.3019 14.6157 51.3019 13.605V13.5962C51.3019 12.5854 50.8668 11.9878 50.111 11.9878C49.3507 11.9878 48.9157 12.5854 48.9157 13.5962V13.605C48.9157 14.6157 49.3507 15.209 50.111 15.209ZM53.4411 16V11.1968H54.5354V11.9438H54.6101C54.8166 11.4077 55.3 11.1045 55.9284 11.1045C56.5788 11.1045 57.0534 11.4385 57.26 11.9702H57.3347C57.5676 11.4473 58.1213 11.1045 58.7893 11.1045C59.7561 11.1045 60.3362 11.6978 60.3362 12.6953V16H59.2419V12.9634C59.2419 12.3394 58.9563 12.0229 58.3718 12.0229C57.8005 12.0229 57.4314 12.4492 57.4314 12.9985V16H56.3371V12.8843C56.3371 12.3525 56.0075 12.0229 55.4714 12.0229C54.9309 12.0229 54.5354 12.48 54.5354 13.0776V16H53.4411ZM63.6092 16.0967C62.181 16.0967 61.3152 15.1387 61.3152 13.6094V13.605C61.3152 12.0933 62.1897 11.1045 63.5564 11.1045C64.9231 11.1045 65.7669 12.0625 65.7669 13.5127V13.873H62.4095C62.4227 14.7344 62.8885 15.2354 63.6312 15.2354C64.2244 15.2354 64.5628 14.9365 64.6683 14.7168L64.6814 14.686H65.7229L65.7098 14.7256C65.556 15.3452 64.9144 16.0967 63.6092 16.0967ZM63.5696 11.9614C62.9588 11.9614 62.5018 12.3745 62.4183 13.1392H64.699C64.6243 12.3525 64.1805 11.9614 63.5696 11.9614Z" fill="#1A1523"/>
<rect x="8.5" y="38.5" width="295" height="51" rx="3.5" stroke="#DCDBDD"/>
<path d="M21.0114 70V58.3636H25.6705C26.5265 58.3636 27.2405 58.4905 27.8125 58.7443C28.3845 58.9981 28.8144 59.3504 29.1023 59.8011C29.3902 60.2481 29.5341 60.7633 29.5341 61.3466C29.5341 61.8011 29.4432 62.2008 29.2614 62.5455C29.0795 62.8864 28.8295 63.1667 28.5114 63.3864C28.197 63.6023 27.8371 63.7557 27.4318 63.8466V63.9602C27.875 63.9792 28.2898 64.1042 28.6761 64.3352C29.0663 64.5663 29.3826 64.8902 29.625 65.3068C29.8674 65.7197 29.9886 66.2121 29.9886 66.7841C29.9886 67.4015 29.8352 67.9527 29.5284 68.4375C29.2254 68.9186 28.7765 69.2992 28.1818 69.5795C27.5871 69.8598 26.8542 70 25.983 70H21.0114ZM23.4716 67.9886H25.4773C26.1629 67.9886 26.6629 67.858 26.9773 67.5966C27.2917 67.3314 27.4489 66.9792 27.4489 66.5398C27.4489 66.2178 27.3712 65.9337 27.2159 65.6875C27.0606 65.4413 26.839 65.2481 26.5511 65.108C26.267 64.9678 25.928 64.8977 25.5341 64.8977H23.4716V67.9886ZM23.4716 63.233H25.2955C25.6326 63.233 25.9318 63.1742 26.1932 63.0568C26.4583 62.9356 26.6667 62.7652 26.8182 62.5455C26.9735 62.3258 27.0511 62.0625 27.0511 61.7557C27.0511 61.3352 26.9015 60.9962 26.6023 60.7386C26.3068 60.4811 25.8864 60.3523 25.3409 60.3523H23.4716V63.233ZM37.0606 66.2841V61.2727H39.4811V70H37.1572V68.4148H37.0663C36.8693 68.9261 36.5417 69.3371 36.0834 69.6477C35.6288 69.9583 35.0739 70.1136 34.4186 70.1136C33.8352 70.1136 33.322 69.9811 32.8788 69.7159C32.4356 69.4508 32.089 69.0739 31.839 68.5852C31.5928 68.0966 31.4678 67.5114 31.464 66.8295V61.2727H33.8845V66.3977C33.8883 66.9129 34.0265 67.3201 34.2993 67.6193C34.572 67.9186 34.9375 68.0682 35.3959 68.0682C35.6875 68.0682 35.9602 68.0019 36.214 67.8693C36.4678 67.733 36.6724 67.5322 36.8277 67.267C36.9868 67.0019 37.0644 66.6742 37.0606 66.2841ZM41.3372 70V61.2727H43.7576V70H41.3372ZM42.5531 60.1477C42.1932 60.1477 41.8845 60.0284 41.6269 59.7898C41.3731 59.5473 41.2463 59.2576 41.2463 58.9205C41.2463 58.5871 41.3731 58.3011 41.6269 58.0625C41.8845 57.8201 42.1932 57.6989 42.5531 57.6989C42.9129 57.6989 43.2197 57.8201 43.4735 58.0625C43.7311 58.3011 43.8599 58.5871 43.8599 58.9205C43.8599 59.2576 43.7311 59.5473 43.4735 59.7898C43.2197 60.0284 42.9129 60.1477 42.5531 60.1477ZM48.037 58.3636V70H45.6165V58.3636H48.037ZM53.1118 70.142C52.4489 70.142 51.8486 69.9716 51.3107 69.6307C50.7766 69.286 50.3523 68.7803 50.038 68.1136C49.7273 67.4432 49.572 66.6212 49.572 65.6477C49.572 64.6477 49.733 63.8163 50.055 63.1534C50.377 62.4867 50.805 61.9886 51.3391 61.6591C51.877 61.3258 52.466 61.1591 53.1061 61.1591C53.5948 61.1591 54.002 61.2424 54.3277 61.4091C54.6573 61.572 54.9224 61.7765 55.1232 62.0227C55.3277 62.2652 55.483 62.5038 55.5891 62.7386H55.663V58.3636H58.0777V70H55.6914V68.6023H55.5891C55.4755 68.8447 55.3145 69.0852 55.1061 69.3239C54.9016 69.5587 54.6345 69.7538 54.305 69.9091C53.9792 70.0644 53.5815 70.142 53.1118 70.142ZM53.8789 68.2159C54.269 68.2159 54.5986 68.1098 54.8675 67.8977C55.1402 67.6818 55.3486 67.3807 55.4925 66.9943C55.6402 66.608 55.7141 66.1553 55.7141 65.6364C55.7141 65.1174 55.6421 64.6667 55.4982 64.2841C55.3542 63.9015 55.1459 63.6061 54.8732 63.3977C54.6005 63.1894 54.269 63.0852 53.8789 63.0852C53.4811 63.0852 53.1459 63.1932 52.8732 63.4091C52.6005 63.625 52.394 63.9242 52.2539 64.3068C52.1137 64.6894 52.0436 65.1326 52.0436 65.6364C52.0436 66.1439 52.1137 66.5928 52.2539 66.983C52.3978 67.3693 52.6042 67.6723 52.8732 67.892C53.1459 68.108 53.4811 68.2159 53.8789 68.2159ZM66.0995 70.1648C65.5427 70.1648 65.0465 70.0682 64.6109 69.875C64.1753 69.678 63.8306 69.3883 63.5768 69.0057C63.3268 68.6193 63.2018 68.1383 63.2018 67.5625C63.2018 67.0777 63.2908 66.6705 63.4689 66.3409C63.6469 66.0114 63.8893 65.7462 64.1961 65.5455C64.503 65.3447 64.8514 65.1932 65.2416 65.0909C65.6355 64.9886 66.0484 64.9167 66.4802 64.875C66.9878 64.822 67.3969 64.7727 67.7075 64.7273C68.0181 64.678 68.2435 64.6061 68.3836 64.5114C68.5238 64.4167 68.5939 64.2765 68.5939 64.0909V64.0568C68.5939 63.697 68.4802 63.4186 68.253 63.2216C68.0295 63.0246 67.7113 62.9261 67.2984 62.9261C66.8628 62.9261 66.5162 63.0227 66.2586 63.2159C66.0011 63.4053 65.8306 63.6439 65.7473 63.9318L63.5086 63.75C63.6223 63.2197 63.8458 62.7614 64.1791 62.375C64.5124 61.9848 64.9423 61.6856 65.4689 61.4773C65.9992 61.2652 66.6128 61.1591 67.3098 61.1591C67.7946 61.1591 68.2586 61.2159 68.7018 61.3295C69.1488 61.4432 69.5446 61.6193 69.8893 61.858C70.2378 62.0966 70.5124 62.4034 70.7132 62.7784C70.9139 63.1496 71.0143 63.5947 71.0143 64.1136V70H68.7189V68.7898H68.6507C68.5105 69.0625 68.323 69.303 68.0882 69.5114C67.8533 69.7159 67.5711 69.8769 67.2416 69.9943C66.912 70.108 66.5314 70.1648 66.0995 70.1648ZM66.7927 68.4943C67.1488 68.4943 67.4632 68.4242 67.7359 68.2841C68.0086 68.1402 68.2227 67.947 68.378 67.7045C68.5333 67.4621 68.6109 67.1875 68.6109 66.8807V65.9545C68.5352 66.0038 68.431 66.0492 68.2984 66.0909C68.1696 66.1288 68.0238 66.1648 67.8609 66.1989C67.698 66.2292 67.5352 66.2576 67.3723 66.2841C67.2094 66.3068 67.0617 66.3277 66.9291 66.3466C66.645 66.3883 66.3969 66.4545 66.1848 66.5455C65.9727 66.6364 65.8079 66.7595 65.6905 66.9148C65.573 67.0663 65.5143 67.2557 65.5143 67.483C65.5143 67.8125 65.6336 68.0644 65.8723 68.2386C66.1147 68.4091 66.4215 68.4943 66.7927 68.4943ZM78.1569 70L75.7819 61.2727H78.2307L79.583 67.1364H79.6626L81.0716 61.2727H83.4751L84.9069 67.1023H84.9807L86.3103 61.2727H88.7535L86.3841 70H83.8216L82.3216 64.5114H82.2137L80.7137 70H78.1569ZM93.7232 70.1705C92.8255 70.1705 92.0527 69.9886 91.405 69.625C90.7611 69.2576 90.2648 68.7386 89.9164 68.0682C89.5679 67.3939 89.3936 66.5966 89.3936 65.6761C89.3936 64.7784 89.5679 63.9905 89.9164 63.3125C90.2648 62.6345 90.7554 62.1061 91.388 61.7273C92.0243 61.3485 92.7705 61.1591 93.6266 61.1591C94.2023 61.1591 94.7383 61.2519 95.2345 61.4375C95.7345 61.6193 96.1702 61.8939 96.5414 62.2614C96.9164 62.6288 97.208 63.0909 97.4164 63.6477C97.6247 64.2008 97.7289 64.8485 97.7289 65.5909V66.2557H90.3595V64.7557H95.4505C95.4505 64.4072 95.3747 64.0985 95.2232 63.8295C95.0717 63.5606 94.8614 63.3504 94.5925 63.1989C94.3273 63.0436 94.0186 62.9659 93.6664 62.9659C93.2989 62.9659 92.9732 63.0511 92.6891 63.2216C92.4088 63.3883 92.1891 63.6136 92.03 63.8977C91.8709 64.178 91.7895 64.4905 91.7857 64.8352V66.2614C91.7857 66.6932 91.8652 67.0663 92.0243 67.3807C92.1872 67.6951 92.4164 67.9375 92.7118 68.108C93.0073 68.2784 93.3577 68.3636 93.763 68.3636C94.0319 68.3636 94.2781 68.3258 94.5016 68.25C94.7251 68.1742 94.9164 68.0606 95.0755 67.9091C95.2345 67.7576 95.3558 67.572 95.4391 67.3523L97.6777 67.5C97.5641 68.0379 97.3311 68.5076 96.9789 68.9091C96.6304 69.3068 96.1796 69.6174 95.6266 69.8409C95.0773 70.0606 94.4429 70.1705 93.7232 70.1705ZM99.2739 70V58.3636H101.694V62.7386H101.768C101.874 62.5038 102.028 62.2652 102.228 62.0227C102.433 61.7765 102.698 61.572 103.024 61.4091C103.353 61.2424 103.762 61.1591 104.251 61.1591C104.887 61.1591 105.475 61.3258 106.012 61.6591C106.55 61.9886 106.98 62.4867 107.302 63.1534C107.624 63.8163 107.785 64.6477 107.785 65.6477C107.785 66.6212 107.628 67.4432 107.314 68.1136C107.003 68.7803 106.579 69.286 106.041 69.6307C105.507 69.9716 104.908 70.142 104.245 70.142C103.776 70.142 103.376 70.0644 103.047 69.9091C102.721 69.7538 102.454 69.5587 102.245 69.3239C102.037 69.0852 101.878 68.8447 101.768 68.6023H101.66V70H99.2739ZM101.643 65.6364C101.643 66.1553 101.715 66.608 101.859 66.9943C102.003 67.3807 102.211 67.6818 102.484 67.8977C102.757 68.1098 103.088 68.2159 103.478 68.2159C103.872 68.2159 104.206 68.108 104.478 67.892C104.751 67.6723 104.958 67.3693 105.098 66.983C105.242 66.5928 105.314 66.1439 105.314 65.6364C105.314 65.1326 105.244 64.6894 105.103 64.3068C104.963 63.9242 104.757 63.625 104.484 63.4091C104.211 63.1932 103.876 63.0852 103.478 63.0852C103.084 63.0852 102.751 63.1894 102.478 63.3977C102.209 63.6061 102.003 63.9015 101.859 64.2841C101.715 64.6667 101.643 65.1174 101.643 65.6364ZM116.582 63.7614L114.366 63.8977C114.328 63.7083 114.246 63.5379 114.121 63.3864C113.996 63.2311 113.832 63.108 113.627 63.017C113.426 62.9223 113.186 62.875 112.906 62.875C112.531 62.875 112.214 62.9545 111.957 63.1136C111.699 63.2689 111.57 63.4773 111.57 63.7386C111.57 63.947 111.654 64.1231 111.82 64.267C111.987 64.411 112.273 64.5265 112.678 64.6136L114.258 64.9318C115.106 65.1061 115.739 65.3864 116.156 65.7727C116.572 66.1591 116.781 66.6667 116.781 67.2955C116.781 67.8674 116.612 68.3693 116.275 68.8011C115.941 69.233 115.483 69.5701 114.9 69.8125C114.32 70.0511 113.652 70.1705 112.894 70.1705C111.739 70.1705 110.818 69.9299 110.133 69.4489C109.451 68.964 109.051 68.3049 108.934 67.4716L111.315 67.3466C111.387 67.6989 111.561 67.9678 111.837 68.1534C112.114 68.3352 112.468 68.4261 112.9 68.4261C113.324 68.4261 113.665 68.3447 113.923 68.1818C114.184 68.0152 114.316 67.8011 114.32 67.5398C114.316 67.3201 114.224 67.1402 114.042 67C113.86 66.8561 113.58 66.7462 113.201 66.6705L111.69 66.3693C110.837 66.1989 110.203 65.9034 109.786 65.483C109.373 65.0625 109.167 64.5265 109.167 63.875C109.167 63.3144 109.318 62.8314 109.621 62.4261C109.928 62.0208 110.358 61.7083 110.911 61.4886C111.468 61.2689 112.12 61.1591 112.866 61.1591C113.968 61.1591 114.835 61.392 115.468 61.858C116.104 62.3239 116.476 62.9583 116.582 63.7614ZM118.225 70V61.2727H120.645V70H118.225ZM119.441 60.1477C119.081 60.1477 118.772 60.0284 118.514 59.7898C118.261 59.5473 118.134 59.2576 118.134 58.9205C118.134 58.5871 118.261 58.3011 118.514 58.0625C118.772 57.8201 119.081 57.6989 119.441 57.6989C119.8 57.6989 120.107 57.8201 120.361 58.0625C120.619 58.3011 120.747 58.5871 120.747 58.9205C120.747 59.2576 120.619 59.5473 120.361 59.7898C120.107 60.0284 119.8 60.1477 119.441 60.1477ZM127.146 61.2727V63.0909H121.89V61.2727H127.146ZM123.084 59.1818H125.504V67.3182C125.504 67.5417 125.538 67.7159 125.606 67.8409C125.674 67.9621 125.769 68.0473 125.89 68.0966C126.015 68.1458 126.159 68.1705 126.322 68.1705C126.436 68.1705 126.549 68.161 126.663 68.142C126.777 68.1193 126.864 68.1023 126.924 68.0909L127.305 69.892C127.184 69.9299 127.014 69.9735 126.794 70.0227C126.574 70.0758 126.307 70.108 125.993 70.1193C125.409 70.142 124.898 70.0644 124.459 69.8864C124.023 69.7083 123.684 69.4318 123.442 69.0568C123.199 68.6818 123.08 68.2083 123.084 67.6364V59.1818ZM132.526 70.1705C131.629 70.1705 130.856 69.9886 130.208 69.625C129.564 69.2576 129.068 68.7386 128.719 68.0682C128.371 67.3939 128.197 66.5966 128.197 65.6761C128.197 64.7784 128.371 63.9905 128.719 63.3125C129.068 62.6345 129.559 62.1061 130.191 61.7273C130.827 61.3485 131.574 61.1591 132.43 61.1591C133.005 61.1591 133.541 61.2519 134.038 61.4375C134.538 61.6193 134.973 61.8939 135.344 62.2614C135.719 62.6288 136.011 63.0909 136.219 63.6477C136.428 64.2008 136.532 64.8485 136.532 65.5909V66.2557H129.163V64.7557H134.254C134.254 64.4072 134.178 64.0985 134.026 63.8295C133.875 63.5606 133.665 63.3504 133.396 63.1989C133.13 63.0436 132.822 62.9659 132.469 62.9659C132.102 62.9659 131.776 63.0511 131.492 63.2216C131.212 63.3883 130.992 63.6136 130.833 63.8977C130.674 64.178 130.593 64.4905 130.589 64.8352V66.2614C130.589 66.6932 130.668 67.0663 130.827 67.3807C130.99 67.6951 131.219 67.9375 131.515 68.108C131.81 68.2784 132.161 68.3636 132.566 68.3636C132.835 68.3636 133.081 68.3258 133.305 68.25C133.528 68.1742 133.719 68.0606 133.879 67.9091C134.038 67.7576 134.159 67.572 134.242 67.3523L136.481 67.5C136.367 68.0379 136.134 68.5076 135.782 68.9091C135.434 69.3068 134.983 69.6174 134.43 69.8409C133.88 70.0606 133.246 70.1705 132.526 70.1705ZM146.297 61.2727V63.0909H141.041V61.2727H146.297ZM142.234 59.1818H144.655V67.3182C144.655 67.5417 144.689 67.7159 144.757 67.8409C144.825 67.9621 144.92 68.0473 145.041 68.0966C145.166 68.1458 145.31 68.1705 145.473 68.1705C145.586 68.1705 145.7 68.161 145.814 68.142C145.927 68.1193 146.015 68.1023 146.075 68.0909L146.456 69.892C146.335 69.9299 146.164 69.9735 145.944 70.0227C145.725 70.0758 145.458 70.108 145.143 70.1193C144.56 70.142 144.049 70.0644 143.609 69.8864C143.174 69.7083 142.835 69.4318 142.592 69.0568C142.35 68.6818 142.23 68.2083 142.234 67.6364V59.1818ZM150.401 64.9545V70H147.981V58.3636H150.333V62.8125H150.435C150.632 62.2973 150.951 61.8939 151.39 61.6023C151.829 61.3068 152.381 61.1591 153.043 61.1591C153.649 61.1591 154.178 61.2917 154.629 61.5568C155.083 61.8182 155.435 62.1951 155.685 62.6875C155.939 63.1761 156.064 63.7614 156.06 64.4432V70H153.64V64.875C153.644 64.3371 153.507 63.9186 153.231 63.6193C152.958 63.3201 152.576 63.1705 152.083 63.1705C151.754 63.1705 151.462 63.2405 151.208 63.3807C150.958 63.5208 150.761 63.7254 150.617 63.9943C150.477 64.2595 150.405 64.5795 150.401 64.9545ZM160.374 70.1648C159.817 70.1648 159.321 70.0682 158.885 69.875C158.45 69.678 158.105 69.3883 157.851 69.0057C157.601 68.6193 157.476 68.1383 157.476 67.5625C157.476 67.0777 157.565 66.6705 157.743 66.3409C157.921 66.0114 158.164 65.7462 158.471 65.5455C158.777 65.3447 159.126 65.1932 159.516 65.0909C159.91 64.9886 160.323 64.9167 160.755 64.875C161.262 64.822 161.671 64.7727 161.982 64.7273C162.292 64.678 162.518 64.6061 162.658 64.5114C162.798 64.4167 162.868 64.2765 162.868 64.0909V64.0568C162.868 63.697 162.755 63.4186 162.527 63.2216C162.304 63.0246 161.986 62.9261 161.573 62.9261C161.137 62.9261 160.791 63.0227 160.533 63.2159C160.275 63.4053 160.105 63.6439 160.022 63.9318L157.783 63.75C157.897 63.2197 158.12 62.7614 158.453 62.375C158.787 61.9848 159.217 61.6856 159.743 61.4773C160.274 61.2652 160.887 61.1591 161.584 61.1591C162.069 61.1591 162.533 61.2159 162.976 61.3295C163.423 61.4432 163.819 61.6193 164.164 61.858C164.512 62.0966 164.787 62.4034 164.988 62.7784C165.188 63.1496 165.289 63.5947 165.289 64.1136V70H162.993V68.7898H162.925C162.785 69.0625 162.597 69.303 162.363 69.5114C162.128 69.7159 161.846 69.8769 161.516 69.9943C161.186 70.108 160.806 70.1648 160.374 70.1648ZM161.067 68.4943C161.423 68.4943 161.738 68.4242 162.01 68.2841C162.283 68.1402 162.497 67.947 162.652 67.7045C162.808 67.4621 162.885 67.1875 162.885 66.8807V65.9545C162.81 66.0038 162.705 66.0492 162.573 66.0909C162.444 66.1288 162.298 66.1648 162.135 66.1989C161.972 66.2292 161.81 66.2576 161.647 66.2841C161.484 66.3068 161.336 66.3277 161.203 66.3466C160.919 66.3883 160.671 66.4545 160.459 66.5455C160.247 66.6364 160.082 66.7595 159.965 66.9148C159.847 67.0663 159.789 67.2557 159.789 67.483C159.789 67.8125 159.908 68.0644 160.147 68.2386C160.389 68.4091 160.696 68.4943 161.067 68.4943ZM171.729 61.2727V63.0909H166.473V61.2727H171.729ZM167.666 59.1818H170.087V67.3182C170.087 67.5417 170.121 67.7159 170.189 67.8409C170.257 67.9621 170.352 68.0473 170.473 68.0966C170.598 68.1458 170.742 68.1705 170.905 68.1705C171.018 68.1705 171.132 68.161 171.246 68.142C171.359 68.1193 171.446 68.1023 171.507 68.0909L171.888 69.892C171.766 69.9299 171.596 69.9735 171.376 70.0227C171.157 70.0758 170.89 70.108 170.575 70.1193C169.992 70.142 169.48 70.0644 169.041 69.8864C168.605 69.7083 168.266 69.4318 168.024 69.0568C167.782 68.6818 167.662 68.2083 167.666 67.6364V59.1818ZM180.78 73.4545C179.996 73.4545 179.324 73.3466 178.763 73.1307C178.206 72.9186 177.763 72.6288 177.434 72.2614C177.104 71.8939 176.89 71.4811 176.792 71.0227L179.03 70.7216C179.098 70.8958 179.206 71.0587 179.354 71.2102C179.502 71.3617 179.697 71.483 179.939 71.5739C180.186 71.6686 180.485 71.7159 180.837 71.7159C181.364 71.7159 181.797 71.5871 182.138 71.3295C182.483 71.0758 182.655 70.6496 182.655 70.0511V68.4545H182.553C182.447 68.697 182.288 68.9261 182.076 69.142C181.864 69.358 181.591 69.5341 181.258 69.6705C180.924 69.8068 180.526 69.875 180.064 69.875C179.409 69.875 178.812 69.7235 178.275 69.4205C177.74 69.1136 177.314 68.6458 176.996 68.017C176.682 67.3845 176.525 66.5852 176.525 65.6193C176.525 64.6307 176.686 63.8049 177.008 63.142C177.329 62.4792 177.758 61.983 178.292 61.6534C178.829 61.3239 179.418 61.1591 180.059 61.1591C180.547 61.1591 180.956 61.2424 181.286 61.4091C181.615 61.572 181.881 61.7765 182.081 62.0227C182.286 62.2652 182.443 62.5038 182.553 62.7386H182.644V61.2727H185.047V70.0852C185.047 70.8277 184.865 71.4489 184.502 71.9489C184.138 72.4489 183.634 72.8239 182.99 73.0739C182.35 73.3277 181.614 73.4545 180.78 73.4545ZM180.831 68.0568C181.222 68.0568 181.551 67.9602 181.82 67.767C182.093 67.5701 182.301 67.2898 182.445 66.9261C182.593 66.5587 182.667 66.1193 182.667 65.608C182.667 65.0966 182.595 64.6534 182.451 64.2784C182.307 63.8996 182.098 63.6061 181.826 63.3977C181.553 63.1894 181.222 63.0852 180.831 63.0852C180.434 63.0852 180.098 63.1932 179.826 63.4091C179.553 63.6212 179.347 63.9167 179.206 64.2955C179.066 64.6742 178.996 65.1117 178.996 65.608C178.996 66.1117 179.066 66.5473 179.206 66.9148C179.35 67.2784 179.557 67.5606 179.826 67.7614C180.098 67.9583 180.434 68.0568 180.831 68.0568ZM186.893 70V61.2727H189.24V62.7955H189.331C189.49 62.2538 189.757 61.8447 190.132 61.5682C190.507 61.2879 190.939 61.1477 191.428 61.1477C191.549 61.1477 191.679 61.1553 191.82 61.1705C191.96 61.1856 192.083 61.2064 192.189 61.233V63.3807C192.075 63.3466 191.918 63.3163 191.717 63.2898C191.517 63.2633 191.333 63.25 191.166 63.25C190.81 63.25 190.492 63.3277 190.212 63.483C189.935 63.6345 189.715 63.8466 189.553 64.1193C189.393 64.392 189.314 64.7064 189.314 65.0625V70H186.893ZM196.897 70.1705C196.015 70.1705 195.251 69.983 194.607 69.608C193.967 69.2292 193.473 68.7027 193.124 68.0284C192.776 67.3504 192.602 66.5644 192.602 65.6705C192.602 64.7689 192.776 63.9811 193.124 63.3068C193.473 62.6288 193.967 62.1023 194.607 61.7273C195.251 61.3485 196.015 61.1591 196.897 61.1591C197.78 61.1591 198.541 61.3485 199.181 61.7273C199.825 62.1023 200.321 62.6288 200.67 63.3068C201.018 63.9811 201.193 64.7689 201.193 65.6705C201.193 66.5644 201.018 67.3504 200.67 68.0284C200.321 68.7027 199.825 69.2292 199.181 69.608C198.541 69.983 197.78 70.1705 196.897 70.1705ZM196.909 68.2955C197.31 68.2955 197.645 68.1818 197.914 67.9545C198.183 67.7235 198.386 67.4091 198.522 67.0114C198.662 66.6136 198.732 66.161 198.732 65.6534C198.732 65.1458 198.662 64.6932 198.522 64.2955C198.386 63.8977 198.183 63.5833 197.914 63.3523C197.645 63.1212 197.31 63.0057 196.909 63.0057C196.503 63.0057 196.162 63.1212 195.886 63.3523C195.613 63.5833 195.407 63.8977 195.267 64.2955C195.13 64.6932 195.062 65.1458 195.062 65.6534C195.062 66.161 195.13 66.6136 195.267 67.0114C195.407 67.4091 195.613 67.7235 195.886 67.9545C196.162 68.1818 196.503 68.2955 196.909 68.2955ZM204.189 70L201.814 61.2727H204.263L205.616 67.1364H205.695L207.104 61.2727H209.508L210.939 67.1023H211.013L212.343 61.2727H214.786L212.417 70H209.854L208.354 64.5114H208.246L206.746 70H204.189ZM223.259 63.7614L221.043 63.8977C221.005 63.7083 220.923 63.5379 220.798 63.3864C220.673 63.2311 220.509 63.108 220.304 63.017C220.103 62.9223 219.863 62.875 219.582 62.875C219.207 62.875 218.891 62.9545 218.634 63.1136C218.376 63.2689 218.247 63.4773 218.247 63.7386C218.247 63.947 218.33 64.1231 218.497 64.267C218.664 64.411 218.95 64.5265 219.355 64.6136L220.935 64.9318C221.783 65.1061 222.416 65.3864 222.832 65.7727C223.249 66.1591 223.457 66.6667 223.457 67.2955C223.457 67.8674 223.289 68.3693 222.952 68.8011C222.618 69.233 222.16 69.5701 221.577 69.8125C220.997 70.0511 220.329 70.1705 219.571 70.1705C218.416 70.1705 217.495 69.9299 216.81 69.4489C216.128 68.964 215.728 68.3049 215.611 67.4716L217.991 67.3466C218.063 67.6989 218.238 67.9678 218.514 68.1534C218.791 68.3352 219.145 68.4261 219.577 68.4261C220.001 68.4261 220.342 68.3447 220.599 68.1818C220.861 68.0152 220.993 67.8011 220.997 67.5398C220.993 67.3201 220.901 67.1402 220.719 67C220.537 66.8561 220.257 66.7462 219.878 66.6705L218.366 66.3693C217.514 66.1989 216.88 65.9034 216.463 65.483C216.05 65.0625 215.844 64.5265 215.844 63.875C215.844 63.3144 215.995 62.8314 216.298 62.4261C216.605 62.0208 217.035 61.7083 217.588 61.4886C218.145 61.2689 218.796 61.1591 219.543 61.1591C220.645 61.1591 221.512 61.392 222.145 61.858C222.781 62.3239 223.152 62.9583 223.259 63.7614Z" fill="#1A1523"/>
<path d="M21.0114 70V58.3636H25.6705C26.5265 58.3636 27.2405 58.4905 27.8125 58.7443C28.3845 58.9981 28.8144 59.3504 29.1023 59.8011C29.3902 60.2481 29.5341 60.7633 29.5341 61.3466C29.5341 61.8011 29.4432 62.2008 29.2614 62.5455C29.0795 62.8864 28.8295 63.1667 28.5114 63.3864C28.197 63.6023 27.8371 63.7557 27.4318 63.8466V63.9602C27.875 63.9792 28.2898 64.1042 28.6761 64.3352C29.0663 64.5663 29.3826 64.8902 29.625 65.3068C29.8674 65.7197 29.9886 66.2121 29.9886 66.7841C29.9886 67.4015 29.8352 67.9527 29.5284 68.4375C29.2254 68.9186 28.7765 69.2992 28.1818 69.5795C27.5871 69.8598 26.8542 70 25.983 70H21.0114ZM23.4716 67.9886H25.4773C26.1629 67.9886 26.6629 67.858 26.9773 67.5966C27.2917 67.3314 27.4489 66.9792 27.4489 66.5398C27.4489 66.2178 27.3712 65.9337 27.2159 65.6875C27.0606 65.4413 26.839 65.2481 26.5511 65.108C26.267 64.9678 25.928 64.8977 25.5341 64.8977H23.4716V67.9886ZM23.4716 63.233H25.2955C25.6326 63.233 25.9318 63.1742 26.1932 63.0568C26.4583 62.9356 26.6667 62.7652 26.8182 62.5455C26.9735 62.3258 27.0511 62.0625 27.0511 61.7557C27.0511 61.3352 26.9015 60.9962 26.6023 60.7386C26.3068 60.4811 25.8864 60.3523 25.3409 60.3523H23.4716V63.233ZM37.0606 66.2841V61.2727H39.4811V70H37.1572V68.4148H37.0663C36.8693 68.9261 36.5417 69.3371 36.0834 69.6477C35.6288 69.9583 35.0739 70.1136 34.4186 70.1136C33.8352 70.1136 33.322 69.9811 32.8788 69.7159C32.4356 69.4508 32.089 69.0739 31.839 68.5852C31.5928 68.0966 31.4678 67.5114 31.464 66.8295V61.2727H33.8845V66.3977C33.8883 66.9129 34.0265 67.3201 34.2993 67.6193C34.572 67.9186 34.9375 68.0682 35.3959 68.0682C35.6875 68.0682 35.9602 68.0019 36.214 67.8693C36.4678 67.733 36.6724 67.5322 36.8277 67.267C36.9868 67.0019 37.0644 66.6742 37.0606 66.2841ZM41.3372 70V61.2727H43.7576V70H41.3372ZM42.5531 60.1477C42.1932 60.1477 41.8845 60.0284 41.6269 59.7898C41.3731 59.5473 41.2463 59.2576 41.2463 58.9205C41.2463 58.5871 41.3731 58.3011 41.6269 58.0625C41.8845 57.8201 42.1932 57.6989 42.5531 57.6989C42.9129 57.6989 43.2197 57.8201 43.4735 58.0625C43.7311 58.3011 43.8599 58.5871 43.8599 58.9205C43.8599 59.2576 43.7311 59.5473 43.4735 59.7898C43.2197 60.0284 42.9129 60.1477 42.5531 60.1477ZM48.037 58.3636V70H45.6165V58.3636H48.037ZM53.1118 70.142C52.4489 70.142 51.8486 69.9716 51.3107 69.6307C50.7766 69.286 50.3523 68.7803 50.038 68.1136C49.7273 67.4432 49.572 66.6212 49.572 65.6477C49.572 64.6477 49.733 63.8163 50.055 63.1534C50.377 62.4867 50.805 61.9886 51.3391 61.6591C51.877 61.3258 52.466 61.1591 53.1061 61.1591C53.5948 61.1591 54.002 61.2424 54.3277 61.4091C54.6573 61.572 54.9224 61.7765 55.1232 62.0227C55.3277 62.2652 55.483 62.5038 55.5891 62.7386H55.663V58.3636H58.0777V70H55.6914V68.6023H55.5891C55.4755 68.8447 55.3145 69.0852 55.1061 69.3239C54.9016 69.5587 54.6345 69.7538 54.305 69.9091C53.9792 70.0644 53.5815 70.142 53.1118 70.142ZM53.8789 68.2159C54.269 68.2159 54.5986 68.1098 54.8675 67.8977C55.1402 67.6818 55.3486 67.3807 55.4925 66.9943C55.6402 66.608 55.7141 66.1553 55.7141 65.6364C55.7141 65.1174 55.6421 64.6667 55.4982 64.2841C55.3542 63.9015 55.1459 63.6061 54.8732 63.3977C54.6005 63.1894 54.269 63.0852 53.8789 63.0852C53.4811 63.0852 53.1459 63.1932 52.8732 63.4091C52.6005 63.625 52.394 63.9242 52.2539 64.3068C52.1137 64.6894 52.0436 65.1326 52.0436 65.6364C52.0436 66.1439 52.1137 66.5928 52.2539 66.983C52.3978 67.3693 52.6042 67.6723 52.8732 67.892C53.1459 68.108 53.4811 68.2159 53.8789 68.2159ZM66.0995 70.1648C65.5427 70.1648 65.0465 70.0682 64.6109 69.875C64.1753 69.678 63.8306 69.3883 63.5768 69.0057C63.3268 68.6193 63.2018 68.1383 63.2018 67.5625C63.2018 67.0777 63.2908 66.6705 63.4689 66.3409C63.6469 66.0114 63.8893 65.7462 64.1961 65.5455C64.503 65.3447 64.8514 65.1932 65.2416 65.0909C65.6355 64.9886 66.0484 64.9167 66.4802 64.875C66.9878 64.822 67.3969 64.7727 67.7075 64.7273C68.0181 64.678 68.2435 64.6061 68.3836 64.5114C68.5238 64.4167 68.5939 64.2765 68.5939 64.0909V64.0568C68.5939 63.697 68.4802 63.4186 68.253 63.2216C68.0295 63.0246 67.7113 62.9261 67.2984 62.9261C66.8628 62.9261 66.5162 63.0227 66.2586 63.2159C66.0011 63.4053 65.8306 63.6439 65.7473 63.9318L63.5086 63.75C63.6223 63.2197 63.8458 62.7614 64.1791 62.375C64.5124 61.9848 64.9423 61.6856 65.4689 61.4773C65.9992 61.2652 66.6128 61.1591 67.3098 61.1591C67.7946 61.1591 68.2586 61.2159 68.7018 61.3295C69.1488 61.4432 69.5446 61.6193 69.8893 61.858C70.2378 62.0966 70.5124 62.4034 70.7132 62.7784C70.9139 63.1496 71.0143 63.5947 71.0143 64.1136V70H68.7189V68.7898H68.6507C68.5105 69.0625 68.323 69.303 68.0882 69.5114C67.8533 69.7159 67.5711 69.8769 67.2416 69.9943C66.912 70.108 66.5314 70.1648 66.0995 70.1648ZM66.7927 68.4943C67.1488 68.4943 67.4632 68.4242 67.7359 68.2841C68.0086 68.1402 68.2227 67.947 68.378 67.7045C68.5333 67.4621 68.6109 67.1875 68.6109 66.8807V65.9545C68.5352 66.0038 68.431 66.0492 68.2984 66.0909C68.1696 66.1288 68.0238 66.1648 67.8609 66.1989C67.698 66.2292 67.5352 66.2576 67.3723 66.2841C67.2094 66.3068 67.0617 66.3277 66.9291 66.3466C66.645 66.3883 66.3969 66.4545 66.1848 66.5455C65.9727 66.6364 65.8079 66.7595 65.6905 66.9148C65.573 67.0663 65.5143 67.2557 65.5143 67.483C65.5143 67.8125 65.6336 68.0644 65.8723 68.2386C66.1147 68.4091 66.4215 68.4943 66.7927 68.4943ZM78.1569 70L75.7819 61.2727H78.2307L79.583 67.1364H79.6626L81.0716 61.2727H83.4751L84.9069 67.1023H84.9807L86.3103 61.2727H88.7535L86.3841 70H83.8216L82.3216 64.5114H82.2137L80.7137 70H78.1569ZM93.7232 70.1705C92.8255 70.1705 92.0527 69.9886 91.405 69.625C90.7611 69.2576 90.2648 68.7386 89.9164 68.0682C89.5679 67.3939 89.3936 66.5966 89.3936 65.6761C89.3936 64.7784 89.5679 63.9905 89.9164 63.3125C90.2648 62.6345 90.7554 62.1061 91.388 61.7273C92.0243 61.3485 92.7705 61.1591 93.6266 61.1591C94.2023 61.1591 94.7383 61.2519 95.2345 61.4375C95.7345 61.6193 96.1702 61.8939 96.5414 62.2614C96.9164 62.6288 97.208 63.0909 97.4164 63.6477C97.6247 64.2008 97.7289 64.8485 97.7289 65.5909V66.2557H90.3595V64.7557H95.4505C95.4505 64.4072 95.3747 64.0985 95.2232 63.8295C95.0717 63.5606 94.8614 63.3504 94.5925 63.1989C94.3273 63.0436 94.0186 62.9659 93.6664 62.9659C93.2989 62.9659 92.9732 63.0511 92.6891 63.2216C92.4088 63.3883 92.1891 63.6136 92.03 63.8977C91.8709 64.178 91.7895 64.4905 91.7857 64.8352V66.2614C91.7857 66.6932 91.8652 67.0663 92.0243 67.3807C92.1872 67.6951 92.4164 67.9375 92.7118 68.108C93.0073 68.2784 93.3577 68.3636 93.763 68.3636C94.0319 68.3636 94.2781 68.3258 94.5016 68.25C94.7251 68.1742 94.9164 68.0606 95.0755 67.9091C95.2345 67.7576 95.3558 67.572 95.4391 67.3523L97.6777 67.5C97.5641 68.0379 97.3311 68.5076 96.9789 68.9091C96.6304 69.3068 96.1796 69.6174 95.6266 69.8409C95.0773 70.0606 94.4429 70.1705 93.7232 70.1705ZM99.2739 70V58.3636H101.694V62.7386H101.768C101.874 62.5038 102.028 62.2652 102.228 62.0227C102.433 61.7765 102.698 61.572 103.024 61.4091C103.353 61.2424 103.762 61.1591 104.251 61.1591C104.887 61.1591 105.475 61.3258 106.012 61.6591C106.55 61.9886 106.98 62.4867 107.302 63.1534C107.624 63.8163 107.785 64.6477 107.785 65.6477C107.785 66.6212 107.628 67.4432 107.314 68.1136C107.003 68.7803 106.579 69.286 106.041 69.6307C105.507 69.9716 104.908 70.142 104.245 70.142C103.776 70.142 103.376 70.0644 103.047 69.9091C102.721 69.7538 102.454 69.5587 102.245 69.3239C102.037 69.0852 101.878 68.8447 101.768 68.6023H101.66V70H99.2739ZM101.643 65.6364C101.643 66.1553 101.715 66.608 101.859 66.9943C102.003 67.3807 102.211 67.6818 102.484 67.8977C102.757 68.1098 103.088 68.2159 103.478 68.2159C103.872 68.2159 104.206 68.108 104.478 67.892C104.751 67.6723 104.958 67.3693 105.098 66.983C105.242 66.5928 105.314 66.1439 105.314 65.6364C105.314 65.1326 105.244 64.6894 105.103 64.3068C104.963 63.9242 104.757 63.625 104.484 63.4091C104.211 63.1932 103.876 63.0852 103.478 63.0852C103.084 63.0852 102.751 63.1894 102.478 63.3977C102.209 63.6061 102.003 63.9015 101.859 64.2841C101.715 64.6667 101.643 65.1174 101.643 65.6364ZM116.582 63.7614L114.366 63.8977C114.328 63.7083 114.246 63.5379 114.121 63.3864C113.996 63.2311 113.832 63.108 113.627 63.017C113.426 62.9223 113.186 62.875 112.906 62.875C112.531 62.875 112.214 62.9545 111.957 63.1136C111.699 63.2689 111.57 63.4773 111.57 63.7386C111.57 63.947 111.654 64.1231 111.82 64.267C111.987 64.411 112.273 64.5265 112.678 64.6136L114.258 64.9318C115.106 65.1061 115.739 65.3864 116.156 65.7727C116.572 66.1591 116.781 66.6667 116.781 67.2955C116.781 67.8674 116.612 68.3693 116.275 68.8011C115.941 69.233 115.483 69.5701 114.9 69.8125C114.32 70.0511 113.652 70.1705 112.894 70.1705C111.739 70.1705 110.818 69.9299 110.133 69.4489C109.451 68.964 109.051 68.3049 108.934 67.4716L111.315 67.3466C111.387 67.6989 111.561 67.9678 111.837 68.1534C112.114 68.3352 112.468 68.4261 112.9 68.4261C113.324 68.4261 113.665 68.3447 113.923 68.1818C114.184 68.0152 114.316 67.8011 114.32 67.5398C114.316 67.3201 114.224 67.1402 114.042 67C113.86 66.8561 113.58 66.7462 113.201 66.6705L111.69 66.3693C110.837 66.1989 110.203 65.9034 109.786 65.483C109.373 65.0625 109.167 64.5265 109.167 63.875C109.167 63.3144 109.318 62.8314 109.621 62.4261C109.928 62.0208 110.358 61.7083 110.911 61.4886C111.468 61.2689 112.12 61.1591 112.866 61.1591C113.968 61.1591 114.835 61.392 115.468 61.858C116.104 62.3239 116.476 62.9583 116.582 63.7614ZM118.225 70V61.2727H120.645V70H118.225ZM119.441 60.1477C119.081 60.1477 118.772 60.0284 118.514 59.7898C118.261 59.5473 118.134 59.2576 118.134 58.9205C118.134 58.5871 118.261 58.3011 118.514 58.0625C118.772 57.8201 119.081 57.6989 119.441 57.6989C119.8 57.6989 120.107 57.8201 120.361 58.0625C120.619 58.3011 120.747 58.5871 120.747 58.9205C120.747 59.2576 120.619 59.5473 120.361 59.7898C120.107 60.0284 119.8 60.1477 119.441 60.1477ZM127.146 61.2727V63.0909H121.89V61.2727H127.146ZM123.084 59.1818H125.504V67.3182C125.504 67.5417 125.538 67.7159 125.606 67.8409C125.674 67.9621 125.769 68.0473 125.89 68.0966C126.015 68.1458 126.159 68.1705 126.322 68.1705C126.436 68.1705 126.549 68.161 126.663 68.142C126.777 68.1193 126.864 68.1023 126.924 68.0909L127.305 69.892C127.184 69.9299 127.014 69.9735 126.794 70.0227C126.574 70.0758 126.307 70.108 125.993 70.1193C125.409 70.142 124.898 70.0644 124.459 69.8864C124.023 69.7083 123.684 69.4318 123.442 69.0568C123.199 68.6818 123.08 68.2083 123.084 67.6364V59.1818ZM132.526 70.1705C131.629 70.1705 130.856 69.9886 130.208 69.625C129.564 69.2576 129.068 68.7386 128.719 68.0682C128.371 67.3939 128.197 66.5966 128.197 65.6761C128.197 64.7784 128.371 63.9905 128.719 63.3125C129.068 62.6345 129.559 62.1061 130.191 61.7273C130.827 61.3485 131.574 61.1591 132.43 61.1591C133.005 61.1591 133.541 61.2519 134.038 61.4375C134.538 61.6193 134.973 61.8939 135.344 62.2614C135.719 62.6288 136.011 63.0909 136.219 63.6477C136.428 64.2008 136.532 64.8485 136.532 65.5909V66.2557H129.163V64.7557H134.254C134.254 64.4072 134.178 64.0985 134.026 63.8295C133.875 63.5606 133.665 63.3504 133.396 63.1989C133.13 63.0436 132.822 62.9659 132.469 62.9659C132.102 62.9659 131.776 63.0511 131.492 63.2216C131.212 63.3883 130.992 63.6136 130.833 63.8977C130.674 64.178 130.593 64.4905 130.589 64.8352V66.2614C130.589 66.6932 130.668 67.0663 130.827 67.3807C130.99 67.6951 131.219 67.9375 131.515 68.108C131.81 68.2784 132.161 68.3636 132.566 68.3636C132.835 68.3636 133.081 68.3258 133.305 68.25C133.528 68.1742 133.719 68.0606 133.879 67.9091C134.038 67.7576 134.159 67.572 134.242 67.3523L136.481 67.5C136.367 68.0379 136.134 68.5076 135.782 68.9091C135.434 69.3068 134.983 69.6174 134.43 69.8409C133.88 70.0606 133.246 70.1705 132.526 70.1705ZM146.297 61.2727V63.0909H141.041V61.2727H146.297ZM142.234 59.1818H144.655V67.3182C144.655 67.5417 144.689 67.7159 144.757 67.8409C144.825 67.9621 144.92 68.0473 145.041 68.0966C145.166 68.1458 145.31 68.1705 145.473 68.1705C145.586 68.1705 145.7 68.161 145.814 68.142C145.927 68.1193 146.015 68.1023 146.075 68.0909L146.456 69.892C146.335 69.9299 146.164 69.9735 145.944 70.0227C145.725 70.0758 145.458 70.108 145.143 70.1193C144.56 70.142 144.049 70.0644 143.609 69.8864C143.174 69.7083 142.835 69.4318 142.592 69.0568C142.35 68.6818 142.23 68.2083 142.234 67.6364V59.1818ZM150.401 64.9545V70H147.981V58.3636H150.333V62.8125H150.435C150.632 62.2973 150.951 61.8939 151.39 61.6023C151.829 61.3068 152.381 61.1591 153.043 61.1591C153.649 61.1591 154.178 61.2917 154.629 61.5568C155.083 61.8182 155.435 62.1951 155.685 62.6875C155.939 63.1761 156.064 63.7614 156.06 64.4432V70H153.64V64.875C153.644 64.3371 153.507 63.9186 153.231 63.6193C152.958 63.3201 152.576 63.1705 152.083 63.1705C151.754 63.1705 151.462 63.2405 151.208 63.3807C150.958 63.5208 150.761 63.7254 150.617 63.9943C150.477 64.2595 150.405 64.5795 150.401 64.9545ZM160.374 70.1648C159.817 70.1648 159.321 70.0682 158.885 69.875C158.45 69.678 158.105 69.3883 157.851 69.0057C157.601 68.6193 157.476 68.1383 157.476 67.5625C157.476 67.0777 157.565 66.6705 157.743 66.3409C157.921 66.0114 158.164 65.7462 158.471 65.5455C158.777 65.3447 159.126 65.1932 159.516 65.0909C159.91 64.9886 160.323 64.9167 160.755 64.875C161.262 64.822 161.671 64.7727 161.982 64.7273C162.292 64.678 162.518 64.6061 162.658 64.5114C162.798 64.4167 162.868 64.2765 162.868 64.0909V64.0568C162.868 63.697 162.755 63.4186 162.527 63.2216C162.304 63.0246 161.986 62.9261 161.573 62.9261C161.137 62.9261 160.791 63.0227 160.533 63.2159C160.275 63.4053 160.105 63.6439 160.022 63.9318L157.783 63.75C157.897 63.2197 158.12 62.7614 158.453 62.375C158.787 61.9848 159.217 61.6856 159.743 61.4773C160.274 61.2652 160.887 61.1591 161.584 61.1591C162.069 61.1591 162.533 61.2159 162.976 61.3295C163.423 61.4432 163.819 61.6193 164.164 61.858C164.512 62.0966 164.787 62.4034 164.988 62.7784C165.188 63.1496 165.289 63.5947 165.289 64.1136V70H162.993V68.7898H162.925C162.785 69.0625 162.597 69.303 162.363 69.5114C162.128 69.7159 161.846 69.8769 161.516 69.9943C161.186 70.108 160.806 70.1648 160.374 70.1648ZM161.067 68.4943C161.423 68.4943 161.738 68.4242 162.01 68.2841C162.283 68.1402 162.497 67.947 162.652 67.7045C162.808 67.4621 162.885 67.1875 162.885 66.8807V65.9545C162.81 66.0038 162.705 66.0492 162.573 66.0909C162.444 66.1288 162.298 66.1648 162.135 66.1989C161.972 66.2292 161.81 66.2576 161.647 66.2841C161.484 66.3068 161.336 66.3277 161.203 66.3466C160.919 66.3883 160.671 66.4545 160.459 66.5455C160.247 66.6364 160.082 66.7595 159.965 66.9148C159.847 67.0663 159.789 67.2557 159.789 67.483C159.789 67.8125 159.908 68.0644 160.147 68.2386C160.389 68.4091 160.696 68.4943 161.067 68.4943ZM171.729 61.2727V63.0909H166.473V61.2727H171.729ZM167.666 59.1818H170.087V67.3182C170.087 67.5417 170.121 67.7159 170.189 67.8409C170.257 67.9621 170.352 68.0473 170.473 68.0966C170.598 68.1458 170.742 68.1705 170.905 68.1705C171.018 68.1705 171.132 68.161 171.246 68.142C171.359 68.1193 171.446 68.1023 171.507 68.0909L171.888 69.892C171.766 69.9299 171.596 69.9735 171.376 70.0227C171.157 70.0758 170.89 70.108 170.575 70.1193C169.992 70.142 169.48 70.0644 169.041 69.8864C168.605 69.7083 168.266 69.4318 168.024 69.0568C167.782 68.6818 167.662 68.2083 167.666 67.6364V59.1818ZM180.78 73.4545C179.996 73.4545 179.324 73.3466 178.763 73.1307C178.206 72.9186 177.763 72.6288 177.434 72.2614C177.104 71.8939 176.89 71.4811 176.792 71.0227L179.03 70.7216C179.098 70.8958 179.206 71.0587 179.354 71.2102C179.502 71.3617 179.697 71.483 179.939 71.5739C180.186 71.6686 180.485 71.7159 180.837 71.7159C181.364 71.7159 181.797 71.5871 182.138 71.3295C182.483 71.0758 182.655 70.6496 182.655 70.0511V68.4545H182.553C182.447 68.697 182.288 68.9261 182.076 69.142C181.864 69.358 181.591 69.5341 181.258 69.6705C180.924 69.8068 180.526 69.875 180.064 69.875C179.409 69.875 178.812 69.7235 178.275 69.4205C177.74 69.1136 177.314 68.6458 176.996 68.017C176.682 67.3845 176.525 66.5852 176.525 65.6193C176.525 64.6307 176.686 63.8049 177.008 63.142C177.329 62.4792 177.758 61.983 178.292 61.6534C178.829 61.3239 179.418 61.1591 180.059 61.1591C180.547 61.1591 180.956 61.2424 181.286 61.4091C181.615 61.572 181.881 61.7765 182.081 62.0227C182.286 62.2652 182.443 62.5038 182.553 62.7386H182.644V61.2727H185.047V70.0852C185.047 70.8277 184.865 71.4489 184.502 71.9489C184.138 72.4489 183.634 72.8239 182.99 73.0739C182.35 73.3277 181.614 73.4545 180.78 73.4545ZM180.831 68.0568C181.222 68.0568 181.551 67.9602 181.82 67.767C182.093 67.5701 182.301 67.2898 182.445 66.9261C182.593 66.5587 182.667 66.1193 182.667 65.608C182.667 65.0966 182.595 64.6534 182.451 64.2784C182.307 63.8996 182.098 63.6061 181.826 63.3977C181.553 63.1894 181.222 63.0852 180.831 63.0852C180.434 63.0852 180.098 63.1932 179.826 63.4091C179.553 63.6212 179.347 63.9167 179.206 64.2955C179.066 64.6742 178.996 65.1117 178.996 65.608C178.996 66.1117 179.066 66.5473 179.206 66.9148C179.35 67.2784 179.557 67.5606 179.826 67.7614C180.098 67.9583 180.434 68.0568 180.831 68.0568ZM186.893 70V61.2727H189.24V62.7955H189.331C189.49 62.2538 189.757 61.8447 190.132 61.5682C190.507 61.2879 190.939 61.1477 191.428 61.1477C191.549 61.1477 191.679 61.1553 191.82 61.1705C191.96 61.1856 192.083 61.2064 192.189 61.233V63.3807C192.075 63.3466 191.918 63.3163 191.717 63.2898C191.517 63.2633 191.333 63.25 191.166 63.25C190.81 63.25 190.492 63.3277 190.212 63.483C189.935 63.6345 189.715 63.8466 189.553 64.1193C189.393 64.392 189.314 64.7064 189.314 65.0625V70H186.893ZM196.897 70.1705C196.015 70.1705 195.251 69.983 194.607 69.608C193.967 69.2292 193.473 68.7027 193.124 68.0284C192.776 67.3504 192.602 66.5644 192.602 65.6705C192.602 64.7689 192.776 63.9811 193.124 63.3068C193.473 62.6288 193.967 62.1023 194.607 61.7273C195.251 61.3485 196.015 61.1591 196.897 61.1591C197.78 61.1591 198.541 61.3485 199.181 61.7273C199.825 62.1023 200.321 62.6288 200.67 63.3068C201.018 63.9811 201.193 64.7689 201.193 65.6705C201.193 66.5644 201.018 67.3504 200.67 68.0284C200.321 68.7027 199.825 69.2292 199.181 69.608C198.541 69.983 197.78 70.1705 196.897 70.1705ZM196.909 68.2955C197.31 68.2955 197.645 68.1818 197.914 67.9545C198.183 67.7235 198.386 67.4091 198.522 67.0114C198.662 66.6136 198.732 66.161 198.732 65.6534C198.732 65.1458 198.662 64.6932 198.522 64.2955C198.386 63.8977 198.183 63.5833 197.914 63.3523C197.645 63.1212 197.31 63.0057 196.909 63.0057C196.503 63.0057 196.162 63.1212 195.886 63.3523C195.613 63.5833 195.407 63.8977 195.267 64.2955C195.13 64.6932 195.062 65.1458 195.062 65.6534C195.062 66.161 195.13 66.6136 195.267 67.0114C195.407 67.4091 195.613 67.7235 195.886 67.9545C196.162 68.1818 196.503 68.2955 196.909 68.2955ZM204.189 70L201.814 61.2727H204.263L205.616 67.1364H205.695L207.104 61.2727H209.508L210.939 67.1023H211.013L212.343 61.2727H214.786L212.417 70H209.854L208.354 64.5114H208.246L206.746 70H204.189ZM223.259 63.7614L221.043 63.8977C221.005 63.7083 220.923 63.5379 220.798 63.3864C220.673 63.2311 220.509 63.108 220.304 63.017C220.103 62.9223 219.863 62.875 219.582 62.875C219.207 62.875 218.891 62.9545 218.634 63.1136C218.376 63.2689 218.247 63.4773 218.247 63.7386C218.247 63.947 218.33 64.1231 218.497 64.267C218.664 64.411 218.95 64.5265 219.355 64.6136L220.935 64.9318C221.783 65.1061 222.416 65.3864 222.832 65.7727C223.249 66.1591 223.457 66.6667 223.457 67.2955C223.457 67.8674 223.289 68.3693 222.952 68.8011C222.618 69.233 222.16 69.5701 221.577 69.8125C220.997 70.0511 220.329 70.1705 219.571 70.1705C218.416 70.1705 217.495 69.9299 216.81 69.4489C216.128 68.964 215.728 68.3049 215.611 67.4716L217.991 67.3466C218.063 67.6989 218.238 67.9678 218.514 68.1534C218.791 68.3352 219.145 68.4261 219.577 68.4261C220.001 68.4261 220.342 68.3447 220.599 68.1818C220.861 68.0152 220.993 67.8011 220.997 67.5398C220.993 67.3201 220.901 67.1402 220.719 67C220.537 66.8561 220.257 66.7462 219.878 66.6705L218.366 66.3693C217.514 66.1989 216.88 65.9034 216.463 65.483C216.05 65.0625 215.844 64.5265 215.844 63.875C215.844 63.3144 215.995 62.8314 216.298 62.4261C216.605 62.0208 217.035 61.7083 217.588 61.4886C218.145 61.2689 218.796 61.1591 219.543 61.1591C220.645 61.1591 221.512 61.392 222.145 61.858C222.781 62.3239 223.152 62.9583 223.259 63.7614Z" fill="url(#paint1_linear_3659_3434)" style="mix-blend-mode:screen"/>
<rect x="225" y="54" width="2" height="20" rx="1" fill="#59B5F8"/>
<rect width="41" height="12" transform="translate(18 32)" fill="white"/>
<path d="M21.8086 41V34.6587H22.5996V37.4009H26.0801V34.6587H26.8711V41H26.0801V38.1128H22.5996V41H21.8086ZM30.2452 41.0835C28.8917 41.0835 28.0743 40.1343 28.0743 38.6489V38.6445C28.0743 37.1812 28.9093 36.1792 30.1969 36.1792C31.4845 36.1792 32.2667 37.1372 32.2667 38.5522V38.8511H28.8565C28.8785 39.8311 29.419 40.4023 30.2628 40.4023C30.9044 40.4023 31.2999 40.0991 31.4273 39.8135L31.4449 39.7739H32.2096L32.2008 39.8091C32.0382 40.4507 31.3614 41.0835 30.2452 41.0835ZM30.1925 36.8604C29.4893 36.8604 28.9532 37.3394 28.8697 38.2402H31.4888C31.4097 37.3042 30.8912 36.8604 30.1925 36.8604ZM34.674 41.0835C33.7731 41.0835 33.092 40.5386 33.092 39.6772V39.6685C33.092 38.8247 33.716 38.3369 34.819 38.271L36.1769 38.1875V37.7568C36.1769 37.1724 35.821 36.856 35.1134 36.856C34.5465 36.856 34.173 37.0669 34.05 37.436L34.0456 37.4492H33.2809L33.2853 37.4229C33.4084 36.6802 34.1291 36.1792 35.1398 36.1792C36.2956 36.1792 36.9416 36.7725 36.9416 37.7568V41H36.1769V40.3013H36.1066C35.8078 40.8066 35.3112 41.0835 34.674 41.0835ZM33.8742 39.6597C33.8742 40.1387 34.2829 40.4199 34.8322 40.4199C35.61 40.4199 36.1769 39.9102 36.1769 39.2334V38.8027L34.9113 38.8818C34.1906 38.9258 33.8742 39.1807 33.8742 39.6509V39.6597ZM40.008 41.0835C38.8083 41.0835 38.0217 40.1123 38.0217 38.6357V38.627C38.0217 37.1416 38.8039 36.1792 40.008 36.1792C40.6584 36.1792 41.2253 36.5044 41.4846 37.0098H41.5549V34.3818H42.3196V41H41.5549V40.2441H41.4846C41.1946 40.7715 40.6672 41.0835 40.008 41.0835ZM40.1838 40.4067C41.0452 40.4067 41.5725 39.73 41.5725 38.6357V38.627C41.5725 37.5327 41.0452 36.856 40.1838 36.856C39.3181 36.856 38.8039 37.5239 38.8039 38.627V38.6357C38.8039 39.7388 39.3181 40.4067 40.1838 40.4067ZM44.1116 35.3486C43.8216 35.3486 43.5843 35.1113 43.5843 34.8213C43.5843 34.5312 43.8216 34.2939 44.1116 34.2939C44.4017 34.2939 44.639 34.5312 44.639 34.8213C44.639 35.1113 44.4017 35.3486 44.1116 35.3486ZM43.7249 41V36.2627H44.4896V41H43.7249ZM45.851 41V36.2627H46.6156V36.9746H46.6859C46.9232 36.4736 47.3671 36.1792 48.0658 36.1792C49.1293 36.1792 49.7226 36.8076 49.7226 37.9326V41H48.9579V38.1172C48.9579 37.2646 48.6063 36.856 47.8505 36.856C47.0946 36.856 46.6156 37.3657 46.6156 38.1963V41H45.851ZM52.978 42.6699C51.8354 42.6699 51.1059 42.1558 50.9873 41.3779L50.9961 41.3735H51.7871L51.7915 41.3779C51.875 41.7383 52.2969 41.9932 52.978 41.9932C53.8262 41.9932 54.3315 41.5933 54.3315 40.8945V39.9365H54.2612C53.9624 40.4595 53.4263 40.7539 52.7759 40.7539C51.5498 40.7539 50.7895 39.8047 50.7895 38.4775V38.4688C50.7895 37.1416 51.5542 36.1792 52.7934 36.1792C53.4614 36.1792 53.98 36.5088 54.27 37.0449H54.3227V36.2627H55.0874V40.9341C55.0874 41.9932 54.27 42.6699 52.978 42.6699ZM52.9429 40.0771C53.8218 40.0771 54.3491 39.418 54.3491 38.4775V38.4688C54.3491 37.5283 53.8174 36.856 52.9429 36.856C52.0639 36.856 51.5718 37.5283 51.5718 38.4688V38.4775C51.5718 39.418 52.0639 40.0771 52.9429 40.0771Z" fill="#6F6E77"/>
<g filter="url(#filter0_d_3659_3434)">
<rect x="15" y="80" width="281" height="258.169" rx="14.05" fill="white"/>
<rect x="15.75" y="80.75" width="279.5" height="256.669" rx="13.3" stroke="#59B5F8" stroke-width="1.5"/>
<g clip-path="url(#clip1_3659_3434)">
<rect x="22.025" y="116.881" width="266.95" height="214.262" rx="7.025" fill="#FAFAFA"/>
<path d="M76.5324 155.444V138.12H84.072C87.3375 138.12 89.3904 139.801 89.3904 142.466V142.49C89.3904 144.387 87.9498 146.007 86.0409 146.26V146.332C88.454 146.512 90.1948 148.216 90.1948 150.486V150.51C90.1948 153.547 87.9017 155.444 84.204 155.444H76.5324ZM83.1355 140.809H80.1581V145.359H82.6913C84.7323 145.359 85.8248 144.507 85.8248 143.006V142.982C85.8248 141.601 84.8283 140.809 83.1355 140.809ZM83.1235 147.82H80.1581V152.743H83.2796C85.3566 152.743 86.4971 151.89 86.4971 150.281V150.257C86.4971 148.673 85.3446 147.82 83.1235 147.82ZM95.6041 155.708C92.7707 155.708 91.162 153.895 91.162 150.882V142.574H94.6676V150.149C94.6676 151.83 95.46 152.803 97.0327 152.803C98.6055 152.803 99.6019 151.65 99.6019 149.969V142.574H103.108V155.444H99.6019V153.319H99.5299C98.8696 154.796 97.549 155.708 95.6041 155.708ZM106.476 140.917C105.419 140.917 104.603 140.089 104.603 139.092C104.603 138.096 105.419 137.267 106.476 137.267C107.532 137.267 108.349 138.096 108.349 139.092C108.349 140.089 107.532 140.917 106.476 140.917ZM104.723 155.444V142.574H108.229V155.444H104.723ZM109.928 155.444V138.12H113.434V155.444H109.928ZM119.828 155.708C116.586 155.708 114.593 153.187 114.593 149.009V148.997C114.593 144.807 116.586 142.31 119.828 142.31C121.652 142.31 123.093 143.246 123.789 144.807H123.861V138.12H127.367V155.444H123.861V153.247H123.789C123.105 154.772 121.688 155.708 119.828 155.708ZM121.004 152.803C122.709 152.803 123.873 151.338 123.873 149.009V148.997C123.873 146.68 122.697 145.215 121.004 145.215C119.263 145.215 118.159 146.644 118.159 148.997V149.009C118.159 151.35 119.251 152.803 121.004 152.803ZM136.937 155.648C134.356 155.648 132.615 154.027 132.615 151.758V151.734C132.615 149.393 134.428 148.024 137.621 147.82L140.803 147.628V146.836C140.803 145.695 140.058 144.987 138.69 144.987C137.381 144.987 136.589 145.599 136.421 146.428L136.397 146.536H133.191L133.203 146.392C133.395 144.015 135.436 142.31 138.834 142.31C142.159 142.31 144.308 144.027 144.308 146.62V155.444H140.803V153.523H140.731C139.998 154.844 138.63 155.648 136.937 155.648ZM136.085 151.578C136.085 152.526 136.865 153.091 138.078 153.091C139.65 153.091 140.803 152.082 140.803 150.738V149.813L138.15 149.981C136.793 150.065 136.085 150.642 136.085 151.554V151.578ZM152.486 155.444L149.064 142.574H152.594L154.539 152.118H154.611L156.892 142.574H160.253L162.546 152.118H162.618L164.575 142.574H168.033L164.623 155.444H160.89L158.561 146.344H158.489L156.171 155.444H152.486ZM174.331 155.708C170.393 155.708 168.004 153.151 168.004 149.033V149.021C168.004 144.927 170.417 142.31 174.187 142.31C177.956 142.31 180.321 144.867 180.321 148.757V149.837H171.461C171.497 151.89 172.614 153.091 174.403 153.091C175.843 153.091 176.72 152.298 176.972 151.578L176.996 151.506H180.213L180.177 151.638C179.781 153.535 178.004 155.708 174.331 155.708ZM174.247 144.927C172.806 144.927 171.725 145.887 171.497 147.628H176.96C176.744 145.851 175.699 144.927 174.247 144.927ZM189.02 155.708C187.171 155.708 185.755 154.772 185.058 153.247H184.986V155.444H181.481V138.12H184.986V144.807H185.058C185.767 143.246 187.195 142.31 189.032 142.31C192.262 142.31 194.267 144.807 194.267 148.997V149.009C194.267 153.187 192.262 155.708 189.02 155.708ZM187.856 152.803C189.597 152.803 190.701 151.35 190.701 149.009V148.997C190.701 146.644 189.597 145.215 187.856 145.215C186.163 145.215 184.986 146.68 184.986 148.997V149.009C184.986 151.338 186.151 152.803 187.856 152.803ZM200.624 155.708C197.059 155.708 195.078 154.063 194.802 151.626L194.79 151.518H198.211L198.235 151.626C198.463 152.635 199.22 153.223 200.624 153.223C201.945 153.223 202.749 152.707 202.749 151.878V151.866C202.749 151.182 202.317 150.786 201.057 150.51L198.872 150.053C196.374 149.525 195.114 148.276 195.114 146.356V146.344C195.114 143.894 197.227 142.31 200.504 142.31C203.926 142.31 205.835 144.123 205.919 146.38V146.5H202.689L202.677 146.404C202.557 145.479 201.801 144.783 200.504 144.783C199.292 144.783 198.535 145.323 198.535 146.152V146.164C198.535 146.824 198.98 147.256 200.276 147.532L202.461 148C205.151 148.565 206.255 149.621 206.255 151.518V151.53C206.255 154.051 203.938 155.708 200.624 155.708ZM209.071 140.917C208.015 140.917 207.198 140.089 207.198 139.092C207.198 138.096 208.015 137.267 209.071 137.267C210.128 137.267 210.944 138.096 210.944 139.092C210.944 140.089 210.128 140.917 209.071 140.917ZM207.318 155.444V142.574H210.824V155.444H207.318ZM217.554 155.708C214.696 155.708 213.352 154.603 213.352 151.842V145.215H211.563V142.574H213.352V139.428H216.893V142.574H219.247V145.215H216.893V151.458C216.893 152.659 217.434 153.067 218.49 153.067C218.802 153.067 219.03 153.031 219.247 153.007V155.576C218.85 155.636 218.286 155.708 217.554 155.708ZM226.108 155.708C222.171 155.708 219.782 153.151 219.782 149.033V149.021C219.782 144.927 222.195 142.31 225.964 142.31C229.734 142.31 232.099 144.867 232.099 148.757V149.837H223.239C223.275 151.89 224.392 153.091 226.18 153.091C227.621 153.091 228.498 152.298 228.75 151.578L228.774 151.506H231.991L231.955 151.638C231.559 153.535 229.782 155.708 226.108 155.708ZM226.024 144.927C224.584 144.927 223.503 145.887 223.275 147.628H228.738C228.522 145.851 227.477 144.927 226.024 144.927Z" fill="#1A1523"/>
<path d="M105.918 180.708C103.061 180.708 101.716 179.603 101.716 176.842V170.215H99.9275V167.574H101.716V164.428H105.258V167.574H107.611V170.215H105.258V176.458C105.258 177.659 105.798 178.067 106.855 178.067C107.167 178.067 107.395 178.031 107.611 178.007V180.576C107.215 180.636 106.651 180.708 105.918 180.708ZM108.89 180.444V163.12H112.396V169.795H112.468C113.128 168.198 114.485 167.31 116.418 167.31C119.203 167.31 120.932 169.255 120.932 172.364V180.444H117.426V173.084C117.426 171.284 116.538 170.215 114.941 170.215C113.393 170.215 112.396 171.392 112.396 173.072V180.444H108.89ZM126.281 180.648C123.7 180.648 121.959 179.027 121.959 176.758V176.734C121.959 174.393 123.772 173.024 126.966 172.82L130.147 172.628V171.836C130.147 170.695 129.403 169.987 128.034 169.987C126.726 169.987 125.933 170.599 125.765 171.428L125.741 171.536H122.536L122.548 171.392C122.74 169.015 124.781 167.31 128.178 167.31C131.504 167.31 133.653 169.027 133.653 171.62V180.444H130.147V178.523H130.075C129.343 179.844 127.974 180.648 126.281 180.648ZM125.429 176.578C125.429 177.526 126.209 178.091 127.422 178.091C128.995 178.091 130.147 177.082 130.147 175.738V174.813L127.494 174.981C126.137 175.065 125.429 175.642 125.429 176.554V176.578ZM140.299 180.708C137.441 180.708 136.097 179.603 136.097 176.842V170.215H134.308V167.574H136.097V164.428H139.638V167.574H141.991V170.215H139.638V176.458C139.638 177.659 140.179 178.067 141.235 178.067C141.547 178.067 141.775 178.031 141.991 178.007V180.576C141.595 180.636 141.031 180.708 140.299 180.708ZM153.338 184.91C149.796 184.91 147.563 183.313 147.227 181.248L147.215 181.14H150.625L150.661 181.224C150.937 181.861 151.873 182.413 153.338 182.413C155.151 182.413 156.111 181.476 156.111 180.036V178.067H156.039C155.367 179.411 153.926 180.264 152.066 180.264C148.848 180.264 146.855 177.863 146.855 173.865V173.853C146.855 169.747 148.872 167.31 152.126 167.31C153.938 167.31 155.343 168.27 156.039 169.771H156.111V167.574H159.617V180.084C159.617 182.953 157.204 184.91 153.338 184.91ZM153.278 177.695C154.995 177.695 156.123 176.254 156.123 173.949V173.937C156.123 171.644 154.983 170.215 153.278 170.215C151.537 170.215 150.421 171.632 150.421 173.937V173.949C150.421 176.266 151.525 177.695 153.278 177.695ZM161.185 180.444V167.574H164.69V169.819H164.762C165.146 168.234 166.191 167.31 167.692 167.31C168.076 167.31 168.436 167.37 168.7 167.442V170.527C168.412 170.407 167.932 170.335 167.427 170.335C165.699 170.335 164.69 171.368 164.69 173.24V180.444H161.185ZM174.878 180.708C170.964 180.708 168.503 178.199 168.503 174.009V173.985C168.503 169.843 171.024 167.31 174.866 167.31C178.719 167.31 181.253 169.819 181.253 173.985V174.009C181.253 178.211 178.767 180.708 174.878 180.708ZM174.89 177.959C176.594 177.959 177.687 176.518 177.687 174.009V173.985C177.687 171.5 176.57 170.059 174.866 170.059C173.173 170.059 172.068 171.5 172.068 173.985V174.009C172.068 176.53 173.161 177.959 174.89 177.959ZM184.717 180.444L181.295 167.574H184.825L186.77 177.118H186.842L189.123 167.574H192.485L194.778 177.118H194.85L196.807 167.574H200.264L196.855 180.444H193.121L190.792 171.344H190.72L188.403 180.444H184.717ZM206.118 180.708C202.552 180.708 200.571 179.063 200.295 176.626L200.283 176.518H203.705L203.729 176.626C203.957 177.635 204.713 178.223 206.118 178.223C207.438 178.223 208.243 177.707 208.243 176.878V176.866C208.243 176.182 207.81 175.786 206.55 175.51L204.365 175.053C201.868 174.525 200.607 173.276 200.607 171.356V171.344C200.607 168.894 202.72 167.31 205.998 167.31C209.419 167.31 211.328 169.123 211.412 171.38V171.5H208.183L208.171 171.404C208.051 170.479 207.294 169.783 205.998 169.783C204.785 169.783 204.029 170.323 204.029 171.152V171.164C204.029 171.824 204.473 172.256 205.77 172.532L207.955 173C210.644 173.565 211.748 174.621 211.748 176.518V176.53C211.748 179.051 209.431 180.708 206.118 180.708Z" fill="url(#paint2_linear_3659_3434)"/>
<path d="M257.992 159.768L363.214 220.322L370.641 216.073L265.419 155.519L257.992 159.768Z" fill="#303030" stroke="#151515" stroke-width="1.16208" stroke-linecap="round" stroke-linejoin="round"/>
<path d="M265.859 162.099C266.727 162.601 268.134 162.601 269.002 162.099C269.437 161.848 269.653 161.6 269.653 161.356V159.61C269.64 159.292 269.421 158.976 269 158.733C268.133 158.233 266.727 158.233 265.86 158.733C265.439 158.976 265.223 159.292 265.211 159.61V161.356C265.211 161.6 265.425 161.848 265.859 162.099Z" fill="#151515"/>
<mask id="mask1_3659_3434" style="mask-type:alpha" maskUnits="userSpaceOnUse" x="265" y="158" width="5" height="5">
<path d="M265.859 162.1C266.727 162.601 268.134 162.601 269.002 162.1C269.437 161.849 269.652 161.6 269.652 161.356V159.62C269.64 159.302 269.42 158.986 269 158.743C268.133 158.244 266.727 158.244 265.86 158.743C265.439 158.986 265.223 159.302 265.21 159.62V161.356C265.21 161.6 265.425 161.849 265.859 162.1Z" fill="#9E00FF"/>
</mask>
<g mask="url(#mask1_3659_3434)">
<rect x="266.651" y="156.95" width="4.75482" height="6.96201" fill="#717171"/>
<path d="M265.828 162.037C266.695 162.539 268.102 162.539 268.97 162.037C269.405 161.786 269.621 161.538 269.621 161.294V159.61C269.608 159.292 269.389 158.976 268.968 158.733C268.101 158.233 266.695 158.233 265.828 158.733C265.407 158.976 265.191 159.292 265.179 159.61V161.294C265.179 161.538 265.393 161.786 265.828 162.037Z" stroke="#151515" stroke-width="1.16208" stroke-linejoin="bevel"/>
</g>
<path d="M269.002 160.554C268.135 161.054 266.728 161.054 265.861 160.554C264.994 160.054 264.994 159.243 265.861 158.744C266.728 158.244 268.135 158.244 269.002 158.744C269.869 159.243 269.869 160.054 269.002 160.554Z" fill="#505050" stroke="#151515" stroke-width="1.16208"/>
<path d="M270.859 164.928C271.726 165.43 273.134 165.43 274.001 164.928C274.436 164.677 274.652 164.429 274.652 164.185V162.438C274.64 162.12 274.42 161.804 273.999 161.562C273.132 161.062 271.726 161.062 270.859 161.562C270.438 161.804 270.222 162.12 270.21 162.438V164.185C270.21 164.429 270.424 164.677 270.859 164.928Z" fill="#151515"/>
<mask id="mask2_3659_3434" style="mask-type:alpha" maskUnits="userSpaceOnUse" x="270" y="161" width="5" height="5">
<path d="M270.858 164.929C271.726 165.43 273.133 165.43 274.001 164.929C274.436 164.678 274.651 164.429 274.651 164.185V162.449C274.639 162.131 274.419 161.815 273.999 161.573C273.132 161.073 271.726 161.073 270.859 161.573C270.438 161.815 270.222 162.131 270.209 162.449V164.185C270.209 164.429 270.424 164.678 270.858 164.929Z" fill="#9E00FF"/>
</mask>
<g mask="url(#mask2_3659_3434)">
<rect x="271.65" y="159.778" width="4.75482" height="6.96201" fill="#717171"/>
<path d="M270.827 164.866C271.695 165.367 273.102 165.367 273.97 164.866C274.405 164.615 274.62 164.366 274.62 164.122V162.438C274.608 162.12 274.388 161.804 273.967 161.562C273.101 161.062 271.695 161.062 270.828 161.562C270.407 161.804 270.191 162.12 270.178 162.438V164.122C270.178 164.366 270.393 164.615 270.827 164.866Z" stroke="#151515" stroke-width="1.16208" stroke-linejoin="bevel"/>
</g>
<path d="M274.002 163.382C273.134 163.882 271.728 163.882 270.861 163.382C269.993 162.883 269.993 162.072 270.861 161.572C271.728 161.072 273.134 161.072 274.002 161.572C274.869 162.072 274.869 162.883 274.002 163.382Z" fill="#505050" stroke="#151515" stroke-width="1.16208"/>
<path d="M275.855 167.699C276.723 168.201 278.13 168.201 278.998 167.699C279.432 167.448 279.648 167.2 279.648 166.956V165.209C279.636 164.891 279.416 164.575 278.995 164.333C278.128 163.833 276.723 163.833 275.856 164.333C275.435 164.575 275.218 164.891 275.206 165.209V166.956C275.206 167.2 275.42 167.448 275.855 167.699Z" fill="#151515"/>
<mask id="mask3_3659_3434" style="mask-type:alpha" maskUnits="userSpaceOnUse" x="275" y="163" width="5" height="6">
<path d="M275.856 167.7C276.724 168.202 278.131 168.202 278.998 167.7C279.433 167.449 279.649 167.201 279.649 166.957V165.22C279.637 164.902 279.417 164.587 278.996 164.344C278.129 163.844 276.723 163.844 275.857 164.344C275.436 164.587 275.219 164.902 275.207 165.22V166.957C275.207 167.201 275.421 167.449 275.856 167.7Z" fill="#9E00FF"/>
</mask>
<g mask="url(#mask3_3659_3434)">
<rect x="276.647" y="162.55" width="4.75482" height="6.96201" fill="#717171"/>
<path d="M275.823 167.638C276.691 168.139 278.098 168.139 278.966 167.638C279.4 167.386 279.616 167.138 279.616 166.894V165.21C279.604 164.892 279.384 164.576 278.963 164.334C278.096 163.834 276.691 163.834 275.824 164.334C275.403 164.576 275.186 164.892 275.174 165.21V166.894C275.174 167.138 275.388 167.386 275.823 167.638Z" stroke="#151515" stroke-width="1.16208" stroke-linejoin="bevel"/>
</g>
<path d="M278.998 166.153C278.13 166.653 276.724 166.653 275.857 166.153C274.989 165.654 274.989 164.843 275.857 164.343C276.724 163.843 278.13 163.843 278.998 164.343C279.865 164.843 279.865 165.654 278.998 166.153Z" fill="#505050" stroke="#151515" stroke-width="1.16208"/>
<path d="M257.992 159.768L363.214 220.322V235.907L257.992 175.353V159.768Z" fill="#151515" stroke="#151515" stroke-width="1.16208" stroke-linecap="round" stroke-linejoin="round"/>
<path d="M274.993 203.634L228.499 176.877L258.205 159.883L363.426 220.437L333.721 237.431L289.332 211.886L289.553 211.138C291.977 210.905 294.303 210.254 296.174 209.184C300.956 206.45 300.956 202.018 296.174 199.284C291.391 196.549 283.637 196.549 278.854 199.284C276.968 200.362 275.826 201.704 275.427 203.102L274.993 203.634Z" fill="#ED6B22" stroke="#151515" stroke-width="1.16208" stroke-linecap="round" stroke-linejoin="round"/>
<path d="M333.721 253.016V237.431L286.725 210.385V225.97L333.721 253.016Z" fill="#151515"/>
<path d="M228.499 192.462V176.877L274.558 203.384V218.969L228.499 192.462Z" fill="#151515"/>
<path d="M333.721 253.016V237.431L286.725 210.385V225.97L333.721 253.016Z" stroke="#151515" stroke-width="1.16208" stroke-linecap="round" stroke-linejoin="round"/>
<path d="M228.499 192.462V176.877L274.558 203.384V218.969L228.499 192.462Z" stroke="#151515" stroke-width="1.16208" stroke-linecap="round" stroke-linejoin="round"/>
<path d="M256.623 170.544L288.633 188L278.833 193.264L246.822 175.808L256.623 170.544Z" fill="#F39A68" stroke="#151515" stroke-width="1.16208" stroke-linejoin="round"/>
<path d="M256.621 168.327L288.631 185.783L278.831 191.047L246.82 173.592L256.621 168.327Z" fill="#F39A68" stroke="#151515" stroke-width="1.16208" stroke-linejoin="round"/>
<path d="M246.82 173.592L278.831 191.048V193.264L246.82 175.808V173.592Z" fill="#151515" stroke="#151515" stroke-width="1.16208" stroke-linejoin="round"/>
<path d="M278.831 191.047L288.631 185.783V187.999L278.831 193.264V191.047Z" fill="#F39A68" stroke="#151515" stroke-width="1.16208" stroke-linejoin="round"/>
<path d="M146.44 223.731L194.105 251.162L193.528 251.38C191.307 251.59 189.177 252.179 187.463 253.145C183.082 255.617 183.082 259.623 187.463 262.095C191.844 264.566 198.947 264.566 203.327 262.095C205.055 261.12 206.101 259.907 206.466 258.643L206.655 258.384L251.662 284.285L316.211 247.358L269.591 220.529L269.669 220.499C271.777 220.294 273.8 219.721 275.428 218.78C279.588 216.374 279.588 212.473 275.428 210.067C271.268 207.661 264.523 207.661 260.362 210.067C258.722 211.016 257.728 212.197 257.381 213.428L257.344 213.481L210.989 186.804L146.44 223.731Z" fill="#3BBB96" stroke="#151515" stroke-width="1.16208" stroke-linecap="round" stroke-linejoin="round"/>
</g>
<circle cx="40.4656" cy="105.466" r="4.39062" fill="#E4E2E4" fill-opacity="0.88"/>
<circle cx="56.2719" cy="105.466" r="4.39062" fill="#E4E2E4" fill-opacity="0.88"/>
<circle cx="72.0781" cy="105.466" r="4.39062" fill="#E4E2E4" fill-opacity="0.88"/>
<g opacity="0.72" clip-path="url(#clip2_3659_3434)">
<path d="M119.183 105.197C119.183 105.501 119.166 105.795 119.138 106.075H116.595C116.565 105.795 116.55 105.501 116.55 105.197C116.55 104.892 116.566 104.598 116.595 104.318H119.138C119.168 104.598 119.183 104.892 119.183 105.197ZM119.578 104.318H121.267C121.34 104.6 121.378 104.893 121.378 105.197C121.378 105.5 121.34 105.793 121.267 106.075H119.578C119.607 105.792 119.622 105.498 119.622 105.197C119.622 104.895 119.607 104.601 119.578 104.318ZM121.123 103.879H119.522C119.385 103.003 119.113 102.269 118.763 101.799C119.837 102.083 120.711 102.863 121.122 103.879H121.123ZM119.077 103.879H116.654C116.738 103.38 116.867 102.938 117.025 102.58C117.169 102.256 117.329 102.022 117.484 101.873C117.638 101.728 117.765 101.684 117.866 101.684C117.966 101.684 118.093 101.728 118.247 101.873C118.402 102.022 118.563 102.256 118.707 102.58C118.866 102.937 118.993 103.379 119.077 103.879ZM116.21 103.879H114.608C115.02 102.863 115.893 102.083 116.968 101.799C116.618 102.269 116.347 103.003 116.21 103.879ZM114.464 104.318H116.153C116.124 104.601 116.109 104.895 116.109 105.197C116.109 105.498 116.124 105.792 116.153 106.075H114.464C114.392 105.793 114.353 105.5 114.353 105.197C114.353 104.893 114.392 104.6 114.464 104.318ZM117.025 107.812C116.865 107.455 116.738 107.013 116.654 106.514H119.077C118.993 107.013 118.865 107.455 118.707 107.812C118.563 108.136 118.402 108.37 118.247 108.518C118.093 108.665 117.966 108.709 117.866 108.709C117.765 108.709 117.638 108.665 117.484 108.52C117.329 108.372 117.169 108.137 117.025 107.813V107.812ZM116.21 106.514C116.347 107.391 116.618 108.125 116.968 108.594C115.893 108.31 115.02 107.53 114.608 106.514H116.21ZM121.123 106.514C120.711 107.53 119.839 108.31 118.764 108.594C119.114 108.125 119.385 107.391 119.523 106.514H121.124H121.123Z" fill="#6F6E77" fill-opacity="0.48"/>
</g>
<path d="M127.902 108.197V101.391H130.619C132.001 101.391 132.935 102.301 132.935 103.664V103.674C132.935 105.032 132.001 105.947 130.619 105.947H129.119V108.197H127.902ZM130.322 102.386H129.119V104.966H130.322C131.194 104.966 131.704 104.494 131.704 103.678V103.669C131.704 102.853 131.194 102.386 130.322 102.386ZM133.866 108.197V103.042H135.041V103.834H135.121C135.295 103.282 135.767 102.957 136.446 102.957C136.625 102.957 136.809 102.98 136.923 103.013V104.065C136.734 104.027 136.541 103.999 136.338 103.999C135.555 103.999 135.041 104.466 135.041 105.202V108.197H133.866ZM138.199 102.179C137.812 102.179 137.496 101.872 137.496 101.485C137.496 101.103 137.812 100.792 138.199 100.792C138.581 100.792 138.897 101.103 138.897 101.485C138.897 101.872 138.581 102.179 138.199 102.179ZM137.609 108.197V103.042H138.784V108.197H137.609ZM141.885 108.301C140.574 108.301 139.781 107.697 139.682 106.824V106.815H140.847L140.852 106.824C140.975 107.183 141.319 107.433 141.904 107.433C142.489 107.433 142.894 107.169 142.894 106.782V106.772C142.894 106.471 142.668 106.272 142.102 106.145L141.267 105.956C140.286 105.739 139.819 105.277 139.819 104.518V104.513C139.819 103.584 140.668 102.943 141.885 102.943C143.14 102.943 143.889 103.565 143.965 104.4V104.409H142.861L142.857 104.395C142.772 104.07 142.432 103.806 141.88 103.806C141.357 103.806 140.979 104.06 140.979 104.447V104.452C140.979 104.754 141.196 104.938 141.753 105.065L142.588 105.249C143.597 105.475 144.073 105.905 144.073 106.654V106.664C144.073 107.645 143.154 108.301 141.885 108.301ZM144.967 108.197V103.042H146.142V103.843H146.222C146.444 103.268 146.963 102.943 147.637 102.943C148.335 102.943 148.844 103.301 149.066 103.872H149.146C149.396 103.31 149.991 102.943 150.707 102.943C151.745 102.943 152.368 103.579 152.368 104.65V108.197H151.193V104.938C151.193 104.268 150.887 103.928 150.259 103.928C149.646 103.928 149.25 104.386 149.25 104.975V108.197H148.076V104.853C148.076 104.282 147.722 103.928 147.146 103.928C146.566 103.928 146.142 104.419 146.142 105.06V108.197H144.967ZM154.073 102.179C153.686 102.179 153.37 101.872 153.37 101.485C153.37 101.103 153.686 100.792 154.073 100.792C154.455 100.792 154.771 101.103 154.771 101.485C154.771 101.872 154.455 102.179 154.073 102.179ZM153.483 108.197V103.042H154.658V108.197H153.483ZM158.023 108.301C156.472 108.301 155.557 107.296 155.557 105.612V105.603C155.557 103.938 156.467 102.943 158.019 102.943C159.344 102.943 160.136 103.678 160.268 104.744V104.763H159.16L159.155 104.749C159.047 104.249 158.665 103.891 158.023 103.891C157.221 103.891 156.75 104.523 156.75 105.603V105.612C156.75 106.706 157.226 107.348 158.023 107.348C158.632 107.348 159.004 107.07 159.151 106.527L159.16 106.508L160.268 106.504L160.259 106.541C160.089 107.598 159.33 108.301 158.023 108.301ZM163.405 105.985V104.919H166.556V105.985H163.405ZM170.141 108.197V101.391H171.358V104.221H174.669V101.391H175.881V108.197H174.669V105.244H171.358V108.197H170.141ZM179.379 108.301C177.832 108.301 176.898 107.291 176.898 105.622V105.612C176.898 103.957 177.846 102.943 179.379 102.943C180.916 102.943 181.859 103.952 181.859 105.612V105.622C181.859 107.291 180.921 108.301 179.379 108.301ZM179.379 107.348C180.195 107.348 180.657 106.711 180.657 105.626V105.617C180.657 104.532 180.19 103.891 179.379 103.891C178.563 103.891 178.096 104.532 178.096 105.617V105.626C178.096 106.711 178.563 107.348 179.379 107.348ZM182.749 108.197V103.042H183.923V103.843H184.003C184.225 103.268 184.744 102.943 185.418 102.943C186.116 102.943 186.626 103.301 186.847 103.872H186.928C187.178 103.31 187.772 102.943 188.489 102.943C189.526 102.943 190.149 103.579 190.149 104.65V108.197H188.975V104.938C188.975 104.268 188.668 103.928 188.041 103.928C187.428 103.928 187.031 104.386 187.031 104.975V108.197H185.857V104.853C185.857 104.282 185.503 103.928 184.928 103.928C184.348 103.928 183.923 104.419 183.923 105.06V108.197H182.749ZM193.458 108.301C191.925 108.301 190.996 107.272 190.996 105.631V105.626C190.996 104.004 191.934 102.943 193.401 102.943C194.868 102.943 195.774 103.971 195.774 105.527V105.914H192.17C192.184 106.838 192.684 107.376 193.481 107.376C194.118 107.376 194.481 107.055 194.595 106.82L194.609 106.787H195.727L195.712 106.829C195.547 107.494 194.859 108.301 193.458 108.301ZM193.415 103.862C192.76 103.862 192.269 104.306 192.18 105.126H194.628C194.547 104.282 194.071 103.862 193.415 103.862Z" fill="#505050" fill-opacity="0.56"/>
</g>
</g>
<path d="M0.75 6C0.75 3.10051 3.10051 0.75 6 0.75H306C308.899 0.75 311.25 3.10051 311.25 6V191.25H0.75V6Z" stroke="#DCDBDD" stroke-width="1.5"/>
</g>
<defs>
<filter id="filter0_d_3659_3434" x="5" y="78" width="301" height="278.169" filterUnits="userSpaceOnUse" color-interpolation-filters="sRGB">
<feFlood flood-opacity="0" result="BackgroundImageFix"/>
<feColorMatrix in="SourceAlpha" type="matrix" values="0 0 0 0 0 0 0 0 0 0 0 0 0 0 0 0 0 0 127 0" result="hardAlpha"/>
<feMorphology radius="2" operator="erode" in="SourceAlpha" result="effect1_dropShadow_3659_3434"/>
<feOffset dy="8"/>
<feGaussianBlur stdDeviation="6"/>
<feColorMatrix type="matrix" values="0 0 0 0 0.101961 0 0 0 0 0.0823529 0 0 0 0 0.137255 0 0 0 0.2 0"/>
<feBlend mode="normal" in2="BackgroundImageFix" result="effect1_dropShadow_3659_3434"/>
<feBlend mode="normal" in="SourceGraphic" in2="effect1_dropShadow_3659_3434" result="shape"/>
</filter>
<linearGradient id="paint0_linear_3659_3434" x1="156" y1="0" x2="156" y2="192" gradientUnits="userSpaceOnUse">
<stop offset="0.755831" stop-color="#D9D9D9"/>
<stop offset="1" stop-color="#737373" stop-opacity="0"/>
</linearGradient>
<linearGradient id="paint1_linear_3659_3434" x1="20" y1="64" x2="229" y2="64" gradientUnits="userSpaceOnUse">
<stop offset="0.3" stop-color="#59B5F8" stop-opacity="0"/>
<stop offset="1" stop-color="#59B5F8" stop-opacity="0.72"/>
</linearGradient>
<linearGradient id="paint2_linear_3659_3434" x1="104" y1="159.444" x2="207" y2="159.444" gradientUnits="userSpaceOnUse">
<stop offset="0.259545" stop-color="#1A1523"/>
<stop offset="0.90432" stop-color="#1A1523" stop-opacity="0"/>
</linearGradient>
<clipPath id="clip0_3659_3434">
<path d="M0 6C0 2.68629 2.68629 0 6 0H306C309.314 0 312 2.68629 312 6V192H0V6Z" fill="white"/>
</clipPath>
<clipPath id="clip1_3659_3434">
<rect x="22.025" y="116.881" width="266.95" height="214.262" rx="7.025" fill="white"/>
</clipPath>
<clipPath id="clip2_3659_3434">
<rect width="7.025" height="7.025" fill="white" transform="translate(114.353 101.684)"/>
</clipPath>
</defs>
</svg>
