<svg width="130" height="130" viewBox="0 0 130 130" fill="none" xmlns="http://www.w3.org/2000/svg">
<path d="M7.69602 111.307L7.69583 111.307C7.357 110.581 7.46324 109.721 7.97288 109.102L7.97289 109.102L56.4084 50.2229L56.4094 50.2217C57.206 49.2597 58.7939 49.2591 59.5897 50.2221L59.5904 50.2229L108.027 109.102C108.537 109.721 108.643 110.581 108.304 111.307L108.304 111.307C107.965 112.031 107.239 112.5 106.436 112.5H9.56267C8.76037 112.5 8.03488 112.031 7.69602 111.307ZM57.9994 54.8029L13.9495 108.35H102.05L57.9994 54.8029Z" fill="#AEAEAE" stroke="#AEAEAE"/>
<path d="M45.0172 64.6382L45.3375 65.0222C44.4579 65.756 43.1541 65.6288 42.4293 64.7499L42.4291 64.7495L7.973 22.8953L7.97299 22.8953C7.46316 22.2759 7.3571 21.4177 7.6957 20.6915L7.69589 20.6911C8.03537 19.9647 8.76183 19.5 9.56267 19.5H106.436C107.238 19.5 107.965 19.9645 108.304 20.6911L108.304 20.6915C108.643 21.4177 108.537 22.2759 108.027 22.8953L107.641 22.5775L108.027 22.8953L73.5709 64.7495L73.5703 64.7503C73.1625 65.2438 72.5721 65.4996 71.9787 65.4996C71.5155 65.4996 71.0476 65.3428 70.6622 65.023L70.6618 65.0226C69.7849 64.293 69.6648 62.9858 70.3889 62.1047L70.3892 62.1043L102.05 23.6479H13.95L45.6095 62.1043C46.3355 62.9856 46.2152 64.2933 45.3367 65.0229L45.0172 64.6382ZM45.0172 64.6382C45.6828 64.0855 45.7754 63.092 45.2236 62.4221L13.3024 23.6479L42.8151 64.4317C43.3643 65.0978 44.3516 65.1935 45.0172 64.6382Z" fill="#AEAEAE" stroke="#AEAEAE"/>
<path d="M56.7155 84.807L56.7147 84.806L47.909 73.5812L47.9088 73.581C47.2844 72.7839 47.3846 71.6099 48.146 70.9418L48.1476 70.9404C48.9266 70.2628 50.0819 70.3823 50.7181 71.1932L50.7181 71.1933L58.1198 80.6295L65.2819 71.4995L65.2819 71.4994C65.9168 70.6903 67.0727 70.5638 67.8536 71.2477C68.6159 71.9151 68.7151 73.0893 68.0915 73.8868L68.091 73.8874L59.5253 84.8054C59.5252 84.8056 59.525 84.8058 59.5248 84.806C59.1844 85.241 58.6694 85.5 58.1198 85.5C57.5686 85.5 57.0568 85.2399 56.7155 84.807Z" fill="#AEAEAE" stroke="#AEAEAE"/>
</svg>
