<svg width="130" height="130" viewBox="0 0 130 130" fill="none" xmlns="http://www.w3.org/2000/svg">
<path d="M90.9215 87.4977L90.8977 87.5H90.8737C89.8142 87.5 88.8646 86.741 88.6673 85.6534L88.6669 85.6511C88.4523 84.4359 89.2557 83.2615 90.4763 83.0362L90.4764 83.0362C108.747 79.6672 122.015 63.6052 122.015 44.8352C122.015 23.4184 104.728 5.9987 83.4999 5.9987C62.272 5.9987 44.9848 23.4184 44.9848 44.8352C44.9848 54.0839 48.2605 63.0417 54.2048 70.0602C55.0088 71.0027 54.9038 72.4217 53.9542 73.228C53.0143 74.0423 51.5981 73.9141 50.7958 72.9779L50.7941 72.9759C44.1518 65.1431 40.5 55.1508 40.5 44.8352C40.5 20.9437 59.7887 1.5 83.4999 1.5C107.211 1.5 126.5 20.9437 126.5 44.8352C126.5 65.7699 111.695 83.6996 91.2849 87.4609L91.2636 87.4649L91.2421 87.4669L90.9215 87.4977Z" fill="#AEAEAE" stroke="#AEAEAE"/>
<path d="M44.5001 45.0121C23.2739 45.0121 5.98475 62.4962 5.98475 83.9979C5.98475 105.502 23.274 122.988 44.5001 122.988C65.74 122.988 83.0153 105.503 83.0153 83.9979C83.0153 62.4961 65.74 45.0121 44.5001 45.0121ZM44.5001 127.5C20.787 127.5 1.5 107.981 1.5 83.9979C1.5 60.0192 20.787 40.5 44.5001 40.5C68.2272 40.5 87.5 60.0193 87.5 83.9979C87.5 107.981 68.2272 127.5 44.5001 127.5Z" fill="#AEAEAE" stroke="#AEAEAE"/>
</svg>
