<svg width="130" height="130" viewBox="0 0 130 130" fill="none" xmlns="http://www.w3.org/2000/svg">
<path d="M15.5945 116.411H86.4055V45.5886H15.5945V116.411ZM88.4528 120.5H13.5472C12.4175 120.5 11.5 119.588 11.5 118.456V43.5443C11.5 42.4165 12.4168 41.5 13.5472 41.5H88.4528C89.5838 41.5 90.5 42.4166 90.5 43.5443V118.456C90.5 119.588 89.5831 120.5 88.4528 120.5Z" fill="#AEAEAE" stroke="#AEAEAE"/>
<path d="M111.453 95.5H36.5473C35.4165 95.5 34.5 94.585 34.5 93.4557V67.7192C34.5 66.587 35.417 65.675 36.5473 65.675H55.6345C56.7633 65.675 57.6817 66.5868 57.6817 67.7192C57.6817 68.8473 56.764 69.7635 55.6345 69.7635H38.5946V91.4114H109.405V20.5886H38.5946V40.9278C38.5946 42.0603 37.6761 42.9721 36.5473 42.9721C35.417 42.9721 34.5 42.06 34.5 40.9278V18.5443C34.5 17.415 35.4165 16.5 36.5473 16.5H111.453C112.584 16.5 113.5 17.415 113.5 18.5443V93.4557C113.5 94.585 112.584 95.5 111.453 95.5Z" fill="#AEAEAE" stroke="#AEAEAE"/>
</svg>
