<svg width="130" height="130" viewBox="0 0 130 130" fill="none" xmlns="http://www.w3.org/2000/svg">
<path d="M10.0931 75.3736L10.0934 75.374L61.6186 126.908C62.0147 127.304 62.5334 127.5 63.0507 127.5C63.569 127.5 64.0877 127.304 64.4839 126.908L115.907 75.4766L115.907 75.4762C116.697 74.6839 116.698 73.4014 115.907 72.6098L115.553 72.9634L115.907 72.6098L108.577 65.2805L108.577 65.2802C107.785 64.4894 106.502 64.4889 105.711 65.2805C104.919 66.0721 104.92 67.3546 105.71 68.1469L105.711 68.1472L111.607 74.0444L63.0507 122.607L14.3918 73.9418L62.9481 25.3764L91.8908 54.3226C92.682 55.1156 93.965 55.1157 94.7564 54.3229C95.549 53.5314 95.5489 52.2484 94.7561 51.457L64.3814 21.0761C63.6136 20.3083 62.2833 20.3076 61.5161 21.0761L10.0931 75.3736ZM10.0931 75.3736C9.30251 74.5813 9.30199 73.2988 10.0934 72.5072L10.447 72.8607L10.0934 72.5072L61.5157 21.0765L10.0931 75.3736Z" fill="#AEAEAE" stroke="#AEAEAE"/>
<path d="M16.3777 62.6672L16.3777 62.6672L9.09346 55.3819C9.09345 55.3819 9.09345 55.3819 9.09344 55.3819C8.30218 54.5906 8.30219 53.308 9.09346 52.5167L60.5161 1.09345C61.3074 0.302177 62.59 0.302177 63.3813 1.09345L114.907 52.6193C115.698 53.4106 115.698 54.6932 114.907 55.4845L63.4839 106.908C63.1035 107.288 62.5864 107.5 62.0507 107.5C61.5146 107.5 60.9988 107.288 60.6187 106.908L22.6822 68.9718C21.8909 68.1805 21.8909 66.8978 22.6822 66.1066C23.4738 65.3138 24.7566 65.3144 25.5487 66.1066L62.0507 102.608L110.607 54.0513L61.9481 5.39429L13.3918 53.9487L19.2425 59.8016C20.0355 60.593 20.0355 61.8762 19.2425 62.6676C18.4512 63.4585 17.1688 63.4584 16.3777 62.6672Z" fill="#AEAEAE" stroke="#AEAEAE"/>
</svg>
