<svg width="112" height="111" viewBox="0 0 112 111" fill="none" xmlns="http://www.w3.org/2000/svg">
<rect x="112.01" y="110.42" width="111.087" height="109.81" rx="54.9052" transform="rotate(180 112.01 110.42)" fill="#F9FAFC"/>
<path d="M81.9865 65.1741C80.8348 65.1741 80.1768 64.4597 80.1768 63.5529C80.1768 62.6461 80.8348 61.9316 81.9865 61.9316C83.1381 61.9316 83.7688 62.6461 83.7688 63.5529C83.7688 64.4597 83.1381 65.1741 81.9865 65.1741Z" fill="black"/>
<path d="M80.546 64.9828H77.3104L73.691 59.8992L70.0441 64.9828H66.8359L72.0183 57.6185L67.1101 50.8037H70.3183L73.691 55.5301L77.0362 50.8037H80.2718L75.3636 57.6185L80.546 64.9828Z" fill="black"/>
<path d="M59.9653 65.2629C56.6749 65.2629 54.8926 63.6141 54.8926 60.9762C54.8926 58.8603 56.1813 57.1841 59.6911 56.8818L62.4331 56.662C64.1057 56.4971 64.5993 56.1124 64.5993 55.2056C64.5993 53.5843 63.667 52.6226 61.6105 52.6226C59.6911 52.6226 58.6491 53.4469 58.512 55.2056H55.6603C55.6603 52.3478 57.4152 50.5342 61.5831 50.5342C65.7235 50.5342 67.5058 52.3478 67.5058 55.2056V61.3609C67.5058 63.2844 67.6703 64.5209 67.9445 64.9881H65.3396C64.9009 64.4385 64.7364 63.8614 64.7364 62.5424C63.9686 64.3561 62.4057 65.2629 59.9653 65.2629ZM60.7605 63.2569C63.2557 63.2569 64.5993 61.3059 64.5993 58.9702V57.7611C64.2977 58.1458 63.5299 58.3657 62.4331 58.4481L60.6234 58.613C58.5943 58.7778 57.7991 59.6297 57.7991 60.7838C57.7991 62.2402 58.6765 63.2569 60.7605 63.2569Z" fill="black"/>
<path d="M54.3421 64.9849H51.4355V45.4199H54.3421V64.9849Z" fill="black"/>
<path d="M44.2353 65.2629C39.7384 65.2629 37.2432 62.4051 37.2432 57.8985C37.2432 53.5294 39.6013 50.5342 44.0708 50.5342C48.5402 50.5342 50.8983 53.5843 50.8983 57.6512C50.8983 57.926 50.8709 58.1733 50.8435 58.4481H40.1497C40.2319 61.8005 41.8223 63.2569 44.2353 63.2569C46.2369 63.2569 47.4983 62.2127 47.937 60.5914H50.5967C49.9661 63.4767 47.9096 65.2629 44.2353 65.2629ZM44.0708 52.5401C41.8772 52.5401 40.4513 53.8591 40.1497 56.5246H47.9918C47.6902 53.8591 46.2644 52.5401 44.0708 52.5401Z" fill="black"/>
<path d="M32.9163 64.9875H30.0098V55.2554L32.7792 50.8084V54.0784C33.5195 51.5778 34.7809 50.6436 36.8374 50.6436C37.2212 50.6436 37.7696 50.726 38.1261 50.8084V53.364L36.7277 53.309C34.4244 53.309 32.9163 55.0951 32.9163 58.2552V64.9875Z" fill="black"/>
</svg>
