<svg width="91" height="90" viewBox="0 0 91 90" fill="none" xmlns="http://www.w3.org/2000/svg">
<rect x="0.00976562" y="0.419922" width="90.5937" height="89.1325" rx="44.5663" fill="#F9FAFC"/>
<path d="M69.2216 50.7674C66.3858 50.7674 65.1348 49.5863 65.1348 47.8395H67.6202C67.7203 48.6713 68.1206 49.1205 69.2549 49.1205C70.3225 49.1205 70.7562 48.7046 70.7562 48.1722C70.7562 47.6898 70.3559 47.4236 69.672 47.3238L68.3041 47.1408C66.1356 46.8247 65.3683 46.1094 65.3683 44.6122C65.3683 43.0317 66.536 41.8506 69.2216 41.8506C71.9072 41.8506 73.0748 43.0317 73.0748 44.6454H70.5894C70.506 44.0133 70.2558 43.4975 69.1882 43.4975C68.2708 43.4975 67.9205 43.8635 67.9205 44.3959C67.9205 44.8617 68.1707 45.078 68.7378 45.1611L70.089 45.3441C72.1407 45.6436 73.3084 46.2757 73.3084 48.0059C73.3084 49.5863 72.0573 50.7674 69.2216 50.7674Z" fill="#288DFF"/>
<path d="M63.4315 50.6991C61.3297 50.6991 60.6624 50.0336 60.6624 47.9874V43.7952H59.3613V42.0151H60.6624V39.4199H63.1979V42.0151H64.9661V43.7952H63.1979V48.0872C63.1979 48.6861 63.4648 48.9024 64.0653 48.9024H64.9661V50.5993C64.5824 50.6325 63.8318 50.6991 63.4315 50.6991Z" fill="#288DFF"/>
<path d="M55.4324 50.7674C52.58 50.7674 50.9619 48.9874 50.9619 46.309C50.9619 43.6306 52.58 41.8506 55.4324 41.8506C58.3015 41.8506 59.6359 43.5974 59.6359 45.3774H57.2339C57.1005 44.4292 56.5667 43.7637 55.4324 43.7637C54.2147 43.7637 53.5141 44.5789 53.5141 46.309C53.5141 48.0392 54.2147 48.8543 55.4324 48.8543C56.3999 48.8543 57.0838 48.3719 57.2339 47.1741H59.6359C59.6359 49.1205 58.2014 50.7674 55.4324 50.7674Z" fill="#288DFF"/>
<path d="M45.3489 50.7674C43.2971 50.7674 42.2129 49.7527 42.2129 48.1722C42.2129 46.8414 42.9802 45.76 45.1821 45.577L47.017 45.4273C47.7342 45.3608 47.9344 45.1445 47.9344 44.7785C47.9344 44.0465 47.484 43.6306 46.6166 43.6306C45.7659 43.6306 45.2988 44.0133 45.2154 44.7785H42.68C42.68 42.9985 43.8142 41.8506 46.5833 41.8506C49.3523 41.8506 50.4866 42.9985 50.4866 44.7785V48.4051C50.4866 49.5697 50.5866 50.3183 50.7535 50.6011H48.4348C48.2013 50.3016 48.0678 49.9689 48.0678 49.4033C47.5841 50.3016 46.7834 50.7674 45.3489 50.7674ZM46.0995 49.0706C47.2672 49.0706 47.9344 48.1889 47.9344 47.1408V46.6584C47.8176 46.7915 47.484 46.8746 47.017 46.9245L46.0828 46.9911C45.132 47.0743 44.7651 47.4569 44.7651 47.9892C44.7651 48.638 45.1654 49.0706 46.0995 49.0706Z" fill="#288DFF"/>
<path d="M39.56 50.601H37.0078V42.0168H39.4265V43.8634C39.8602 42.3662 40.6109 41.9004 41.7452 41.9004C41.9787 41.9004 42.379 41.9503 42.5458 42.0168V44.2294L41.6451 44.2128C40.3773 44.2128 39.56 45.1111 39.56 46.6749V50.601Z" fill="#288DFF"/>
<path d="M34.9715 50.6991C32.8697 50.6991 32.2025 50.0336 32.2025 47.9874V43.7952H30.9014V42.0151H32.2025V39.4199H34.738V42.0151H36.5061V43.7952H34.738V48.0872C34.738 48.6861 35.0049 48.9024 35.6054 48.9024H36.5061V50.5993C36.1225 50.6325 35.3718 50.6991 34.9715 50.6991Z" fill="#288DFF"/>
<path d="M29.4324 50.6991C27.3306 50.6991 26.6634 50.0336 26.6634 47.9874V43.7952H25.3623V42.0151H26.6634V39.4199H29.1989V42.0151H30.9671V43.7952H29.1989V48.0872C29.1989 48.6861 29.4658 48.9024 30.0663 48.9024H30.9671V50.5993C30.5834 50.6325 29.8328 50.6991 29.4324 50.6991Z" fill="#288DFF"/>
<path d="M20.1458 50.7674C18.094 50.7674 17.0098 49.7527 17.0098 48.1722C17.0098 46.8414 17.7771 45.76 19.9789 45.577L21.8138 45.4273C22.5311 45.3608 22.7313 45.1445 22.7313 44.7785C22.7313 44.0465 22.2809 43.6306 21.4135 43.6306C20.5628 43.6306 20.0957 44.0133 20.0123 44.7785H17.4768C17.4768 42.9985 18.6111 41.8506 21.3801 41.8506C24.1491 41.8506 25.2834 42.9985 25.2834 44.7785V48.4051C25.2834 49.5697 25.3835 50.3183 25.5503 50.6011H23.2317C22.9982 50.3016 22.8647 49.9689 22.8647 49.4033C22.381 50.3016 21.5803 50.7674 20.1458 50.7674ZM20.8964 49.0706C22.064 49.0706 22.7313 48.1889 22.7313 47.1408V46.6584C22.6145 46.7915 22.2809 46.8746 21.8138 46.9245L20.8797 46.9911C19.9289 47.0743 19.5619 47.4569 19.5619 47.9892C19.5619 48.638 19.9623 49.0706 20.8964 49.0706Z" fill="#288DFF"/>
</svg>
