<svg width="124" height="126" viewBox="0 0 124 126" fill="none" xmlns="http://www.w3.org/2000/svg">
<rect x="124.01" y="125.42" width="123.856" height="125.133" rx="61.9279" transform="rotate(180 124.01 125.42)" fill="#F9FAFC"/>
<path fill-rule="evenodd" clip-rule="evenodd" d="M41.0098 54.4199V58.4199C41.0098 60.6291 42.8006 62.4199 45.0098 62.4199H57.0098C59.2189 62.4199 61.0098 60.6291 61.0098 58.4199V46.4199C61.0098 44.2108 59.2189 42.4199 57.0098 42.4199H53.0098V54.4199H41.0098Z" fill="black"/>
<path fill-rule="evenodd" clip-rule="evenodd" d="M82.0098 54.4199V58.4199C82.0098 60.6291 80.2189 62.4199 78.0098 62.4199H66.0098C63.8006 62.4199 62.0098 60.6291 62.0098 58.4199V46.4199C62.0098 44.2108 63.8006 42.4199 66.0098 42.4199H70.0098V54.4199H82.0098Z" fill="black"/>
<path fill-rule="evenodd" clip-rule="evenodd" d="M41.0098 71.4199V67.4199C41.0098 65.2108 42.8006 63.4199 45.0098 63.4199H57.0098C59.2189 63.4199 61.0098 65.2108 61.0098 67.4199V79.4199C61.0098 81.6291 59.2189 83.4199 57.0098 83.4199H52.0098V71.4199H41.0098Z" fill="black"/>
<path fill-rule="evenodd" clip-rule="evenodd" d="M82.0098 71.4199V67.4199C82.0098 65.2108 80.2189 63.4199 78.0098 63.4199H66.0098C63.8006 63.4199 62.0098 65.2108 62.0098 67.4199V79.4199C62.0098 81.6291 63.8006 83.4199 66.0098 83.4199H70.0098V71.4199H82.0098Z" fill="black"/>
</svg>
