<svg fill="none" height="90" viewBox="0 0 671 90" width="671" xmlns="http://www.w3.org/2000/svg"><g fill="#f1f1f1"><path d="m623.078 21.2002h9.9v8.2c3.2-5.7 8.6-9.2 16.1-9.2 13.1 0 21.6 11.1 21.6 26.6s-8.5 26.6-21.6 26.6c-7.5 0-12.9-3.5-16.1-9.2v25h-9.9zm23.3 44.4c8.8 0 13.7-7.8 13.7-18.8s-4.9-18.8-13.7-18.8-13.6 7.8-13.6 18.8 4.9 18.8 13.6 18.8z"/><path d="m588.731 73.4002c-9.9 0-17.7-5.6-17.7-15.6s7.9-13.2 20.4-16.5c8-2.2 13.4-3.2 13.4-7.4 0-3.7-3.6-6.5-10.4-6.5s-11.3 2.9-11.9 8.7h-10c1.3-9.1 8.9-15.9 22-15.9s20.4 5.6 20.4 15.8v36.2h-9.5v-9.1c-1.8 5.6-7.1 10.3-16.7 10.3zm2.8-7.2c8.7 0 13.7-7.5 13.7-16v-9.5c-1.2 2.9-4.8 4.5-10.7 6.2-7.9 2.2-13.1 4.5-13.1 10.6 0 5.6 4.3 8.7 10.1 8.7z"/><path d="m547.719 73.4c-14.2 0-22.699-6.5-23.699-17.7h10.199c.8 7.6 6.4 10.4 13.5 10.4s10.5-3.8 10.5-8.1c0-5.2-3.6-6.5-12.5-8.7-10.6-2.6-19.899-4.9-19.899-15 0-8.4 8.099-14.3 20.599-14.3s20.101 6.6 21.401 15.5h-10.101c-.7-5.3-4.799-8.3-11.399-8.3s-10.3 3-10.3 6.5c0 4.7 4.9 5.8 13 7.8 10.9 2.6 19.6 5.3 19.6 15.8s-8.401 16.1-20.901 16.1z"/><path d="m487.39 73.4c-20.1 0-32.8-15.4-32.8-36.7s13.3-36.7 34.2-36.7c16.9 0 27.2 10.1 30.2 23h-11.1c-2.2-7.9-8.9-13.6-19.1-13.6-14.7 0-23 11.7-23 27.3s8.3 27.3 23.1 27.3c12.1 0 19.3-8.1 19.5-18.6v-2.4h-21.4v-8.8h32.1v38h-9.5v-11.6c-3.3 7.6-11.2 12.8-22.2 12.8z"/><path d="m326 1.2002h10.9l-18 71h-11.8l-15.4-57.7-15.5 57.7h-11.7l-18-71h10.8l13.6 58.4 15-58.4h11.5l15 58.2z"/><path d="m180.648 46.7002c0-15.2 9.9-26.5 25.1-26.5s25.3 12.6 24.6 28.6h-39.3c.4 10.3 5.8 17 15.1 17 7.2 0 11.2-4.4 13.1-9.8h10.1c-2.8 10.1-10.9 17.4-23.3 17.4-15.3 0-25.4-11.3-25.4-26.7zm39.4-4.8c-1.4-8.5-6.3-14.1-14.3-14.1s-13 5.5-14.4 14.1z"/><path d="m148.901 73.4002c-13.1 0-21.6-11.1-21.6-26.6s8.5-26.6 21.6-26.6c7.5 0 13 3.5 16.1 9.2v-28.2h10v71h-10v-8c-3.1 5.7-8.6 9.2-16.1 9.2zm2.7-7.8c8.8 0 13.7-7.8 13.7-18.8s-4.9-18.8-13.7-18.8-13.7 7.8-13.7 18.8 5 18.8 13.7 18.8z"/><path d="m95.7508 73.4002c-9.9 0-17.7-5.6-17.7-15.6s7.9-13.2 20.4-16.5c8.0002-2.2 13.4002-3.2 13.4002-7.4 0-3.7-3.6-6.5-10.4-6.5-6.8002 0-11.3002 2.9-11.9002 8.7h-10c1.3-9.1 8.9-15.9 22.0002-15.9 13.1 0 20.4 5.6 20.4 15.8v36.2h-9.5v-9.1c-1.8 5.6-7.1 10.3-16.7002 10.3zm2.8-7.2c8.7002 0 13.7002-7.5 13.7002-16v-9.5c-1.2 2.9-4.8 4.5-10.7 6.2-7.9002 2.2-13.1002 4.5-13.1002 10.6 0 5.6 4.3 8.7 10.1 8.7z"/><path d="m72 1.2002v71h-10.5v-59.9l-20.5 59.9h-10l-20.5-59.9v59.9h-10.5v-71h16.3l19.7 58.3 19.7-58.3z"/><path d="m415.359 20.2002c-9 0-14 4.6-16.6 9.5v-28.5h-9.9v19.01h-14.09c-1.27 0-2.25.98-2.25 2.25v5.29c0 1.27-.98 2.25-2.25 2.25h-5.49c-1.27 0-2.24.98-2.24 2.25v26.95c0 8.8 2.7 13 12.1 13h14.23 9.9v-29.4c0-9 5.6-14.6 12.8-14.6 7.7 0 10.7 4 10.7 10.6v33.4h9.9v-35.3c0-10.2-5.8-16.7-16.8-16.7zm-40.59 42.2c-1.25 0-2.26-1.01-2.25-2.26v-3.84l.01-6.71v-17.34c0-1.24 1.01-2.25 2.25-2.25h14.08v32.4z"/><path d="m351.048 1.2002h-9.9v9.9h9.9z"/><path d="m364.78 20.2102h5.49c1.27 0 2.25-.98 2.25-2.25v-16.76h-9.99v16.75c0 1.27-.98 2.25-2.25 2.25h-19.12v52h9.9v-42.2h9.22c1.27 0 2.25-.98 2.25-2.25v-5.29c0-1.27.98-2.25 2.25-2.25z"/></g></svg>